# Blender 3.6.2
# www.blender.org
mtllib bottle.mtl
o Cylinder
v 0.000000 -0.050000 -0.025000
v 0.000000 0.050000 -0.024403
v 0.004877 -0.050000 -0.024520
v 0.004761 0.050000 -0.023934
v 0.009567 -0.050000 -0.023097
v 0.009338 0.050000 -0.022545
v 0.013889 -0.050000 -0.020787
v 0.013557 0.050000 -0.020290
v 0.017678 -0.050000 -0.017678
v 0.017255 0.050000 -0.017255
v 0.020787 -0.050000 -0.013889
v 0.020290 0.050000 -0.013557
v 0.023097 -0.050000 -0.009567
v 0.022545 0.050000 -0.009338
v 0.024520 -0.050000 -0.004877
v 0.023934 0.050000 -0.004761
v 0.025000 -0.050000 0.000000
v 0.024403 0.050000 0.000000
v 0.024520 -0.050000 0.004877
v 0.023934 0.050000 0.004761
v 0.023097 -0.050000 0.009567
v 0.022545 0.050000 0.009338
v 0.020787 -0.050000 0.013889
v 0.020290 0.050000 0.013557
v 0.017678 -0.050000 0.017678
v 0.017255 0.050000 0.017255
v 0.013889 -0.050000 0.020787
v 0.013557 0.050000 0.020290
v 0.009567 -0.050000 0.023097
v 0.009338 0.050000 0.022545
v 0.004877 -0.050000 0.024520
v 0.004761 0.050000 0.023934
v 0.000000 -0.050000 0.025000
v 0.000000 0.050000 0.024403
v -0.004877 -0.050000 0.024520
v -0.004761 0.050000 0.023934
v -0.009567 -0.050000 0.023097
v -0.009338 0.050000 0.022545
v -0.013889 -0.050000 0.020787
v -0.013557 0.050000 0.020290
v -0.017678 -0.050000 0.017678
v -0.017255 0.050000 0.017255
v -0.020787 -0.050000 0.013889
v -0.020290 0.050000 0.013557
v -0.023097 -0.050000 0.009567
v -0.022545 0.050000 0.009338
v -0.024520 -0.050000 0.004877
v -0.023934 0.050000 0.004761
v -0.025000 -0.050000 0.000000
v -0.024403 0.050000 0.000000
v -0.024520 -0.050000 -0.004877
v -0.023934 0.050000 -0.004761
v -0.023097 -0.050000 -0.009567
v -0.022545 0.050000 -0.009338
v -0.020787 -0.050000 -0.013889
v -0.020290 0.050000 -0.013557
v -0.017678 -0.050000 -0.017678
v -0.017255 0.050000 -0.017255
v -0.013889 -0.050000 -0.020787
v -0.013557 0.050000 -0.020290
v -0.009567 -0.050000 -0.023097
v -0.009338 0.050000 -0.022545
v -0.004877 -0.050000 -0.024520
v -0.004761 0.050000 -0.023934
v 0.000000 0.067025 -0.019697
v 0.003843 0.067025 -0.019319
v 0.007538 0.067025 -0.018198
v 0.010943 0.067025 -0.016378
v 0.013928 0.067025 -0.013928
v 0.016378 0.067025 -0.010943
v 0.018198 0.067025 -0.007538
v 0.019319 0.067025 -0.003843
v 0.019697 0.067025 0.000000
v 0.019319 0.067025 0.003843
v 0.018198 0.067025 0.007538
v 0.016378 0.067025 0.010943
v 0.013928 0.067025 0.013928
v 0.010943 0.067025 0.016378
v 0.007538 0.067025 0.018198
v 0.003843 0.067025 0.019319
v 0.000000 0.067025 0.019697
v -0.003843 0.067025 0.019319
v -0.007538 0.067025 0.018198
v -0.010943 0.067025 0.016378
v -0.013928 0.067025 0.013928
v -0.016378 0.067025 0.010943
v -0.018198 0.067025 0.007538
v -0.019319 0.067025 0.003843
v -0.019697 0.067025 0.000000
v -0.019319 0.067025 -0.003843
v -0.018198 0.067025 -0.007538
v -0.016378 0.067025 -0.010943
v -0.013928 0.067025 -0.013928
v -0.010943 0.067025 -0.016378
v -0.007538 0.067025 -0.018198
v -0.003843 0.067025 -0.019319
v 0.000000 0.072940 -0.011649
v 0.002273 0.072940 -0.011425
v 0.004458 0.072940 -0.010762
v 0.006472 0.072940 -0.009686
v 0.008237 0.072940 -0.008237
v 0.009686 0.072940 -0.006472
v 0.010762 0.072940 -0.004458
v 0.011425 0.072940 -0.002273
v 0.011649 0.072940 0.000000
v 0.011425 0.072940 0.002273
v 0.010762 0.072940 0.004458
v 0.009686 0.072940 0.006472
v 0.008237 0.072940 0.008237
v 0.006472 0.072940 0.009686
v 0.004458 0.072940 0.010762
v 0.002273 0.072940 0.011425
v 0.000000 0.072940 0.011649
v -0.002273 0.072940 0.011425
v -0.004458 0.072940 0.010762
v -0.006472 0.072940 0.009686
v -0.008237 0.072940 0.008237
v -0.009686 0.072940 0.006472
v -0.010762 0.072940 0.004458
v -0.011425 0.072940 0.002273
v -0.011649 0.072940 0.000000
v -0.011425 0.072940 -0.002273
v -0.010762 0.072940 -0.004458
v -0.009686 0.072940 -0.006472
v -0.008237 0.072940 -0.008237
v -0.006472 0.072940 -0.009686
v -0.004458 0.072940 -0.010762
v -0.002273 0.072940 -0.011425
v 0.000000 0.078196 -0.007983
v 0.001557 0.078196 -0.007830
v 0.003055 0.078196 -0.007376
v 0.004435 0.078196 -0.006638
v 0.005645 0.078196 -0.005645
v 0.006638 0.078196 -0.004435
v 0.007376 0.078196 -0.003055
v 0.007830 0.078196 -0.001557
v 0.007983 0.078196 0.000000
v 0.007830 0.078196 0.001557
v 0.007376 0.078196 0.003055
v 0.006638 0.078196 0.004435
v 0.005645 0.078196 0.005645
v 0.004435 0.078196 0.006638
v 0.003055 0.078196 0.007376
v 0.001557 0.078196 0.007830
v 0.000000 0.078196 0.007983
v -0.001557 0.078196 0.007830
v -0.003055 0.078196 0.007376
v -0.004435 0.078196 0.006638
v -0.005645 0.078196 0.005645
v -0.006638 0.078196 0.004435
v -0.007376 0.078196 0.003055
v -0.007830 0.078196 0.001557
v -0.007983 0.078196 0.000000
v -0.007830 0.078196 -0.001557
v -0.007376 0.078196 -0.003055
v -0.006638 0.078196 -0.004435
v -0.005645 0.078196 -0.005645
v -0.004435 0.078196 -0.006638
v -0.003055 0.078196 -0.007376
v -0.001557 0.078196 -0.007830
v 0.000000 0.115639 -0.005841
v 0.001140 0.115639 -0.005729
v 0.002235 0.115639 -0.005397
v 0.003245 0.115639 -0.004857
v 0.004130 0.115639 -0.004130
v 0.004857 0.115639 -0.003245
v 0.005397 0.115639 -0.002235
v 0.005729 0.115639 -0.001140
v 0.005841 0.115639 0.000000
v 0.005729 0.115639 0.001140
v 0.005397 0.115639 0.002235
v 0.004857 0.115639 0.003245
v 0.004130 0.115639 0.004130
v 0.003245 0.115639 0.004857
v 0.002235 0.115639 0.005397
v 0.001140 0.115639 0.005729
v 0.000000 0.115639 0.005841
v -0.001140 0.115639 0.005729
v -0.002235 0.115639 0.005397
v -0.003245 0.115639 0.004857
v -0.004130 0.115639 0.004130
v -0.004857 0.115639 0.003245
v -0.005397 0.115639 0.002235
v -0.005729 0.115639 0.001140
v -0.005841 0.115639 0.000000
v -0.005729 0.115639 -0.001140
v -0.005397 0.115639 -0.002235
v -0.004857 0.115639 -0.003245
v -0.004130 0.115639 -0.004130
v -0.003245 0.115639 -0.004857
v -0.002235 0.115639 -0.005397
v -0.001140 0.115639 -0.005729
v 0.000000 0.115934 -0.006307
v 0.001230 0.115934 -0.006185
v 0.002413 0.115934 -0.005827
v 0.003504 0.115934 -0.005244
v 0.004459 0.115934 -0.004459
v 0.005244 0.115934 -0.003504
v 0.005827 0.115934 -0.002413
v 0.006185 0.115934 -0.001230
v 0.006307 0.115934 0.000000
v 0.006185 0.115934 0.001230
v 0.005827 0.115934 0.002413
v 0.005244 0.115934 0.003504
v 0.004459 0.115934 0.004459
v 0.003504 0.115934 0.005244
v 0.002413 0.115934 0.005827
v 0.001230 0.115934 0.006185
v 0.000000 0.115934 0.006307
v -0.001230 0.115934 0.006185
v -0.002413 0.115934 0.005827
v -0.003504 0.115934 0.005244
v -0.004459 0.115934 0.004459
v -0.005244 0.115934 0.003504
v -0.005827 0.115934 0.002413
v -0.006185 0.115934 0.001230
v -0.006307 0.115934 0.000000
v -0.006185 0.115934 -0.001230
v -0.005827 0.115934 -0.002413
v -0.005244 0.115934 -0.003504
v -0.004459 0.115934 -0.004459
v -0.003504 0.115934 -0.005244
v -0.002413 0.115934 -0.005827
v -0.001230 0.115934 -0.006185
v 0.000000 0.116542 -0.006307
v 0.001230 0.116542 -0.006185
v 0.002413 0.116542 -0.005827
v 0.003504 0.116542 -0.005244
v 0.004459 0.116542 -0.004459
v 0.005244 0.116542 -0.003504
v 0.005827 0.116542 -0.002413
v 0.006185 0.116542 -0.001230
v 0.006307 0.116542 0.000000
v 0.006185 0.116542 0.001230
v 0.005827 0.116542 0.002413
v 0.005244 0.116542 0.003504
v 0.004459 0.116542 0.004459
v 0.003504 0.116542 0.005244
v 0.002413 0.116542 0.005827
v 0.001230 0.116542 0.006185
v 0.000000 0.116542 0.006307
v -0.001230 0.116542 0.006185
v -0.002413 0.116542 0.005827
v -0.003504 0.116542 0.005244
v -0.004459 0.116542 0.004459
v -0.005244 0.116542 0.003504
v -0.005827 0.116542 0.002413
v -0.006185 0.116542 0.001230
v -0.006307 0.116542 0.000000
v -0.006185 0.116542 -0.001230
v -0.005827 0.116542 -0.002413
v -0.005244 0.116542 -0.003504
v -0.004459 0.116542 -0.004459
v -0.003504 0.116542 -0.005244
v -0.002413 0.116542 -0.005827
v -0.001230 0.116542 -0.006185
v 0.000000 0.117086 -0.005337
v 0.001041 0.117086 -0.005234
v 0.004931 0.117086 -0.002042
v 0.005337 0.117086 0.000000
v 0.004931 0.117086 0.002042
v 0.004438 0.117086 0.002965
v 0.003774 0.117086 0.003774
v 0.002042 0.117086 0.004931
v 0.001041 0.117086 0.005234
v -0.001041 0.117086 0.005234
v -0.002042 0.117086 0.004931
v -0.002965 0.117086 0.004438
v -0.004438 0.117086 0.002965
v -0.004931 0.117086 0.002042
v -0.004931 0.117086 -0.002042
v -0.003774 0.117086 -0.003774
v -0.002965 0.117086 -0.004438
v 0.002042 0.117086 -0.004931
v 0.002965 0.117086 -0.004438
v 0.003774 0.117086 -0.003774
v 0.004438 0.117086 -0.002965
v 0.005234 0.117086 -0.001041
v 0.005234 0.117086 0.001041
v 0.002965 0.117086 0.004438
v 0.000000 0.117086 0.005337
v -0.003774 0.117086 0.003774
v -0.005234 0.117086 0.001041
v -0.005337 0.117086 0.000000
v -0.005234 0.117086 -0.001041
v -0.004438 0.117086 -0.002965
v -0.002042 0.117086 -0.004931
v -0.001041 0.117086 -0.005234
v 0.000000 0.000944 -0.025000
v 0.004877 0.000944 -0.024520
v 0.009567 0.000944 -0.023097
v 0.013889 0.000944 -0.020787
v 0.017678 0.000944 -0.017678
v 0.020787 0.000944 -0.013889
v 0.023097 0.000944 -0.009567
v 0.024520 0.000944 -0.004877
v 0.025000 0.000944 0.000000
v 0.024520 0.000944 0.004877
v 0.023097 0.000944 0.009567
v 0.020787 0.000944 0.013889
v 0.017678 0.000944 0.017678
v 0.013889 0.000944 0.020787
v 0.009567 0.000944 0.023097
v 0.004877 0.000944 0.024520
v 0.000000 0.000944 0.025000
v -0.004877 0.000944 0.024520
v -0.009567 0.000944 0.023097
v -0.013889 0.000944 0.020787
v -0.017678 0.000944 0.017678
v -0.020787 0.000944 0.013889
v -0.023097 0.000944 0.009567
v -0.024520 0.000944 0.004877
v -0.025000 0.000944 0.000000
v -0.024520 0.000944 -0.004877
v -0.023097 0.000944 -0.009567
v -0.020787 0.000944 -0.013889
v -0.017678 0.000944 -0.017678
v -0.013889 0.000944 -0.020787
v -0.009567 0.000944 -0.023097
v -0.004877 0.000944 -0.024520
v 0.000000 0.030259 -0.025000
v 0.004877 0.030259 -0.024520
v 0.009567 0.030259 -0.023097
v 0.013889 0.030259 -0.020787
v 0.017678 0.030259 -0.017678
v 0.020787 0.030259 -0.013889
v 0.023097 0.030259 -0.009567
v 0.024520 0.030259 -0.004877
v 0.025000 0.030259 0.000000
v 0.024520 0.030259 0.004877
v 0.023097 0.030259 0.009567
v 0.020787 0.030259 0.013889
v 0.017678 0.030259 0.017678
v 0.013889 0.030259 0.020787
v 0.009567 0.030259 0.023097
v 0.004877 0.030259 0.024520
v 0.000000 0.030259 0.025000
v -0.004877 0.030259 0.024520
v -0.009567 0.030259 0.023097
v -0.013889 0.030259 0.020787
v -0.017678 0.030259 0.017678
v -0.020787 0.030259 0.013889
v -0.023097 0.030259 0.009567
v -0.024520 0.030259 0.004877
v -0.025000 0.030259 0.000000
v -0.024520 0.030259 -0.004877
v -0.023097 0.030259 -0.009567
v -0.020787 0.030259 -0.013889
v -0.017678 0.030259 -0.017678
v -0.013889 0.030259 -0.020787
v -0.009567 0.030259 -0.023097
v -0.004877 0.030259 -0.024520
vn -0.0000 0.1418 -0.9899
vn 0.1951 0.0151 -0.9807
vn -0.0000 0.0151 -0.9999
vn 0.1931 0.1418 -0.9709
vn 0.3826 0.0151 -0.9238
vn 0.3788 0.1418 -0.9145
vn 0.5555 0.0151 -0.8314
vn 0.5500 0.1418 -0.8231
vn 0.7070 0.0151 -0.7070
vn 0.7000 0.1418 -0.7000
vn 0.8314 0.0151 -0.5555
vn 0.8231 0.1418 -0.5500
vn 0.9238 0.0151 -0.3826
vn 0.9145 0.1418 -0.3788
vn 0.9807 0.0151 -0.1951
vn 0.9709 0.1418 -0.1931
vn 0.9999 0.0151 -0.0000
vn 0.9899 0.1418 -0.0000
vn 0.9807 0.0151 0.1951
vn 0.9709 0.1418 0.1931
vn 0.9238 0.0151 0.3826
vn 0.9145 0.1418 0.3788
vn 0.8314 0.0151 0.5555
vn 0.8231 0.1418 0.5500
vn 0.7070 0.0151 0.7070
vn 0.7000 0.1418 0.7000
vn 0.5555 0.0151 0.8314
vn 0.5500 0.1418 0.8231
vn 0.3826 0.0151 0.9238
vn 0.3788 0.1418 0.9145
vn 0.1951 0.0151 0.9807
vn 0.1931 0.1418 0.9709
vn -0.0000 0.0151 0.9999
vn -0.0000 0.1418 0.9899
vn -0.1951 0.0151 0.9807
vn -0.1931 0.1418 0.9709
vn -0.3826 0.0151 0.9238
vn -0.3788 0.1418 0.9145
vn -0.5555 0.0151 0.8314
vn -0.5500 0.1418 0.8231
vn -0.7070 0.0151 0.7070
vn -0.7000 0.1418 0.7000
vn -0.8314 0.0151 0.5555
vn -0.8231 0.1418 0.5500
vn -0.9238 0.0151 0.3826
vn -0.9145 0.1418 0.3788
vn -0.9807 0.0151 0.1951
vn -0.9709 0.1418 0.1931
vn -0.9999 0.0151 -0.0000
vn -0.9899 0.1418 -0.0000
vn -0.9807 0.0151 -0.1951
vn -0.9709 0.1418 -0.1931
vn -0.9238 0.0151 -0.3826
vn -0.9145 0.1418 -0.3788
vn -0.8314 0.0151 -0.5555
vn -0.8231 0.1418 -0.5500
vn -0.7070 0.0151 -0.7070
vn -0.7000 0.1418 -0.7000
vn -0.5555 0.0151 -0.8314
vn -0.5500 0.1418 -0.8231
vn -0.3826 0.0151 -0.9238
vn -0.1765 -0.4261 0.8873
vn -0.6397 -0.4261 0.6397
vn -0.0000 -0.4261 0.9047
vn -0.3788 0.1418 -0.9145
vn -0.1951 0.0151 -0.9807
vn -0.1931 0.1418 -0.9709
vn -0.3462 -0.4261 0.8358
vn -0.5026 -0.4261 0.7522
vn -0.7522 -0.4261 0.5026
vn 0.1765 -0.4261 0.8873
vn 0.3462 -0.4261 0.8358
vn -0.8358 -0.4261 0.3462
vn -0.8873 -0.4261 0.1765
vn 0.5026 -0.4261 0.7522
vn -0.9047 -0.4261 -0.0000
vn 0.6397 -0.4261 0.6397
vn -0.8873 -0.4261 -0.1765
vn 0.7522 -0.4261 0.5026
vn 0.8358 -0.4261 0.3462
vn -0.8358 -0.4261 -0.3462
vn -0.7522 -0.4261 -0.5026
vn 0.8873 -0.4261 0.1765
vn -0.6397 -0.4261 -0.6397
vn 0.9047 -0.4261 -0.0000
vn -0.5026 -0.4261 -0.7522
vn 0.8873 -0.4261 -0.1765
vn -0.3462 -0.4261 -0.8358
vn 0.8358 -0.4261 -0.3462
vn -0.1765 -0.4261 -0.8873
vn 0.7522 -0.4261 -0.5026
vn 0.6397 -0.4261 -0.6397
vn -0.0000 -0.4261 -0.9047
vn 0.1765 -0.4261 -0.8873
vn 0.3462 -0.4261 -0.8358
vn 0.5026 -0.4261 -0.7522
vn -0.4839 0.4913 -0.7242
vn 0.8542 0.4913 -0.1699
vn -0.0000 0.4913 0.8710
vn -0.8710 0.4913 -0.0000
vn -0.8542 0.4913 -0.1699
vn 0.3333 0.4913 -0.8047
vn 0.4839 0.4913 -0.7242
vn 0.6159 0.4913 0.6159
vn -0.6159 0.4913 0.6159
vn -0.7242 0.4913 0.4839
vn -0.3333 0.4913 -0.8047
vn 0.8710 0.4913 -0.0000
vn -0.1699 0.4913 0.8542
vn -0.8047 0.4913 -0.3333
vn 0.6159 0.4913 -0.6159
vn 0.4839 0.4913 0.7242
vn -0.8047 0.4913 0.3333
vn -0.1699 0.4913 -0.8542
vn 0.8542 0.4913 0.1699
vn -0.3333 0.4913 0.8047
vn -0.7242 0.4913 -0.4839
vn 0.7242 0.4913 -0.4839
vn 0.3333 0.4913 0.8047
vn -0.8542 0.4913 0.1699
vn -0.0000 0.4913 -0.8710
vn 0.1699 0.4913 -0.8542
vn 0.8047 0.4913 0.3333
vn -0.4839 0.4913 0.7242
vn -0.6159 0.4913 -0.6159
vn 0.8047 0.4913 -0.3333
vn 0.1699 0.4913 0.8542
vn 0.7242 0.4913 0.4839
vn 0.4005 0.6930 -0.5994
vn -0.4005 0.6930 -0.5994
vn -0.2759 0.6930 -0.6660
vn -0.0000 0.6930 0.7209
vn -0.1406 0.6930 0.7070
vn 0.5097 0.6930 -0.5097
vn -0.1406 0.6930 -0.7070
vn -0.2759 0.6930 0.6660
vn 0.5994 0.6930 -0.4005
vn -0.0000 0.6930 -0.7209
vn -0.4005 0.6930 0.5994
vn 0.6660 0.6930 -0.2759
vn -0.5097 0.6930 0.5097
vn 0.7070 0.6930 -0.1406
vn -0.5994 0.6930 0.4005
vn 0.7209 0.6930 -0.0000
vn -0.6660 0.6930 0.2759
vn 0.7070 0.6930 0.1406
vn -0.7070 0.6930 0.1406
vn 0.6660 0.6930 0.2759
vn -0.7209 0.6930 -0.0000
vn 0.5994 0.6930 0.4005
vn -0.7070 0.6930 -0.1406
vn 0.5097 0.6930 0.5097
vn -0.6660 0.6930 -0.2759
vn 0.4005 0.6930 0.5994
vn -0.5994 0.6930 -0.4005
vn 0.2759 0.6930 0.6660
vn 0.1406 0.6930 -0.7070
vn -0.5097 0.6930 -0.5097
vn 0.1406 0.6930 0.7070
vn 0.2759 0.6930 -0.6660
vn 0.5317 0.2899 -0.7958
vn 0.6767 0.2899 -0.6767
vn -0.1867 0.2899 -0.9387
vn -0.3663 0.2899 0.8842
vn 0.7958 0.2899 -0.5317
vn -0.0000 0.2899 -0.9571
vn -0.5317 0.2899 0.7958
vn 0.8842 0.2899 -0.3663
vn -0.6767 0.2899 0.6767
vn 0.9387 0.2899 -0.1867
vn -0.7958 0.2899 0.5317
vn 0.9571 0.2899 -0.0000
vn -0.8842 0.2899 0.3663
vn 0.9387 0.2899 0.1867
vn -0.9387 0.2899 0.1867
vn 0.8842 0.2899 0.3663
vn -0.9571 0.2899 -0.0000
vn 0.7958 0.2899 0.5317
vn -0.9387 0.2899 -0.1867
vn 0.6767 0.2899 0.6767
vn -0.8842 0.2899 -0.3663
vn 0.5317 0.2899 0.7958
vn -0.7958 0.2899 -0.5317
vn 0.3663 0.2899 0.8842
vn 0.1867 0.2899 -0.9387
vn -0.6767 0.2899 -0.6767
vn 0.1867 0.2899 0.9387
vn 0.3663 0.2899 -0.8842
vn -0.5317 0.2899 -0.7958
vn -0.0000 0.2899 0.9571
vn -0.3663 0.2899 -0.8842
vn -0.1867 0.2899 0.9387
vn 0.9284 -0.3223 -0.1847
vn -0.7871 -0.3223 0.5259
vn 0.9466 -0.3223 -0.0000
vn -0.8746 -0.3223 0.3623
vn 0.9284 -0.3223 0.1847
vn -0.9284 -0.3223 0.1847
vn 0.8746 -0.3223 0.3623
vn -0.9466 -0.3223 -0.0000
vn 0.7871 -0.3223 0.5259
vn -0.9284 -0.3223 -0.1847
vn 0.6694 -0.3223 0.6694
vn -0.8746 -0.3223 -0.3623
vn 0.5259 -0.3223 0.7871
vn -0.7871 -0.3223 -0.5259
vn 0.3623 -0.3223 0.8746
vn 0.1847 -0.3223 -0.9284
vn -0.6694 -0.3223 -0.6694
vn 0.1847 -0.3223 0.9284
vn 0.3623 -0.3223 -0.8746
vn -0.5259 -0.3223 -0.7871
vn -0.0000 -0.3223 0.9466
vn 0.5259 -0.3223 -0.7871
vn -0.3623 -0.3223 -0.8746
vn -0.1847 -0.3223 0.9284
vn 0.6694 -0.3223 -0.6694
vn -0.1847 -0.3223 -0.9284
vn -0.3623 -0.3223 0.8746
vn 0.7871 -0.3223 -0.5259
vn -0.0000 -0.3223 -0.9466
vn -0.5259 -0.3223 0.7871
vn 0.8746 -0.3223 -0.3623
vn -0.6694 -0.3223 0.6694
vn 0.1841 -0.3307 0.9256
vn 0.3612 -0.3307 -0.8719
vn -0.5243 -0.3307 -0.7847
vn -0.0000 -0.3307 0.9437
vn 0.5243 -0.3307 -0.7847
vn -0.3612 -0.3307 -0.8719
vn -0.1841 -0.3307 0.9256
vn 0.6673 -0.3307 -0.6673
vn -0.1841 -0.3307 -0.9256
vn -0.3612 -0.3307 0.8719
vn 0.7847 -0.3307 -0.5243
vn -0.0000 -0.3307 -0.9437
vn -0.5243 -0.3307 0.7847
vn 0.8719 -0.3307 -0.3612
vn -0.6673 -0.3307 0.6673
vn 0.9256 -0.3307 -0.1841
vn -0.7847 -0.3307 0.5243
vn 0.9437 -0.3307 -0.0000
vn -0.8719 -0.3307 0.3612
vn 0.9256 -0.3307 0.1841
vn -0.9256 -0.3307 0.1841
vn 0.8719 -0.3307 0.3612
vn -0.9437 -0.3307 -0.0000
vn 0.7847 -0.3307 0.5243
vn -0.9256 -0.3307 -0.1841
vn 0.6673 -0.3307 0.6673
vn -0.8719 -0.3307 -0.3612
vn 0.5243 -0.3307 0.7847
vn -0.7847 -0.3307 -0.5243
vn 0.3612 -0.3307 0.8719
vn 0.1841 -0.3307 -0.9256
vn -0.6673 -0.3307 -0.6673
vn -0.3598 0.3405 0.8687
vn 0.7818 0.3405 -0.5224
vn -0.0000 0.3405 -0.9402
vn -0.5224 0.3405 0.7818
vn 0.8687 0.3405 -0.3598
vn -0.6648 0.3405 0.6648
vn 0.9222 0.3405 -0.1834
vn -0.7818 0.3405 0.5224
vn 0.9402 0.3405 -0.0000
vn -0.8687 0.3405 0.3598
vn 0.9222 0.3405 0.1834
vn -0.9222 0.3405 0.1834
vn 0.8687 0.3405 0.3598
vn -0.9402 0.3405 -0.0000
vn 0.7818 0.3405 0.5224
vn -0.9222 0.3405 -0.1834
vn 0.6648 0.3405 0.6648
vn -0.8687 0.3405 -0.3598
vn 0.5224 0.3405 0.7818
vn -0.7818 0.3405 -0.5224
vn 0.3598 0.3405 0.8687
vn 0.1834 0.3405 -0.9222
vn -0.6648 0.3405 -0.6648
vn 0.1834 0.3405 0.9222
vn 0.3598 0.3405 -0.8687
vn -0.5224 0.3405 -0.7818
vn -0.0000 0.3405 0.9402
vn 0.5224 0.3405 -0.7818
vn -0.3598 0.3405 -0.8687
vn -0.1834 0.3405 0.9222
vn 0.6648 0.3405 -0.6648
vn -0.1834 0.3405 -0.9222
vn -0.2333 0.9598 0.1559
vn 0.2805 0.9599 -0.0000
vn -0.2592 0.9598 0.1074
vn 0.2751 0.9599 0.0547
vn -0.2752 0.9598 0.0547
vn 0.2592 0.9598 0.1074
vn -0.2805 0.9598 -0.0000
vn 0.2333 0.9598 0.1559
vn -0.2752 0.9598 -0.0547
vn 0.1984 0.9598 0.1984
vn -0.2592 0.9598 -0.1074
vn 0.1559 0.9598 0.2333
vn -0.2332 0.9598 -0.1559
vn 0.1073 0.9598 0.2592
vn 0.0547 0.9598 -0.2751
vn -0.1984 0.9598 -0.1984
vn 0.0547 0.9598 0.2751
vn 0.1074 0.9598 -0.2592
vn -0.1559 0.9598 -0.2333
vn -0.0000 0.9598 0.2805
vn 0.1559 0.9598 -0.2333
vn -0.1074 0.9598 -0.2592
vn -0.0547 0.9598 0.2751
vn 0.1984 0.9598 -0.1984
vn -0.0547 0.9598 -0.2751
vn -0.1074 0.9598 0.2592
vn 0.2333 0.9598 -0.1559
vn -0.0000 0.9598 -0.2805
vn -0.1559 0.9598 0.2333
vn 0.2592 0.9598 -0.1074
vn -0.1984 0.9598 0.1984
vn 0.2751 0.9598 -0.0547
vn -0.1951 -0.0000 -0.9808
vn -0.3827 -0.0000 -0.9239
vn -0.5556 -0.0000 -0.8315
vn -0.7071 -0.0000 -0.7071
vn -0.8315 -0.0000 -0.5556
vn -0.9239 -0.0000 -0.3827
vn -0.9808 -0.0000 -0.1951
vn -1.0000 -0.0000 -0.0000
vn -0.9808 -0.0000 0.1951
vn -0.9239 -0.0000 0.3827
vn -0.8315 -0.0000 0.5556
vn -0.7071 -0.0000 0.7071
vn -0.5556 -0.0000 0.8315
vn -0.3827 -0.0000 0.9239
vn -0.1951 -0.0000 0.9808
vn -0.0000 -0.0000 1.0000
vn 0.1951 -0.0000 0.9808
vn 0.3827 -0.0000 0.9239
vn 0.5556 -0.0000 0.8315
vn 0.7071 -0.0000 0.7071
vn 0.8315 -0.0000 0.5556
vn 0.9239 -0.0000 0.3827
vn 0.9808 -0.0000 0.1951
vn 1.0000 -0.0000 -0.0000
vn 0.9808 -0.0000 -0.1951
vn 0.9239 -0.0000 -0.3827
vn 0.8315 -0.0000 -0.5556
vn 0.7071 -0.0000 -0.7071
vn 0.5556 -0.0000 -0.8315
vn 0.3827 -0.0000 -0.9239
vn 0.1951 -0.0000 -0.9808
vn -0.0000 -0.0000 -1.0000
vt 0.585347 0.336334
vt 0.554470 0.260312
vt 0.582003 0.260055
vt 0.557990 0.336679
vt 0.526937 0.260568
vt 0.530633 0.337025
vt 0.499405 0.260825
vt 0.503277 0.337371
vt 0.471872 0.261081
vt 0.475920 0.337716
vt 0.444339 0.261338
vt 0.448563 0.338062
vt 0.416807 0.261594
vt 0.421206 0.338407
vt 0.389274 0.261851
vt 0.393849 0.338753
vt 0.361741 0.262107
vt 0.366493 0.339098
vt 0.334209 0.262364
vt 0.339136 0.339444
vt 0.306676 0.262620
vt 0.311779 0.339789
vt 0.279143 0.262877
vt 0.284422 0.340135
vt 0.251611 0.263133
vt 0.257066 0.340480
vt 0.224078 0.263390
vt 0.229709 0.340826
vt 0.196545 0.263646
vt 0.202352 0.341172
vt 0.169013 0.263902
vt 0.174995 0.341517
vt 0.141480 0.264159
vt 0.147638 0.341863
vt 0.113947 0.264415
vt 0.120282 0.342208
vt 0.086415 0.264672
vt 0.092925 0.342554
vt 0.058882 0.264928
vt 0.940985 0.331842
vt 0.912394 0.256978
vt 0.939927 0.256721
vt 0.913628 0.332187
vt 0.884862 0.257234
vt 0.886271 0.332533
vt 0.857329 0.257491
vt 0.858915 0.332878
vt 0.829797 0.257747
vt 0.831558 0.333224
vt 0.802264 0.258003
vt 0.804201 0.333569
vt 0.774731 0.258260
vt 0.776844 0.333915
vt 0.747199 0.258516
vt 0.749488 0.334261
vt 0.719666 0.258773
vt 0.722131 0.334606
vt 0.692133 0.259029
vt 0.694774 0.334952
vt 0.664600 0.259286
vt 0.667417 0.335297
vt 0.637068 0.259542
vt 0.108992 0.686343
vt 0.193570 0.651310
vt 0.087134 0.708201
vt 0.640061 0.335643
vt 0.609535 0.259799
vt 0.612704 0.335988
vt 0.134694 0.669170
vt 0.163253 0.657340
vt 0.224482 0.651310
vt 0.069961 0.733903
vt 0.058131 0.762462
vt 0.254800 0.657341
vt 0.283358 0.669170
vt 0.052101 0.792780
vt 0.309060 0.686343
vt 0.052101 0.823691
vt 0.330918 0.708201
vt 0.058131 0.854009
vt 0.069960 0.882568
vt 0.348092 0.733903
vt 0.359921 0.762462
vt 0.087134 0.908270
vt 0.365952 0.792780
vt 0.108992 0.930128
vt 0.365952 0.823691
vt 0.134694 0.947301
vt 0.359921 0.854009
vt 0.163253 0.959130
vt 0.348092 0.882568
vt 0.193570 0.965161
vt 0.224482 0.965161
vt 0.330918 0.908270
vt 0.309060 0.930128
vt 0.283358 0.947301
vt 0.254800 0.959131
vt 0.669561 0.393153
vt 0.397333 0.397287
vt 0.152327 0.401007
vt 0.805676 0.391087
vt 0.778453 0.391500
vt 0.533447 0.395220
vt 0.506224 0.395633
vt 0.261218 0.399354
vt 0.914567 0.389433
vt 0.887344 0.389847
vt 0.642339 0.393567
vt 0.370110 0.397700
vt 0.125104 0.401420
vt 0.751230 0.391913
vt 0.479001 0.396047
vt 0.233995 0.399767
vt 0.860122 0.390260
vt 0.615116 0.393980
vt 0.342887 0.398113
vt 0.097881 0.401834
vt 0.724007 0.392327
vt 0.451778 0.396460
vt 0.206772 0.400180
vt 0.832899 0.390673
vt 0.587893 0.394393
vt 0.560670 0.394807
vt 0.315664 0.398527
vt 0.070658 0.402247
vt 0.065568 0.342899
vt 0.696784 0.392740
vt 0.424555 0.396873
vt 0.179549 0.400594
vt 0.288441 0.398940
vt 0.508744 0.445445
vt 0.671394 0.442617
vt 0.644286 0.443088
vt 0.156334 0.451572
vt 0.129225 0.452043
vt 0.481635 0.445916
vt 0.617177 0.443559
vt 0.102117 0.452515
vt 0.454527 0.446387
vt 0.590069 0.444031
vt 0.075008 0.452986
vt 0.427418 0.446859
vt 0.941790 0.389020
vt 0.915370 0.438375
vt 0.400310 0.447330
vt 0.888262 0.438846
vt 0.373201 0.447801
vt 0.861153 0.439317
vt 0.346093 0.448273
vt 0.834045 0.439789
vt 0.318985 0.448744
vt 0.806937 0.440260
vt 0.291876 0.449215
vt 0.779828 0.440731
vt 0.264768 0.449687
vt 0.752720 0.441203
vt 0.237659 0.450158
vt 0.725611 0.441674
vt 0.210551 0.450629
vt 0.562961 0.444502
vt 0.698503 0.442145
vt 0.183442 0.451101
vt 0.535852 0.444973
vt 0.510069 0.471647
vt 0.483021 0.472149
vt 0.618262 0.469640
vt 0.104346 0.479175
vt 0.455973 0.472651
vt 0.591214 0.470142
vt 0.077297 0.479677
vt 0.428925 0.473153
vt 0.942479 0.437903
vt 0.915793 0.464120
vt 0.401876 0.473655
vt 0.888744 0.464622
vt 0.374828 0.474157
vt 0.861696 0.465124
vt 0.347780 0.474658
vt 0.834648 0.465625
vt 0.320732 0.475160
vt 0.807600 0.466127
vt 0.293683 0.475662
vt 0.780552 0.466629
vt 0.266635 0.476164
vt 0.753503 0.467131
vt 0.239587 0.476666
vt 0.726455 0.467633
vt 0.212539 0.477168
vt 0.564166 0.470644
vt 0.699407 0.468135
vt 0.185490 0.477669
vt 0.537118 0.471146
vt 0.672359 0.468636
vt 0.158442 0.478171
vt 0.645310 0.469138
vt 0.131394 0.478673
vt 0.408420 0.583637
vt 0.890760 0.572309
vt 0.381623 0.584266
vt 0.863964 0.572938
vt 0.354827 0.584895
vt 0.837167 0.573568
vt 0.328030 0.585524
vt 0.810370 0.574197
vt 0.301233 0.586154
vt 0.783574 0.574826
vt 0.274436 0.586783
vt 0.756777 0.575456
vt 0.247640 0.587412
vt 0.729980 0.576085
vt 0.220843 0.588042
vt 0.569200 0.579861
vt 0.703184 0.576714
vt 0.194046 0.588671
vt 0.542403 0.580490
vt 0.676387 0.577343
vt 0.167249 0.589300
vt 0.515607 0.581119
vt 0.649590 0.577973
vt 0.140453 0.589930
vt 0.488810 0.581749
vt 0.622794 0.578602
vt 0.113656 0.590559
vt 0.462013 0.582378
vt 0.595997 0.579231
vt 0.086859 0.591188
vt 0.435217 0.583007
vt 0.942841 0.463618
vt 0.917557 0.571680
vt 0.194268 0.591547
vt 0.542540 0.583323
vt 0.676491 0.580159
vt 0.167477 0.592179
vt 0.515750 0.583955
vt 0.649701 0.580792
vt 0.140687 0.592812
vt 0.488960 0.584588
vt 0.622911 0.581425
vt 0.113897 0.593445
vt 0.462170 0.585220
vt 0.596121 0.582057
vt 0.087107 0.594077
vt 0.435380 0.585853
vt 0.944354 0.571050
vt 0.917603 0.574466
vt 0.408589 0.586486
vt 0.890813 0.575098
vt 0.381799 0.587118
vt 0.864022 0.575731
vt 0.355009 0.587751
vt 0.837232 0.576364
vt 0.328219 0.588384
vt 0.810442 0.576996
vt 0.301428 0.589016
vt 0.783652 0.577629
vt 0.274638 0.589649
vt 0.756862 0.578261
vt 0.247848 0.590281
vt 0.730072 0.578894
vt 0.221058 0.590914
vt 0.569331 0.582690
vt 0.703281 0.579527
vt 0.114048 0.595244
vt 0.462267 0.586993
vt 0.596198 0.583819
vt 0.087262 0.595878
vt 0.435481 0.587627
vt 0.944393 0.573833
vt 0.917631 0.576203
vt 0.408695 0.588262
vt 0.890845 0.576838
vt 0.381909 0.588897
vt 0.864059 0.577472
vt 0.355123 0.589531
vt 0.837273 0.578107
vt 0.328337 0.590166
vt 0.810487 0.578742
vt 0.301551 0.590801
vt 0.783701 0.579376
vt 0.274765 0.591435
vt 0.756915 0.580011
vt 0.247978 0.592070
vt 0.730129 0.580646
vt 0.221192 0.592705
vt 0.569412 0.584454
vt 0.703342 0.581280
vt 0.194406 0.593340
vt 0.542626 0.585089
vt 0.676556 0.581915
vt 0.167620 0.593974
vt 0.515840 0.585723
vt 0.649770 0.582550
vt 0.140834 0.594609
vt 0.489054 0.586358
vt 0.622984 0.583184
vt 0.890953 0.582592
vt 0.382272 0.594780
vt 0.864180 0.583233
vt 0.355500 0.595422
vt 0.837408 0.583875
vt 0.328727 0.596063
vt 0.810635 0.584516
vt 0.301954 0.596705
vt 0.783862 0.585158
vt 0.275181 0.597346
vt 0.757090 0.585799
vt 0.248409 0.597988
vt 0.730317 0.586441
vt 0.221636 0.598629
vt 0.569681 0.590290
vt 0.703544 0.587082
vt 0.194863 0.599271
vt 0.542908 0.590931
vt 0.676772 0.587724
vt 0.168091 0.599913
vt 0.516136 0.591573
vt 0.649999 0.588365
vt 0.141318 0.600554
vt 0.489363 0.592214
vt 0.623226 0.589007
vt 0.114545 0.601195
vt 0.462590 0.592856
vt 0.596454 0.589648
vt 0.087773 0.601837
vt 0.435818 0.593497
vt 0.944498 0.581309
vt 0.917726 0.581950
vt 0.409045 0.594139
vt 0.757126 0.729278
vt 0.777648 0.733360
vt 0.736201 0.729278
vt 0.796981 0.741368
vt 0.715678 0.733360
vt 0.814379 0.752993
vt 0.696346 0.741368
vt 0.678947 0.752993
vt 0.829175 0.767789
vt 0.664151 0.767789
vt 0.840801 0.785187
vt 0.848808 0.804519
vt 0.652526 0.785187
vt 0.852890 0.825042
vt 0.640436 0.825042
vt 0.644518 0.804520
vt 0.848808 0.866490
vt 0.852890 0.845967
vt 0.640436 0.845967
vt 0.840801 0.885822
vt 0.644518 0.866490
vt 0.829175 0.903221
vt 0.652526 0.885822
vt 0.814379 0.918017
vt 0.664151 0.903221
vt 0.678947 0.918017
vt 0.796981 0.929642
vt 0.777649 0.937650
vt 0.696346 0.929642
vt 0.757126 0.941732
vt 0.715678 0.937650
vt 0.736201 0.941732
vt 0.605757 0.168958
vt 0.572656 0.046881
vt 0.600680 0.046873
vt 0.633500 0.168807
vt 0.628704 0.046866
vt 0.661242 0.168657
vt 0.656729 0.046858
vt 0.688985 0.168507
vt 0.684753 0.046851
vt 0.716727 0.168356
vt 0.712777 0.046843
vt 0.744469 0.168206
vt 0.740801 0.046836
vt 0.772211 0.168056
vt 0.768825 0.046828
vt 0.799954 0.167906
vt 0.796849 0.046821
vt 0.827696 0.167755
vt 0.824874 0.046813
vt 0.855439 0.167605
vt 0.852898 0.046805
vt 0.883181 0.167455
vt 0.880922 0.046798
vt 0.910923 0.167304
vt 0.908946 0.046790
vt 0.938666 0.167154
vt 0.936970 0.046783
vt 0.078653 0.171813
vt 0.040197 0.047025
vt 0.068221 0.047017
vt 0.106395 0.171663
vt 0.096245 0.047009
vt 0.134137 0.171512
vt 0.124269 0.047002
vt 0.161880 0.171362
vt 0.152294 0.046994
vt 0.189622 0.171212
vt 0.180318 0.046987
vt 0.217364 0.171062
vt 0.208342 0.046979
vt 0.245107 0.170911
vt 0.236366 0.046972
vt 0.272849 0.170761
vt 0.264390 0.046964
vt 0.300592 0.170611
vt 0.292414 0.046957
vt 0.328334 0.170460
vt 0.320439 0.046949
vt 0.356076 0.170310
vt 0.348463 0.046941
vt 0.383819 0.170160
vt 0.376487 0.046934
vt 0.411561 0.170010
vt 0.404511 0.046926
vt 0.439303 0.169859
vt 0.432535 0.046919
vt 0.467046 0.169709
vt 0.460559 0.046911
vt 0.494788 0.169559
vt 0.488584 0.046904
vt 0.522530 0.169408
vt 0.516608 0.046896
vt 0.550273 0.169258
vt 0.544632 0.046889
vt 0.578015 0.169108
vt 0.050910 0.171963
vt 0.944417 0.575568
s 1
usemtl Material.003
f 2/1/1 322/2/2 321/3/3
f 4/4/4 323/5/5 322/2/2
f 6/6/6 324/7/7 323/5/5
f 8/8/8 325/9/9 324/7/7
f 10/10/10 326/11/11 325/9/9
f 12/12/12 327/13/13 326/11/11
f 14/14/14 328/15/15 327/13/13
f 16/16/16 329/17/17 328/15/15
f 18/18/18 330/19/19 329/17/17
f 20/20/20 331/21/21 330/19/19
f 22/22/22 332/23/23 331/21/21
f 24/24/24 333/25/25 332/23/23
f 26/26/26 334/27/27 333/25/25
f 28/28/28 335/29/29 334/27/27
f 30/30/30 336/31/31 335/29/29
f 32/32/32 337/33/33 336/31/31
f 34/34/34 338/35/35 337/33/33
f 36/36/36 339/37/37 338/35/35
f 38/38/38 340/39/39 339/37/37
f 40/40/40 341/41/41 340/42/39
f 42/43/42 342/44/43 341/41/41
f 44/45/44 343/46/45 342/44/43
f 46/47/46 344/48/47 343/46/45
f 48/49/48 345/50/49 344/48/47
f 50/51/50 346/52/51 345/50/49
f 52/53/52 347/54/53 346/52/51
f 54/55/54 348/56/55 347/54/53
f 56/57/56 349/58/57 348/56/55
f 58/59/58 350/60/59 349/58/57
f 60/61/60 351/62/61 350/60/59
f 35/63/62 41/64/63 33/65/64
f 62/66/65 352/67/66 351/62/61
f 64/68/67 321/3/3 352/67/66
f 37/69/68 39/70/69 35/63/62
f 33/65/64 43/71/70 31/72/71
f 29/73/72 43/71/70 45/74/73
f 29/73/72 47/75/74 27/76/75
f 27/76/75 49/77/76 25/78/77
f 25/78/77 51/79/78 23/80/79
f 21/81/80 51/79/78 53/82/81
f 21/81/80 55/83/82 19/84/83
f 19/84/83 57/85/84 17/86/85
f 17/86/85 59/87/86 15/88/87
f 15/88/87 61/89/88 13/90/89
f 13/90/89 63/91/90 11/92/91
f 9/93/92 63/91/90 1/94/93
f 3/95/94 9/93/92 1/94/93
f 5/96/95 7/97/96 3/95/94
f 58/59/58 94/98/97 60/61/60
f 14/14/14 72/99/98 16/16/16
f 32/32/32 81/100/99 34/34/34
f 52/53/52 89/101/100 90/102/101
f 8/8/8 67/103/102 68/104/103
f 24/24/24 77/105/104 26/26/26
f 44/45/44 85/106/105 86/107/106
f 60/61/60 95/108/107 62/66/65
f 16/16/16 73/109/108 18/18/18
f 36/36/36 81/100/99 82/110/109
f 52/53/52 91/111/110 54/55/54
f 10/10/10 68/104/103 69/112/111
f 26/26/26 78/113/112 28/28/28
f 44/45/44 87/114/113 46/47/46
f 62/66/65 96/115/114 64/68/67
f 20/20/20 73/109/108 74/116/115
f 36/36/36 83/117/116 38/38/38
f 54/55/54 92/118/117 56/57/56
f 12/12/12 69/112/111 70/119/118
f 28/28/28 79/120/119 30/30/30
f 46/47/46 88/121/120 48/49/48
f 4/4/4 65/122/121 66/123/122
f 64/68/67 65/122/121 2/1/1
f 20/20/20 75/124/123 22/22/22
f 38/38/38 84/125/124 40/126/40
f 56/57/56 93/127/125 58/59/58
f 12/12/12 71/128/126 14/14/14
f 30/30/30 80/129/127 32/32/32
f 48/49/48 89/101/100 50/51/50
f 4/4/4 67/103/102 6/6/6
f 22/22/22 76/130/128 24/24/24
f 40/40/40 85/106/105 42/43/42
f 67/103/102 100/131/129 68/104/103
f 95/108/107 126/132/130 127/133/131
f 82/110/109 113/134/132 114/135/133
f 69/112/111 100/131/129 101/136/134
f 95/108/107 128/137/135 96/115/114
f 82/110/109 115/138/136 83/117/116
f 69/112/111 102/139/137 70/119/118
f 96/115/114 97/140/138 65/122/121
f 83/117/116 116/141/139 84/125/124
f 71/128/126 102/139/137 103/142/140
f 84/143/124 117/144/141 85/106/105
f 71/128/126 104/145/142 72/99/98
f 85/106/105 118/146/143 86/107/106
f 72/99/98 105/147/144 73/109/108
f 87/114/113 118/146/143 119/148/145
f 74/116/115 105/147/144 106/149/146
f 88/121/120 119/148/145 120/150/147
f 74/116/115 107/151/148 75/124/123
f 89/101/100 120/150/147 121/152/149
f 75/124/123 108/153/150 76/130/128
f 90/102/101 121/152/149 122/154/151
f 76/130/128 109/155/152 77/105/104
f 90/102/101 123/156/153 91/111/110
f 77/105/104 110/157/154 78/113/112
f 91/111/110 124/158/155 92/118/117
f 79/120/119 110/157/154 111/159/156
f 65/122/121 98/160/157 66/123/122
f 92/118/117 125/161/158 93/127/125
f 79/120/119 112/162/159 80/129/127
f 67/103/102 98/160/157 99/163/160
f 93/127/125 126/132/130 94/98/97
f 80/129/127 113/134/132 81/100/99
f 101/136/134 132/164/161 133/165/162
f 127/133/131 160/166/163 128/137/135
f 114/135/133 147/167/164 115/138/136
f 101/136/134 134/168/165 102/139/137
f 128/137/135 129/169/166 97/140/138
f 115/138/136 148/170/167 116/141/139
f 103/142/140 134/168/165 135/171/168
f 116/172/139 149/173/169 117/144/141
f 104/145/142 135/171/168 136/174/170
f 117/144/141 150/175/171 118/146/143
f 104/145/142 137/176/172 105/147/144
f 119/148/145 150/175/171 151/177/173
f 105/147/144 138/178/174 106/149/146
f 120/150/147 151/177/173 152/179/175
f 106/149/146 139/180/176 107/151/148
f 120/150/147 153/181/177 121/152/149
f 107/151/148 140/182/178 108/153/150
f 121/152/149 154/183/179 122/154/151
f 109/155/152 140/182/178 141/184/180
f 122/154/151 155/185/181 123/156/153
f 109/155/152 142/186/182 110/157/154
f 123/156/153 156/187/183 124/158/155
f 111/159/156 142/186/182 143/188/184
f 98/160/157 129/169/166 130/189/185
f 125/161/158 156/187/183 157/190/186
f 111/159/156 144/191/187 112/162/159
f 99/163/160 130/189/185 131/192/188
f 125/161/158 158/193/189 126/132/130
f 112/162/159 145/194/190 113/134/132
f 99/163/160 132/164/161 100/131/129
f 126/132/130 159/195/191 127/133/131
f 113/134/132 146/196/192 114/135/133
f 135/171/168 168/197/193 136/174/170
f 149/173/169 182/198/194 150/175/171
f 136/174/170 169/199/195 137/176/172
f 150/175/171 183/200/196 151/177/173
f 138/178/174 169/199/195 170/201/197
f 151/177/173 184/202/198 152/179/175
f 138/178/174 171/203/199 139/180/176
f 153/181/177 184/202/198 185/204/200
f 140/182/178 171/203/199 172/205/201
f 153/181/177 186/206/202 154/183/179
f 140/182/178 173/207/203 141/184/180
f 154/183/179 187/208/204 155/185/181
f 141/184/180 174/209/205 142/186/182
f 155/185/181 188/210/206 156/187/183
f 143/188/184 174/209/205 175/211/207
f 129/169/166 162/212/208 130/189/185
f 156/187/183 189/213/209 157/190/186
f 143/188/184 176/214/210 144/191/187
f 130/189/185 163/215/211 131/192/188
f 157/190/186 190/216/212 158/193/189
f 144/191/187 177/217/213 145/194/190
f 131/192/188 164/218/214 132/164/161
f 158/193/189 191/219/215 159/195/191
f 146/196/192 177/217/213 178/220/216
f 132/164/161 165/221/217 133/165/162
f 159/195/191 192/222/218 160/166/163
f 146/196/192 179/223/219 147/167/164
f 133/165/162 166/224/220 134/168/165
f 129/169/166 192/222/218 161/225/221
f 147/167/164 180/226/222 148/170/167
f 135/171/168 166/224/220 167/227/223
f 148/228/167 181/229/224 149/173/169
f 175/211/207 208/230/225 176/214/210
f 162/212/208 195/231/226 163/215/211
f 189/213/209 222/232/227 190/216/212
f 177/217/213 208/230/225 209/233/228
f 164/218/214 195/231/226 196/234/229
f 190/216/212 223/235/230 191/219/215
f 177/217/213 210/236/231 178/220/216
f 164/218/214 197/237/232 165/221/217
f 192/222/218 223/235/230 224/238/233
f 178/220/216 211/239/234 179/223/219
f 166/224/220 197/237/232 198/240/235
f 192/222/218 193/241/236 161/225/221
f 180/226/222 211/239/234 212/242/237
f 166/224/220 199/243/238 167/227/223
f 180/244/222 213/245/239 181/229/224
f 168/197/193 199/243/238 200/246/240
f 181/229/224 214/247/241 182/198/194
f 169/199/195 200/246/240 201/248/242
f 182/198/194 215/249/243 183/200/196
f 169/199/195 202/250/244 170/201/197
f 184/202/198 215/249/243 216/251/245
f 170/201/197 203/252/246 171/203/199
f 184/202/198 217/253/247 185/204/200
f 172/205/201 203/252/246 204/254/248
f 185/204/200 218/255/249 186/206/202
f 172/205/201 205/256/250 173/207/203
f 186/206/202 219/257/251 187/208/204
f 174/209/205 205/256/250 206/258/252
f 188/210/206 219/257/251 220/259/253
f 174/209/205 207/260/254 175/211/207
f 161/225/221 194/261/255 162/212/208
f 188/210/206 221/262/256 189/213/209
f 210/236/231 243/263/257 211/239/234
f 197/237/232 230/264/258 198/240/235
f 224/238/233 225/265/259 193/241/236
f 211/239/234 244/266/260 212/242/237
f 198/240/235 231/267/261 199/243/238
f 212/268/237 245/269/262 213/245/239
f 199/243/238 232/270/263 200/246/240
f 213/245/239 246/271/264 214/247/241
f 200/246/240 233/272/265 201/248/242
f 214/247/241 247/273/266 215/249/243
f 201/248/242 234/274/267 202/250/244
f 215/249/243 248/275/268 216/251/245
f 202/250/244 235/276/269 203/252/246
f 216/251/245 249/277/270 217/253/247
f 203/252/246 236/278/271 204/254/248
f 217/253/247 250/279/272 218/255/249
f 204/254/248 237/280/273 205/256/250
f 218/255/249 251/281/274 219/257/251
f 205/256/250 238/282/275 206/258/252
f 219/257/251 252/283/276 220/259/253
f 206/258/252 239/284/277 207/260/254
f 193/241/236 226/285/278 194/261/255
f 220/259/253 253/286/279 221/262/256
f 207/260/254 240/287/280 208/230/225
f 194/261/255 227/288/281 195/231/226
f 221/262/256 254/289/282 222/232/227
f 208/230/225 241/290/283 209/233/228
f 195/231/226 228/291/284 196/234/229
f 222/232/227 255/292/285 223/235/230
f 209/233/228 242/293/286 210/236/231
f 196/234/229 229/294/287 197/237/232
f 223/235/230 256/295/288 224/238/233
f 245/269/262 269/296/289 246/271/264
f 232/270/263 260/297/290 233/272/265
f 246/271/264 270/298/291 247/273/266
f 234/274/267 260/297/290 279/299/292
f 247/273/266 283/300/293 248/275/268
f 234/274/267 261/301/294 235/276/269
f 248/275/268 284/302/295 249/277/270
f 235/276/269 262/303/296 236/278/271
f 249/277/270 285/304/297 250/279/272
f 236/278/271 263/305/298 237/280/273
f 250/279/272 271/306/299 251/281/274
f 237/280/273 280/307/300 238/282/275
f 252/283/276 271/306/299 286/308/301
f 239/284/277 280/307/300 264/309/302
f 225/265/259 258/310/303 226/285/278
f 253/286/279 286/308/301 272/311/304
f 239/284/277 265/312/305 240/287/280
f 227/288/281 258/310/303 274/313/306
f 253/286/279 273/314/307 254/289/282
f 240/287/280 281/315/308 241/290/283
f 227/288/281 275/316/309 228/291/284
f 254/289/282 287/317/310 255/292/285
f 242/293/286 281/315/308 266/318/311
f 229/294/287 275/316/309 276/319/312
f 255/292/285 288/320/313 256/295/288
f 242/293/286 267/321/314 243/263/257
f 229/294/287 277/322/315 230/264/258
f 256/295/288 257/323/316 225/265/259
f 243/263/257 268/324/317 244/266/260
f 230/264/258 259/325/318 231/267/261
f 245/269/262 268/326/317 282/327/319
f 231/267/261 278/328/320 232/270/263
f 320/361/321 1/362/93 63/363/90
f 319/364/322 63/363/90 61/365/88
f 318/366/323 61/365/88 59/367/86
f 317/368/324 59/367/86 57/369/84
f 316/370/325 57/369/84 55/371/82
f 315/372/326 55/371/82 53/373/81
f 314/374/327 53/373/81 51/375/78
f 313/376/328 51/375/78 49/377/76
f 312/378/329 49/377/76 47/379/74
f 311/380/330 47/379/74 45/381/73
f 310/382/331 45/381/73 43/383/70
f 309/384/332 43/383/70 41/385/63
f 308/386/333 41/385/63 39/387/69
f 307/388/334 39/389/69 37/390/68
f 306/391/335 37/390/68 35/392/62
f 305/393/336 35/392/62 33/394/64
f 304/395/337 33/394/64 31/396/71
f 303/397/338 31/396/71 29/398/72
f 302/399/339 29/398/72 27/400/75
f 301/401/340 27/400/75 25/402/77
f 300/403/341 25/402/77 23/404/79
f 299/405/342 23/404/79 21/406/80
f 298/407/343 21/406/80 19/408/83
f 297/409/344 19/408/83 17/410/85
f 296/411/345 17/410/85 15/412/87
f 295/413/346 15/412/87 13/414/89
f 294/415/347 13/414/89 11/416/91
f 293/417/348 11/416/91 9/418/92
f 292/419/349 9/418/92 7/420/96
f 291/421/350 7/420/96 5/422/95
f 290/423/351 5/422/95 3/424/94
f 289/425/352 3/424/94 1/362/93
f 344/48/47 313/376/328 312/378/329
f 343/46/45 312/378/329 311/380/330
f 342/44/43 311/380/330 310/382/331
f 341/41/41 310/382/331 309/384/332
f 340/42/39 309/384/332 308/386/333
f 339/37/37 308/426/333 307/388/334
f 328/15/15 297/409/344 296/411/345
f 327/13/13 296/411/345 295/413/346
f 326/11/11 295/413/346 294/415/347
f 325/9/9 294/415/347 293/417/348
f 324/7/7 293/417/348 292/419/349
f 323/5/5 292/419/349 291/421/350
f 2/1/1 4/4/4 322/2/2
f 4/4/4 6/6/6 323/5/5
f 6/6/6 8/8/8 324/7/7
f 8/8/8 10/10/10 325/9/9
f 10/10/10 12/12/12 326/11/11
f 12/12/12 14/14/14 327/13/13
f 14/14/14 16/16/16 328/15/15
f 16/16/16 18/18/18 329/17/17
f 18/18/18 20/20/20 330/19/19
f 20/20/20 22/22/22 331/21/21
f 22/22/22 24/24/24 332/23/23
f 24/24/24 26/26/26 333/25/25
f 26/26/26 28/28/28 334/27/27
f 28/28/28 30/30/30 335/29/29
f 30/30/30 32/32/32 336/31/31
f 32/32/32 34/34/34 337/33/33
f 34/34/34 36/36/36 338/35/35
f 36/36/36 38/38/38 339/37/37
f 38/38/38 40/126/40 340/39/39
f 40/40/40 42/43/42 341/41/41
f 42/43/42 44/45/44 342/44/43
f 44/45/44 46/47/46 343/46/45
f 46/47/46 48/49/48 344/48/47
f 48/49/48 50/51/50 345/50/49
f 50/51/50 52/53/52 346/52/51
f 52/53/52 54/55/54 347/54/53
f 54/55/54 56/57/56 348/56/55
f 56/57/56 58/59/58 349/58/57
f 58/59/58 60/61/60 350/60/59
f 60/61/60 62/66/65 351/62/61
f 35/63/62 39/70/69 41/64/63
f 62/66/65 64/68/67 352/67/66
f 64/68/67 2/1/1 321/3/3
f 33/65/64 41/64/63 43/71/70
f 29/73/72 31/72/71 43/71/70
f 29/73/72 45/74/73 47/75/74
f 27/76/75 47/75/74 49/77/76
f 25/78/77 49/77/76 51/79/78
f 21/81/80 23/80/79 51/79/78
f 21/81/80 53/82/81 55/83/82
f 19/84/83 55/83/82 57/85/84
f 17/86/85 57/85/84 59/87/86
f 15/88/87 59/87/86 61/89/88
f 13/90/89 61/89/88 63/91/90
f 9/93/92 11/92/91 63/91/90
f 3/95/94 7/97/96 9/93/92
f 58/59/58 93/127/125 94/98/97
f 14/14/14 71/128/126 72/99/98
f 32/32/32 80/129/127 81/100/99
f 52/53/52 50/51/50 89/101/100
f 8/8/8 6/6/6 67/103/102
f 24/24/24 76/130/128 77/105/104
f 44/45/44 42/43/42 85/106/105
f 60/61/60 94/98/97 95/108/107
f 16/16/16 72/99/98 73/109/108
f 36/36/36 34/34/34 81/100/99
f 52/53/52 90/102/101 91/111/110
f 10/10/10 8/8/8 68/104/103
f 26/26/26 77/105/104 78/113/112
f 44/45/44 86/107/106 87/114/113
f 62/66/65 95/108/107 96/115/114
f 20/20/20 18/18/18 73/109/108
f 36/36/36 82/110/109 83/117/116
f 54/55/54 91/111/110 92/118/117
f 12/12/12 10/10/10 69/112/111
f 28/28/28 78/113/112 79/120/119
f 46/47/46 87/114/113 88/121/120
f 4/4/4 2/1/1 65/122/121
f 64/68/67 96/115/114 65/122/121
f 20/20/20 74/116/115 75/124/123
f 38/38/38 83/117/116 84/125/124
f 56/57/56 92/118/117 93/127/125
f 12/12/12 70/119/118 71/128/126
f 30/30/30 79/120/119 80/129/127
f 48/49/48 88/121/120 89/101/100
f 4/4/4 66/123/122 67/103/102
f 22/22/22 75/124/123 76/130/128
f 40/40/40 84/143/124 85/106/105
f 67/103/102 99/163/160 100/131/129
f 95/108/107 94/98/97 126/132/130
f 82/110/109 81/100/99 113/134/132
f 69/112/111 68/104/103 100/131/129
f 95/108/107 127/133/131 128/137/135
f 82/110/109 114/135/133 115/138/136
f 69/112/111 101/136/134 102/139/137
f 96/115/114 128/137/135 97/140/138
f 83/117/116 115/138/136 116/141/139
f 71/128/126 70/119/118 102/139/137
f 84/143/124 116/172/139 117/144/141
f 71/128/126 103/142/140 104/145/142
f 85/106/105 117/144/141 118/146/143
f 72/99/98 104/145/142 105/147/144
f 87/114/113 86/107/106 118/146/143
f 74/116/115 73/109/108 105/147/144
f 88/121/120 87/114/113 119/148/145
f 74/116/115 106/149/146 107/151/148
f 89/101/100 88/121/120 120/150/147
f 75/124/123 107/151/148 108/153/150
f 90/102/101 89/101/100 121/152/149
f 76/130/128 108/153/150 109/155/152
f 90/102/101 122/154/151 123/156/153
f 77/105/104 109/155/152 110/157/154
f 91/111/110 123/156/153 124/158/155
f 79/120/119 78/113/112 110/157/154
f 65/122/121 97/140/138 98/160/157
f 92/118/117 124/158/155 125/161/158
f 79/120/119 111/159/156 112/162/159
f 67/103/102 66/123/122 98/160/157
f 93/127/125 125/161/158 126/132/130
f 80/129/127 112/162/159 113/134/132
f 101/136/134 100/131/129 132/164/161
f 127/133/131 159/195/191 160/166/163
f 114/135/133 146/196/192 147/167/164
f 101/136/134 133/165/162 134/168/165
f 128/137/135 160/166/163 129/169/166
f 115/138/136 147/167/164 148/170/167
f 103/142/140 102/139/137 134/168/165
f 116/172/139 148/228/167 149/173/169
f 104/145/142 103/142/140 135/171/168
f 117/144/141 149/173/169 150/175/171
f 104/145/142 136/174/170 137/176/172
f 119/148/145 118/146/143 150/175/171
f 105/147/144 137/176/172 138/178/174
f 120/150/147 119/148/145 151/177/173
f 106/149/146 138/178/174 139/180/176
f 120/150/147 152/179/175 153/181/177
f 107/151/148 139/180/176 140/182/178
f 121/152/149 153/181/177 154/183/179
f 109/155/152 108/153/150 140/182/178
f 122/154/151 154/183/179 155/185/181
f 109/155/152 141/184/180 142/186/182
f 123/156/153 155/185/181 156/187/183
f 111/159/156 110/157/154 142/186/182
f 98/160/157 97/140/138 129/169/166
f 125/161/158 124/158/155 156/187/183
f 111/159/156 143/188/184 144/191/187
f 99/163/160 98/160/157 130/189/185
f 125/161/158 157/190/186 158/193/189
f 112/162/159 144/191/187 145/194/190
f 99/163/160 131/192/188 132/164/161
f 126/132/130 158/193/189 159/195/191
f 113/134/132 145/194/190 146/196/192
f 135/171/168 167/227/223 168/197/193
f 149/173/169 181/229/224 182/198/194
f 136/174/170 168/197/193 169/199/195
f 150/175/171 182/198/194 183/200/196
f 138/178/174 137/176/172 169/199/195
f 151/177/173 183/200/196 184/202/198
f 138/178/174 170/201/197 171/203/199
f 153/181/177 152/179/175 184/202/198
f 140/182/178 139/180/176 171/203/199
f 153/181/177 185/204/200 186/206/202
f 140/182/178 172/205/201 173/207/203
f 154/183/179 186/206/202 187/208/204
f 141/184/180 173/207/203 174/209/205
f 155/185/181 187/208/204 188/210/206
f 143/188/184 142/186/182 174/209/205
f 129/169/166 161/225/221 162/212/208
f 156/187/183 188/210/206 189/213/209
f 143/188/184 175/211/207 176/214/210
f 130/189/185 162/212/208 163/215/211
f 157/190/186 189/213/209 190/216/212
f 144/191/187 176/214/210 177/217/213
f 131/192/188 163/215/211 164/218/214
f 158/193/189 190/216/212 191/219/215
f 146/196/192 145/194/190 177/217/213
f 132/164/161 164/218/214 165/221/217
f 159/195/191 191/219/215 192/222/218
f 146/196/192 178/220/216 179/223/219
f 133/165/162 165/221/217 166/224/220
f 129/169/166 160/166/163 192/222/218
f 147/167/164 179/223/219 180/226/222
f 135/171/168 134/168/165 166/224/220
f 148/228/167 180/244/222 181/229/224
f 175/211/207 207/260/254 208/230/225
f 162/212/208 194/261/255 195/231/226
f 189/213/209 221/262/256 222/232/227
f 177/217/213 176/214/210 208/230/225
f 164/218/214 163/215/211 195/231/226
f 190/216/212 222/232/227 223/235/230
f 177/217/213 209/233/228 210/236/231
f 164/218/214 196/234/229 197/237/232
f 192/222/218 191/219/215 223/235/230
f 178/220/216 210/236/231 211/239/234
f 166/224/220 165/221/217 197/237/232
f 192/222/218 224/238/233 193/241/236
f 180/226/222 179/223/219 211/239/234
f 166/224/220 198/240/235 199/243/238
f 180/244/222 212/268/237 213/245/239
f 168/197/193 167/227/223 199/243/238
f 181/229/224 213/245/239 214/247/241
f 169/199/195 168/197/193 200/246/240
f 182/198/194 214/247/241 215/249/243
f 169/199/195 201/248/242 202/250/244
f 184/202/198 183/200/196 215/249/243
f 170/201/197 202/250/244 203/252/246
f 184/202/198 216/251/245 217/253/247
f 172/205/201 171/203/199 203/252/246
f 185/204/200 217/253/247 218/255/249
f 172/205/201 204/254/248 205/256/250
f 186/206/202 218/255/249 219/257/251
f 174/209/205 173/207/203 205/256/250
f 188/210/206 187/208/204 219/257/251
f 174/209/205 206/258/252 207/260/254
f 161/225/221 193/241/236 194/261/255
f 188/210/206 220/259/253 221/262/256
f 210/236/231 242/293/286 243/263/257
f 197/237/232 229/294/287 230/264/258
f 224/238/233 256/295/288 225/265/259
f 211/239/234 243/263/257 244/266/260
f 198/240/235 230/264/258 231/267/261
f 212/268/237 244/427/260 245/269/262
f 199/243/238 231/267/261 232/270/263
f 213/245/239 245/269/262 246/271/264
f 200/246/240 232/270/263 233/272/265
f 214/247/241 246/271/264 247/273/266
f 201/248/242 233/272/265 234/274/267
f 215/249/243 247/273/266 248/275/268
f 202/250/244 234/274/267 235/276/269
f 216/251/245 248/275/268 249/277/270
f 203/252/246 235/276/269 236/278/271
f 217/253/247 249/277/270 250/279/272
f 204/254/248 236/278/271 237/280/273
f 218/255/249 250/279/272 251/281/274
f 205/256/250 237/280/273 238/282/275
f 219/257/251 251/281/274 252/283/276
f 206/258/252 238/282/275 239/284/277
f 193/241/236 225/265/259 226/285/278
f 220/259/253 252/283/276 253/286/279
f 207/260/254 239/284/277 240/287/280
f 194/261/255 226/285/278 227/288/281
f 221/262/256 253/286/279 254/289/282
f 208/230/225 240/287/280 241/290/283
f 195/231/226 227/288/281 228/291/284
f 222/232/227 254/289/282 255/292/285
f 209/233/228 241/290/283 242/293/286
f 196/234/229 228/291/284 229/294/287
f 223/235/230 255/292/285 256/295/288
f 245/269/262 282/327/319 269/296/289
f 232/270/263 278/328/320 260/297/290
f 246/271/264 269/296/289 270/298/291
f 234/274/267 233/272/265 260/297/290
f 247/273/266 270/298/291 283/300/293
f 234/274/267 279/299/292 261/301/294
f 248/275/268 283/300/293 284/302/295
f 235/276/269 261/301/294 262/303/296
f 249/277/270 284/302/295 285/304/297
f 236/278/271 262/303/296 263/305/298
f 250/279/272 285/304/297 271/306/299
f 237/280/273 263/305/298 280/307/300
f 252/283/276 251/281/274 271/306/299
f 239/284/277 238/282/275 280/307/300
f 225/265/259 257/323/316 258/310/303
f 253/286/279 252/283/276 286/308/301
f 239/284/277 264/309/302 265/312/305
f 227/288/281 226/285/278 258/310/303
f 253/286/279 272/311/304 273/314/307
f 240/287/280 265/312/305 281/315/308
f 227/288/281 274/313/306 275/316/309
f 254/289/282 273/314/307 287/317/310
f 242/293/286 241/290/283 281/315/308
f 229/294/287 228/291/284 275/316/309
f 255/292/285 287/317/310 288/320/313
f 242/293/286 266/318/311 267/321/314
f 229/294/287 276/319/312 277/322/315
f 256/295/288 288/320/313 257/323/316
f 243/263/257 267/321/314 268/324/317
f 230/264/258 277/322/315 259/325/318
f 245/269/262 244/427/260 268/326/317
f 231/267/261 259/325/318 278/328/320
f 320/361/321 289/425/352 1/362/93
f 319/364/322 320/361/321 63/363/90
f 318/366/323 319/364/322 61/365/88
f 317/368/324 318/366/323 59/367/86
f 316/370/325 317/368/324 57/369/84
f 315/372/326 316/370/325 55/371/82
f 314/374/327 315/372/326 53/373/81
f 313/376/328 314/374/327 51/375/78
f 312/378/329 313/376/328 49/377/76
f 311/380/330 312/378/329 47/379/74
f 310/382/331 311/380/330 45/381/73
f 309/384/332 310/382/331 43/383/70
f 308/386/333 309/384/332 41/385/63
f 307/388/334 308/426/333 39/389/69
f 306/391/335 307/388/334 37/390/68
f 305/393/336 306/391/335 35/392/62
f 304/395/337 305/393/336 33/394/64
f 303/397/338 304/395/337 31/396/71
f 302/399/339 303/397/338 29/398/72
f 301/401/340 302/399/339 27/400/75
f 300/403/341 301/401/340 25/402/77
f 299/405/342 300/403/341 23/404/79
f 298/407/343 299/405/342 21/406/80
f 297/409/344 298/407/343 19/408/83
f 296/411/345 297/409/344 17/410/85
f 295/413/346 296/411/345 15/412/87
f 294/415/347 295/413/346 13/414/89
f 293/417/348 294/415/347 11/416/91
f 292/419/349 293/417/348 9/418/92
f 291/421/350 292/419/349 7/420/96
f 290/423/351 291/421/350 5/422/95
f 289/425/352 290/423/351 3/424/94
f 344/48/47 345/50/49 313/376/328
f 343/46/45 344/48/47 312/378/329
f 342/44/43 343/46/45 311/380/330
f 341/41/41 342/44/43 310/382/331
f 340/42/39 341/41/41 309/384/332
f 339/37/37 340/39/39 308/426/333
f 328/15/15 329/17/17 297/409/344
f 327/13/13 328/15/15 296/411/345
f 326/11/11 327/13/13 295/413/346
f 325/9/9 326/11/11 294/415/347
f 324/7/7 325/9/9 293/417/348
f 323/5/5 324/7/7 292/419/349
usemtl Material.004
f 352/67/66 289/425/352 320/361/321
f 351/62/61 320/361/321 319/364/322
f 350/60/59 319/364/322 318/366/323
f 349/58/57 318/366/323 317/368/324
f 348/56/55 317/368/324 316/370/325
f 347/54/53 316/370/325 315/372/326
f 346/52/51 315/372/326 314/374/327
f 345/50/49 314/374/327 313/376/328
f 338/35/35 307/388/334 306/391/335
f 337/33/33 306/391/335 305/393/336
f 336/31/31 305/393/336 304/395/337
f 335/29/29 304/395/337 303/397/338
f 334/27/27 303/397/338 302/399/339
f 333/25/25 302/399/339 301/401/340
f 332/23/23 301/401/340 300/403/341
f 331/21/21 300/403/341 299/405/342
f 330/19/19 299/405/342 298/407/343
f 329/17/17 298/407/343 297/409/344
f 322/2/2 291/421/350 290/423/351
f 321/3/3 290/423/351 289/425/352
f 352/67/66 321/3/3 289/425/352
f 351/62/61 352/67/66 320/361/321
f 350/60/59 351/62/61 319/364/322
f 349/58/57 350/60/59 318/366/323
f 348/56/55 349/58/57 317/368/324
f 347/54/53 348/56/55 316/370/325
f 346/52/51 347/54/53 315/372/326
f 345/50/49 346/52/51 314/374/327
f 338/35/35 339/37/37 307/388/334
f 337/33/33 338/35/35 306/391/335
f 336/31/31 337/33/33 305/393/336
f 335/29/29 336/31/31 304/395/337
f 334/27/27 335/29/29 303/397/338
f 333/25/25 334/27/27 302/399/339
f 332/23/23 333/25/25 301/401/340
f 331/21/21 332/23/23 300/403/341
f 330/19/19 331/21/21 299/405/342
f 329/17/17 330/19/19 298/407/343
f 322/2/2 323/5/5 291/421/350
f 321/3/3 322/2/2 290/423/351
usemtl Material.005
f 279/329/292 260/330/290 261/331/294
f 261/331/294 278/332/320 262/333/296
f 262/333/296 259/334/318 263/335/298
f 280/336/300 259/334/318 277/337/315
f 264/338/302 277/337/315 276/339/312
f 264/338/302 275/340/309 265/341/305
f 274/342/306 265/341/305 275/340/309
f 274/342/306 266/343/311 281/344/308
f 257/345/316 266/343/311 258/346/303
f 267/347/314 288/348/313 268/349/317
f 268/349/317 287/350/310 282/351/319
f 282/351/319 273/352/307 269/353/289
f 270/354/291 273/352/307 272/355/304
f 270/354/291 286/356/301 283/357/293
f 283/357/293 271/358/299 284/359/295
f 285/360/297 284/359/295 271/358/299
f 261/331/294 260/330/290 278/332/320
f 262/333/296 278/332/320 259/334/318
f 280/336/300 263/335/298 259/334/318
f 264/338/302 280/336/300 277/337/315
f 264/338/302 276/339/312 275/340/309
f 274/342/306 281/344/308 265/341/305
f 274/342/306 258/346/303 266/343/311
f 257/345/316 267/347/314 266/343/311
f 267/347/314 257/345/316 288/348/313
f 268/349/317 288/348/313 287/350/310
f 282/351/319 287/350/310 273/352/307
f 270/354/291 269/353/289 273/352/307
f 270/354/291 272/355/304 286/356/301
f 283/357/293 286/356/301 271/358/299
