# Blender 3.6.2
# www.blender.org
mtllib catbot.mtl
o Cube
v 0.500000 0.500000 -0.500000
v 0.500000 -0.500000 -0.500000
v 0.500000 0.500000 0.500000
v 0.500000 -0.500000 0.500000
v -0.500000 0.500000 -0.500000
v -0.500000 -0.500000 -0.500000
v -0.500000 0.500000 0.500000
v -0.500000 -0.500000 0.500000
v -0.572933 -0.572933 -0.296650
v -0.609568 -0.609568 -0.000000
v -0.572933 -0.572933 0.296650
v 0.296650 -0.572933 -0.572933
v 0.000000 -0.609568 -0.609568
v -0.296650 -0.572933 -0.572933
v 0.572933 0.296650 -0.572933
v 0.609568 0.000000 -0.609568
v 0.572933 -0.296650 -0.572933
v -0.572933 -0.296650 0.572933
v -0.609568 -0.000000 0.609568
v -0.572933 0.296650 0.572933
v 0.572933 0.296650 0.572933
v 0.609568 0.000000 0.609568
v 0.572933 -0.296650 0.572933
v -0.572933 0.296650 -0.572933
v -0.609568 -0.000000 -0.609568
v -0.572933 -0.296650 -0.572933
v 0.296650 0.572933 0.572933
v -0.000000 0.609568 0.609568
v -0.296650 0.572933 0.572933
v 0.572933 0.572933 -0.296650
v 0.609568 0.609568 0.000000
v 0.572933 0.572933 0.296650
v -0.296650 -0.572933 0.572933
v -0.000000 -0.609568 0.609568
v 0.296650 -0.572933 0.572933
v -0.572933 0.572933 0.296650
v -0.609568 0.609568 -0.000000
v -0.572933 0.572933 -0.296650
v -0.296650 0.572933 -0.572933
v 0.000000 0.609568 -0.609568
v 0.296650 0.572933 -0.572933
v 0.572933 -0.572933 0.296650
v 0.609568 -0.609568 0.000000
v 0.572933 -0.572933 -0.296650
v 0.316157 0.728990 -0.316157
v 0.000000 0.781829 -0.333140
v -0.316157 0.728990 -0.316157
v 0.333140 0.781829 0.000000
v -0.000000 0.839506 -0.000000
v -0.333140 0.781829 -0.000000
v 0.316157 0.728990 0.316157
v -0.000000 0.781829 0.333140
v -0.316157 0.728990 0.316157
v 0.316157 -0.316157 0.728990
v 0.333140 -0.000000 0.781829
v 0.316157 0.316157 0.728990
v -0.000000 -0.333140 0.781829
v 0.000000 0.000000 0.839506
v 0.000000 0.333140 0.781829
v -0.316157 -0.316157 0.728990
v -0.333140 0.000000 0.781829
v -0.316157 0.316157 0.728990
v -0.728990 -0.316157 0.316157
v -0.781829 -0.000000 0.333140
v -0.728990 0.316157 0.316157
v -0.781829 -0.333140 -0.000000
v -0.839506 0.000000 -0.000000
v -0.781829 0.333140 0.000000
v -0.728990 -0.316157 -0.316157
v -0.781829 0.000000 -0.333140
v -0.728990 0.316157 -0.316157
v -0.316157 -0.728990 -0.316157
v -0.000000 -0.781829 -0.333140
v 0.316157 -0.728990 -0.316157
v -0.333140 -0.781829 0.000000
v 0.000000 -0.839506 0.000000
v 0.333140 -0.781829 -0.000000
v -0.316157 -0.728990 0.316157
v 0.000000 -0.781829 0.333140
v 0.316157 -0.728990 0.316157
v 0.728990 -0.316157 -0.316157
v 0.781829 -0.000000 -0.333140
v 0.728990 0.316157 -0.316157
v 0.781829 -0.333140 0.000000
v 0.839506 0.000000 -0.000000
v 0.781829 0.333140 -0.000000
v 0.728990 -0.316157 0.316157
v 0.781829 0.000000 0.333140
v 0.728990 0.316157 0.316157
v -0.316157 -0.316157 -0.728990
v -0.333140 -0.000000 -0.781829
v -0.316157 0.316157 -0.728990
v 0.000000 -0.333140 -0.781829
v 0.000000 0.000000 -0.839506
v -0.000000 0.333140 -0.781829
v 0.316157 -0.316157 -0.728990
v 0.333140 0.000000 -0.781829
v 0.316157 0.316157 -0.728990
v 0.409366 1.638066 -0.373666
v 0.415415 1.644116 -0.324681
v -0.415415 1.644116 -0.324681
v -0.409366 1.638066 -0.373666
v 0.366965 1.663836 -0.376888
v 0.369769 1.672561 -0.324681
v -0.366965 1.663836 -0.376888
v -0.369769 1.672561 -0.324681
v -0.514544 0.398974 0.632769
v -0.484036 0.484036 0.602261
v 0.484036 0.484036 0.602261
v 0.514544 0.398974 0.632769
v 0.398974 0.514544 0.632770
v -0.398974 0.514544 0.632769
v 0.407134 0.407134 0.698049
v -0.407134 0.407134 0.698049
v 0.103377 -0.182699 0.594148
v 0.108931 -0.079322 0.611425
v -0.000000 -0.188252 0.611425
v 0.000000 -0.079322 0.630284
v -0.103377 -0.182699 0.594148
v -0.108931 -0.079322 0.611425
vn 0.1697 0.9708 -0.1697
vn -0.1697 0.9708 -0.1697
vn 0.1697 0.9708 0.1697
vn -0.1697 0.9708 0.1697
vn 0.4674 0.7504 -0.4674
vn 0.1678 0.8367 -0.5213
vn -0.1678 0.8367 -0.5213
vn -0.4674 0.7504 -0.4674
vn 0.9804 0.1405 -0.1384
vn -0.5213 0.8367 0.1678
vn -0.4674 0.7504 0.4674
vn -0.1678 0.8367 0.5213
vn 0.1678 0.8367 0.5213
vn 0.4674 0.7504 0.4674
vn 0.5213 0.8367 0.1678
vn -0.2043 0.3278 0.9224
vn -0.5782 -0.1042 0.8092
vn 0.1697 0.1697 0.9708
vn 0.0672 0.7601 0.6463
vn -0.1697 0.1697 0.9708
vn 0.4674 -0.4674 0.7504
vn 0.5213 -0.1678 0.8367
vn 0.5213 0.1678 0.8367
vn -0.8968 0.3939 0.2015
vn 0.1678 0.5213 0.8367
vn -0.1678 0.5213 0.8367
vn -0.2096 0.4961 0.8426
vn -0.5213 0.1678 0.8367
vn -0.5213 -0.1678 0.8367
vn -0.4674 -0.4674 0.7504
vn -0.1678 -0.5213 0.8367
vn 0.1678 -0.5213 0.8367
vn -0.9708 -0.1697 0.1697
vn -0.9708 0.1697 0.1697
vn -0.9708 -0.1697 -0.1697
vn -0.9708 0.1697 -0.1697
vn -0.7504 -0.4674 0.4674
vn -0.8367 -0.1678 0.5213
vn -0.8367 0.1678 0.5213
vn -0.7504 0.4674 0.4674
vn -0.8367 0.5213 0.1678
vn -0.8367 0.5213 -0.1678
vn -0.7504 0.4674 -0.4674
vn -0.8367 0.1678 -0.5213
vn -0.8367 -0.1678 -0.5213
vn -0.7504 -0.4674 -0.4674
vn -0.8367 -0.5213 -0.1678
vn -0.8367 -0.5213 0.1678
vn -0.1697 -0.9708 -0.1697
vn 0.1697 -0.9708 -0.1697
vn -0.1697 -0.9708 0.1697
vn 0.1697 -0.9708 0.1697
vn -0.4674 -0.7504 -0.4674
vn -0.1678 -0.8367 -0.5213
vn 0.1678 -0.8367 -0.5213
vn 0.4674 -0.7504 -0.4674
vn 0.5213 -0.8367 -0.1678
vn 0.5213 -0.8367 0.1678
vn 0.4674 -0.7504 0.4674
vn 0.1678 -0.8367 0.5213
vn -0.1678 -0.8367 0.5213
vn -0.4674 -0.7504 0.4674
vn -0.5213 -0.8367 0.1678
vn -0.5213 -0.8367 -0.1678
vn 0.9708 -0.1697 -0.1697
vn 0.9708 0.1697 -0.1697
vn 0.9708 -0.1697 0.1697
vn 0.9708 0.1697 0.1697
vn 0.7504 -0.4674 -0.4674
vn 0.8367 -0.1678 -0.5213
vn 0.8367 0.1678 -0.5213
vn 0.7504 0.4674 -0.4674
vn 0.8367 0.5213 -0.1678
vn 0.8367 0.5213 0.1678
vn 0.7504 0.4674 0.4674
vn 0.8367 0.1678 0.5213
vn 0.8367 -0.1678 0.5213
vn 0.7504 -0.4674 0.4674
vn 0.8367 -0.5213 0.1678
vn 0.8367 -0.5213 -0.1678
vn -0.1697 -0.1697 -0.9708
vn -0.1697 0.1697 -0.9708
vn 0.1697 -0.1697 -0.9708
vn 0.1697 0.1697 -0.9708
vn -0.4674 -0.4674 -0.7504
vn -0.5213 -0.1678 -0.8367
vn -0.5213 0.1678 -0.8367
vn -0.4674 0.4674 -0.7504
vn -0.1678 0.5213 -0.8367
vn 0.1678 0.5213 -0.8367
vn 0.4674 0.4674 -0.7504
vn 0.5213 0.1678 -0.8367
vn 0.5213 -0.1678 -0.8367
vn 0.4674 -0.4674 -0.7504
vn 0.1678 -0.5213 -0.8367
vn -0.1678 -0.5213 -0.8367
vn -0.5213 0.8367 -0.1678
vn 0.5213 0.8367 -0.1678
vn 0.0352 -0.0667 -0.9972
vn -0.9804 0.1405 -0.1384
vn -0.0352 -0.0667 -0.9972
vn 0.9974 0.0571 0.0440
vn -0.9974 0.0571 0.0440
vn 0.2043 0.3278 0.9224
vn 0.4674 0.4674 0.7504
vn -0.4674 0.4674 0.7504
vn -0.4961 -0.2096 0.8426
vn 0.3939 0.8968 0.2015
vn 0.4961 -0.2096 0.8426
vn 0.8968 0.3939 0.2015
vn -0.3939 0.8968 0.2015
vn 0.2096 0.4961 0.8426
vn 0.1697 -0.1697 0.9708
vn -0.1697 -0.1697 0.9708
vn -0.0672 0.7601 0.6463
vn 0.0613 -0.9333 0.3538
vn 0.5782 -0.1042 0.8092
vn -0.0613 -0.9333 0.3538
vt 0.687500 0.562500
vt 0.750000 0.562500
vt 0.750000 0.625000
vt 0.687500 0.625000
vt 0.812500 0.562500
vt 0.812500 0.625000
vt 0.750000 0.687500
vt 0.687500 0.687500
vt 0.812500 0.687500
vt 0.625000 0.500000
vt 0.687500 0.500000
vt 0.625000 0.562500
vt 0.750000 0.500000
vt 0.812500 0.500000
vt 0.875000 0.500000
vt 0.875000 0.562500
vt 0.625000 0.625000
vt 0.875000 0.625000
vt 0.875000 0.687500
vt 0.875000 0.750000
vt 0.812500 0.750000
vt 0.750000 0.750000
vt 0.687500 0.750000
vt 0.625000 0.687500
vt 0.625000 0.750000
vt 0.437500 0.812500
vt 0.500000 0.812500
vt 0.562500 0.812500
vt 0.562500 0.875000
vt 0.500000 0.875000
vt 0.437500 0.875000
vt 0.562500 0.937500
vt 0.500000 0.937500
vt 0.375000 0.750000
vt 0.437500 0.750000
vt 0.375000 0.812500
vt 0.500000 0.750000
vt 0.562500 0.750000
vt 0.625000 0.000000
vt 0.562500 0.000000
vt 0.625000 0.812500
vt 0.625000 0.875000
vt 0.625000 0.937500
vt 0.562500 1.000000
vt 0.500000 1.000000
vt 0.437500 0.937500
vt 0.437500 1.000000
vt 0.375000 0.937500
vt 0.375000 1.000000
vt 0.375000 0.875000
vt 0.437500 0.062500
vt 0.500000 0.062500
vt 0.500000 0.125000
vt 0.437500 0.125000
vt 0.562500 0.062500
vt 0.562500 0.125000
vt 0.500000 0.187500
vt 0.437500 0.187500
vt 0.562500 0.187500
vt 0.375000 0.000000
vt 0.437500 0.000000
vt 0.375000 0.062500
vt 0.500000 0.000000
vt 0.625000 0.062500
vt 0.625000 0.125000
vt 0.625000 0.187500
vt 0.625000 0.250000
vt 0.562500 0.250000
vt 0.500000 0.250000
vt 0.437500 0.250000
vt 0.375000 0.187500
vt 0.375000 0.250000
vt 0.375000 0.125000
vt 0.187500 0.562500
vt 0.250000 0.562500
vt 0.250000 0.625000
vt 0.187500 0.625000
vt 0.312500 0.562500
vt 0.312500 0.625000
vt 0.250000 0.687500
vt 0.187500 0.687500
vt 0.312500 0.687500
vt 0.125000 0.500000
vt 0.187500 0.500000
vt 0.125000 0.562500
vt 0.250000 0.500000
vt 0.312500 0.500000
vt 0.375000 0.500000
vt 0.375000 0.562500
vt 0.375000 0.625000
vt 0.375000 0.687500
vt 0.312500 0.750000
vt 0.250000 0.750000
vt 0.187500 0.750000
vt 0.125000 0.687500
vt 0.125000 0.750000
vt 0.125000 0.625000
vt 0.437500 0.562500
vt 0.500000 0.562500
vt 0.500000 0.625000
vt 0.437500 0.625000
vt 0.562500 0.562500
vt 0.562500 0.625000
vt 0.500000 0.687500
vt 0.437500 0.687500
vt 0.562500 0.687500
vt 0.437500 0.500000
vt 0.500000 0.500000
vt 0.562500 0.500000
vt 0.437500 0.312500
vt 0.500000 0.312500
vt 0.500000 0.375000
vt 0.437500 0.375000
vt 0.562500 0.312500
vt 0.562500 0.375000
vt 0.500000 0.437500
vt 0.437500 0.437500
vt 0.562500 0.437500
vt 0.375000 0.312500
vt 0.625000 0.312500
vt 0.625000 0.375000
vt 0.625000 0.437500
vt 0.375000 0.437500
vt 0.375000 0.375000
vt 0.625000 1.000000
s 0
usemtl Material
f 45/1/1 46/2/1 49/3/1 48/4/1
f 46/2/2 47/5/2 50/6/2 49/3/2
f 48/4/3 49/3/3 52/7/3 51/8/3
f 49/3/4 50/6/4 53/9/4 52/7/4
f 1/10/5 41/11/5 45/1/5 30/12/5
f 41/11/6 40/13/6 46/2/6 45/1/6
f 40/13/7 39/14/7 47/5/7 46/2/7
f 39/14/8 5/15/8 38/16/8 47/5/8
f 31/17/9 30/12/9 99/12/9 100/17/9
f 50/6/10 37/18/10 36/19/10 53/9/10
f 53/9/11 36/19/11 7/20/11 29/21/11
f 52/7/12 53/9/12 29/21/12 28/22/12
f 51/8/13 52/7/13 28/22/13 27/23/13
f 32/24/14 51/8/14 27/23/14 3/25/14
f 31/17/15 48/4/15 51/8/15 32/24/15
f 37/18/16 50/6/16 106/6/16 101/18/16
f 54/26/17 55/27/17 116/27/17 115/26/17
f 55/27/18 56/28/18 59/29/18 58/30/18
f 57/31/19 54/26/19 115/26/19 117/31/19
f 58/30/20 59/29/20 62/32/20 61/33/20
f 4/34/21 23/35/21 54/26/21 35/36/21
f 23/35/22 22/37/22 55/27/22 54/26/22
f 22/37/23 21/38/23 56/28/23 55/27/23
f 7/39/24 20/40/24 107/40/24 108/39/24
f 56/28/25 27/41/25 28/42/25 59/29/25
f 59/29/26 28/42/26 29/43/26 62/32/26
f 27/41/27 56/28/27 113/28/27 111/41/27
f 61/33/28 62/32/28 20/44/28 19/45/28
f 60/46/29 61/33/29 19/45/29 18/47/29
f 33/48/30 60/46/30 18/47/30 8/49/30
f 34/50/31 57/31/31 60/46/31 33/48/31
f 35/36/32 54/26/32 57/31/32 34/50/32
f 63/51/33 64/52/33 67/53/33 66/54/33
f 64/52/34 65/55/34 68/56/34 67/53/34
f 66/54/35 67/53/35 70/57/35 69/58/35
f 67/53/36 68/56/36 71/59/36 70/57/36
f 8/60/37 18/61/37 63/51/37 11/62/37
f 18/61/38 19/63/38 64/52/38 63/51/38
f 19/63/39 20/40/39 65/55/39 64/52/39
f 20/40/40 7/39/40 36/64/40 65/55/40
f 65/55/41 36/64/41 37/65/41 68/56/41
f 68/56/42 37/65/42 38/66/42 71/59/42
f 71/59/43 38/66/43 5/67/43 24/68/43
f 70/57/44 71/59/44 24/68/44 25/69/44
f 69/58/45 70/57/45 25/69/45 26/70/45
f 9/71/46 69/58/46 26/70/46 6/72/46
f 10/73/47 66/54/47 69/58/47 9/71/47
f 11/62/48 63/51/48 66/54/48 10/73/48
f 72/74/49 73/75/49 76/76/49 75/77/49
f 73/75/50 74/78/50 77/79/50 76/76/50
f 75/77/51 76/76/51 79/80/51 78/81/51
f 76/76/52 77/79/52 80/82/52 79/80/52
f 6/83/53 14/84/53 72/74/53 9/85/53
f 14/84/54 13/86/54 73/75/54 72/74/54
f 13/86/55 12/87/55 74/78/55 73/75/55
f 12/87/56 2/88/56 44/89/56 74/78/56
f 74/78/57 44/89/57 43/90/57 77/79/57
f 77/79/58 43/90/58 42/91/58 80/82/58
f 80/82/59 42/91/59 4/34/59 35/92/59
f 79/80/60 80/82/60 35/92/60 34/93/60
f 78/81/61 79/80/61 34/93/61 33/94/61
f 11/95/62 78/81/62 33/94/62 8/96/62
f 10/97/63 75/77/63 78/81/63 11/95/63
f 9/85/64 72/74/64 75/77/64 10/97/64
f 81/98/65 82/99/65 85/100/65 84/101/65
f 82/99/66 83/102/66 86/103/66 85/100/66
f 84/101/67 85/100/67 88/104/67 87/105/67
f 85/100/68 86/103/68 89/106/68 88/104/68
f 2/88/69 17/107/69 81/98/69 44/89/69
f 17/107/70 16/108/70 82/99/70 81/98/70
f 16/108/71 15/109/71 83/102/71 82/99/71
f 15/109/72 1/10/72 30/12/72 83/102/72
f 83/102/73 30/12/73 31/17/73 86/103/73
f 86/103/74 31/17/74 32/24/74 89/106/74
f 89/106/75 32/24/75 3/25/75 21/38/75
f 88/104/76 89/106/76 21/38/76 22/37/76
f 87/105/77 88/104/77 22/37/77 23/35/77
f 42/91/78 87/105/78 23/35/78 4/34/78
f 43/90/79 84/101/79 87/105/79 42/91/79
f 44/89/80 81/98/80 84/101/80 43/90/80
f 90/110/81 91/111/81 94/112/81 93/113/81
f 91/111/82 92/114/82 95/115/82 94/112/82
f 93/113/83 94/112/83 97/116/83 96/117/83
f 94/112/84 95/115/84 98/118/84 97/116/84
f 6/72/85 26/70/85 90/110/85 14/119/85
f 26/70/86 25/69/86 91/111/86 90/110/86
f 25/69/87 24/68/87 92/114/87 91/111/87
f 24/68/88 5/67/88 39/120/88 92/114/88
f 92/114/89 39/120/89 40/121/89 95/115/89
f 95/115/90 40/121/90 41/122/90 98/118/90
f 98/118/91 41/122/91 1/10/91 15/109/91
f 97/116/92 98/118/92 15/109/92 16/108/92
f 96/117/93 97/116/93 16/108/93 17/107/93
f 12/123/94 96/117/94 17/107/94 2/88/94
f 13/124/95 93/113/95 96/117/95 12/123/95
f 14/119/96 90/110/96 93/113/96 13/124/96
f 105/5/97 102/16/97 101/18/97 106/6/97
f 99/12/98 103/1/98 104/4/98 100/17/98
f 30/12/99 45/1/99 103/1/99 99/12/99
f 38/66/100 37/65/100 101/65/100 102/66/100
f 47/5/101 38/16/101 102/16/101 105/5/101
f 50/6/102 47/5/102 105/5/102 106/6/102
f 45/1/103 48/4/103 104/4/103 103/1/103
f 48/4/104 31/17/104 100/17/104 104/4/104
f 110/38/105 109/25/105 111/41/105 113/28/105
f 114/32/106 112/43/106 108/125/106 107/44/106
f 20/44/107 62/32/107 114/32/107 107/44/107
f 3/25/108 27/23/108 111/23/108 109/25/108
f 56/28/109 21/38/109 110/38/109 113/28/109
f 21/38/110 3/25/110 109/25/110 110/38/110
f 29/21/111 7/20/111 108/20/111 112/21/111
f 62/32/112 29/43/112 112/43/112 114/32/112
f 115/26/113 116/27/113 118/30/113 117/31/113
f 117/31/114 118/30/114 120/33/114 119/46/114
f 60/46/115 57/31/115 117/31/115 119/46/115
f 55/27/116 58/30/116 118/30/116 116/27/116
f 61/33/117 60/46/117 119/46/117 120/33/117
f 58/30/118 61/33/118 120/33/118 118/30/118
