# Blender 3.6.2
# www.blender.org
mtllib catgod.mtl
o Sphere
v 0.000000 0.831470 -0.555570
v 0.000000 0.555570 -0.831470
v 0.000000 0.195090 -0.980785
v 0.000000 0.000000 -1.000000
v 0.000000 -0.195090 -0.980785
v 0.000000 -0.555570 -0.831470
v 0.038060 0.980785 -0.191342
v 0.074658 0.923880 -0.375330
v 0.108386 0.831470 -0.544895
v 0.137950 0.707107 -0.693520
v 0.162212 0.555570 -0.815493
v 0.180240 0.382683 -0.906127
v 0.191342 0.195090 -0.961940
v 0.195090 0.000000 -0.980785
v 0.191342 -0.195090 -0.961940
v 0.180240 -0.382683 -0.906127
v 0.162212 -0.555570 -0.815493
v 0.137950 -0.707107 -0.693520
v 0.108386 -0.831470 -0.544895
v 0.074658 -0.923880 -0.375330
v 0.038060 -0.980785 -0.191342
v 0.074658 0.980785 -0.180240
v 0.146447 0.923880 -0.353553
v 0.212608 0.831470 -0.513280
v 0.270598 0.707107 -0.653281
v 0.318190 0.555570 -0.768178
v 0.353553 0.382683 -0.853553
v 0.375330 0.195090 -0.906127
v 0.382683 0.000000 -0.923879
v 0.375330 -0.195090 -0.906127
v 0.353553 -0.382683 -0.853553
v 0.318190 -0.555570 -0.768178
v 0.270598 -0.707107 -0.653281
v 0.212608 -0.831470 -0.513280
v 0.146447 -0.923880 -0.353553
v 0.074658 -0.980785 -0.180240
v 0.108386 0.980785 -0.162212
v 0.212608 0.923880 -0.318190
v 0.308658 0.831470 -0.461940
v 0.392847 0.707107 -0.587938
v 0.461940 0.555570 -0.691342
v 0.513280 0.382683 -0.768178
v 0.544895 0.195090 -0.815493
v 0.555570 0.000000 -0.831469
v 0.544895 -0.195090 -0.815493
v 0.513280 -0.382683 -0.768178
v 0.461940 -0.555570 -0.691342
v 0.392847 -0.707107 -0.587938
v 0.308658 -0.831470 -0.461940
v 0.212608 -0.923880 -0.318190
v 0.108386 -0.980785 -0.162212
v 0.137950 0.980785 -0.137950
v 0.270598 0.923880 -0.270598
v 0.392847 0.831470 -0.392847
v 0.500000 0.707107 -0.500000
v 0.587938 0.555570 -0.587938
v 0.653281 0.382683 -0.653281
v 0.693520 0.195090 -0.693520
v 0.707107 0.000000 -0.707107
v 0.693520 -0.195090 -0.693520
v 0.653281 -0.382683 -0.653281
v 0.587938 -0.555570 -0.587938
v 0.500000 -0.707107 -0.500000
v 0.392847 -0.831470 -0.392847
v 0.270598 -0.923880 -0.270598
v 0.137950 -0.980785 -0.137950
v 0.162212 0.980785 -0.108386
v 0.318190 0.923880 -0.212608
v 0.461940 0.831470 -0.308658
v 0.587938 0.707107 -0.392847
v 0.691342 0.555570 -0.461940
v 0.768178 0.382683 -0.513280
v 0.815493 0.195090 -0.544895
v 0.831470 0.000000 -0.555570
v 0.815493 -0.195090 -0.544895
v 0.768178 -0.382683 -0.513280
v 0.691342 -0.555570 -0.461940
v 0.587938 -0.707107 -0.392847
v 0.461940 -0.831470 -0.308658
v 0.318190 -0.923880 -0.212608
v 0.162212 -0.980785 -0.108386
v 0.000000 1.000000 0.000000
v 0.180240 0.980785 -0.074658
v 0.353553 0.923880 -0.146447
v 0.513280 0.831470 -0.212607
v 0.653281 0.707107 -0.270598
v 0.768178 0.555570 -0.318190
v 0.853553 0.382683 -0.353553
v 0.906127 0.195090 -0.375330
v 0.923879 0.000000 -0.382683
v 0.906127 -0.195090 -0.375330
v 0.853553 -0.382683 -0.353553
v 0.768178 -0.555570 -0.318190
v 0.653281 -0.707107 -0.270598
v 0.513280 -0.831470 -0.212607
v 0.353553 -0.923880 -0.146447
v 0.180240 -0.980785 -0.074658
v 0.191342 0.980785 -0.038060
v 0.375330 0.923880 -0.074658
v 0.544895 0.831470 -0.108386
v 0.693520 0.707107 -0.137950
v 0.815493 0.555570 -0.162212
v 0.906127 0.382683 -0.180240
v 0.961940 0.195090 -0.191342
v 0.980785 0.000000 -0.195090
v 0.961940 -0.195090 -0.191342
v 0.906127 -0.382683 -0.180240
v 0.815493 -0.555570 -0.162212
v 0.693520 -0.707107 -0.137950
v 0.544895 -0.831470 -0.108386
v 0.375330 -0.923880 -0.074658
v 0.191342 -0.980785 -0.038060
v 0.195090 0.980785 0.000000
v 0.382683 0.923880 0.000000
v 0.555570 0.831470 0.000000
v 0.707107 0.707107 -0.000000
v 0.831469 0.555570 0.000000
v 0.923879 0.382683 -0.000000
v 0.980785 0.195090 0.000000
v 1.000000 0.000000 0.000000
v 0.980785 -0.195090 0.000000
v 0.923879 -0.382683 -0.000000
v 0.831469 -0.555570 0.000000
v 0.707107 -0.707107 -0.000000
v 0.555570 -0.831470 0.000000
v 0.382683 -0.923880 0.000000
v 0.195090 -0.980785 0.000000
v 0.191342 0.980785 0.038060
v 0.375330 0.923880 0.074658
v 0.544895 0.831470 0.108386
v 0.693520 0.707107 0.137950
v 0.815493 0.555570 0.162212
v 0.906127 0.382683 0.180240
v 0.961940 0.195090 0.191342
v 0.980785 0.000000 0.195090
v 0.961940 -0.195090 0.191342
v 0.906127 -0.382683 0.180240
v 0.815493 -0.555570 0.162212
v 0.693520 -0.707107 0.137950
v 0.544895 -0.831470 0.108386
v 0.375330 -0.923880 0.074658
v 0.191342 -0.980785 0.038060
v 0.180240 0.980785 0.074658
v 0.353553 0.923880 0.146447
v 0.513280 0.831470 0.212608
v 0.653281 0.707107 0.270598
v 0.768178 0.555570 0.318190
v 0.853553 0.382683 0.353553
v 0.906127 0.195090 0.375330
v 0.923879 0.000000 0.382683
v 0.906127 -0.195090 0.375330
v 0.853553 -0.382683 0.353553
v 0.768178 -0.555570 0.318190
v 0.653281 -0.707107 0.270598
v 0.513280 -0.831470 0.212608
v 0.353553 -0.923880 0.146447
v 0.180240 -0.980785 0.074658
v 0.162212 0.980785 0.108386
v 0.318190 0.923880 0.212608
v 0.461940 0.831470 0.308658
v 0.587938 0.707107 0.392847
v 0.691341 0.555570 0.461940
v 0.768178 0.382683 0.513280
v 0.815493 0.195090 0.544895
v 0.831469 0.000000 0.555570
v 0.815493 -0.195090 0.544895
v 0.768178 -0.382683 0.513280
v 0.691341 -0.555570 0.461940
v 0.587938 -0.707107 0.392847
v 0.461940 -0.831470 0.308658
v 0.318190 -0.923880 0.212608
v 0.162212 -0.980785 0.108386
v 0.137950 0.980785 0.137950
v 0.270598 0.923880 0.270598
v 0.392847 0.831470 0.392847
v 0.500000 0.707107 0.500000
v 0.587938 0.555570 0.587938
v 0.653281 0.382683 0.653281
v 0.693520 0.195090 0.693520
v 0.707106 0.000000 0.707107
v 0.693520 -0.195090 0.693520
v 0.653281 -0.382683 0.653281
v 0.587938 -0.555570 0.587938
v 0.500000 -0.707107 0.500000
v 0.392847 -0.831470 0.392847
v 0.270598 -0.923880 0.270598
v 0.137950 -0.980785 0.137950
v 0.108386 0.980785 0.162212
v 0.212607 0.923880 0.318190
v 0.308658 0.831470 0.461940
v 0.392847 0.707107 0.587938
v 0.461940 0.555570 0.691342
v 0.513280 0.382683 0.768178
v 0.544895 0.195090 0.815493
v 0.555570 0.000000 0.831469
v 0.544895 -0.195090 0.815493
v 0.513280 -0.382683 0.768178
v 0.461940 -0.555570 0.691342
v 0.392847 -0.707107 0.587938
v 0.308658 -0.831470 0.461940
v 0.212607 -0.923880 0.318190
v 0.108386 -0.980785 0.162212
v 0.074658 0.980785 0.180240
v 0.146447 0.923880 0.353553
v 0.212607 0.831470 0.513280
v 0.270598 0.707107 0.653281
v 0.318189 0.555570 0.768178
v 0.353553 0.382683 0.853553
v 0.375330 0.195090 0.906127
v 0.382683 0.000000 0.923879
v 0.375330 -0.195090 0.906127
v 0.353553 -0.382683 0.853553
v 0.318189 -0.555570 0.768178
v 0.270598 -0.707107 0.653281
v 0.212607 -0.831470 0.513280
v 0.146447 -0.923880 0.353553
v 0.074658 -0.980785 0.180240
v 0.038060 0.980785 0.191342
v 0.074658 0.923880 0.375330
v 0.108386 0.831470 0.544895
v 0.137950 0.707107 0.693520
v 0.162212 0.555570 0.815493
v 0.180240 0.382683 0.906127
v 0.191342 0.195090 0.961939
v 0.195090 0.000000 0.980785
v 0.191342 -0.195090 0.961939
v 0.180240 -0.382683 0.906127
v 0.162212 -0.555570 0.815493
v 0.137950 -0.707107 0.693520
v 0.108386 -0.831470 0.544895
v 0.074658 -0.923880 0.375330
v 0.038060 -0.980785 0.191342
v -0.000000 0.980785 0.195090
v -0.000000 0.923880 0.382683
v -0.000000 0.831470 0.555570
v -0.000000 0.707107 0.707107
v -0.000000 0.555570 0.831469
v 0.000000 0.382683 0.923879
v -0.000000 0.195090 0.980785
v -0.000000 0.000000 0.999999
v -0.000000 -0.195090 0.980785
v 0.000000 -0.382683 0.923879
v -0.000000 -0.555570 0.831469
v -0.000000 -0.707107 0.707107
v -0.000000 -0.831470 0.555570
v -0.000000 -0.923880 0.382683
v -0.000000 -0.980785 0.195090
v -0.038060 0.980785 0.191342
v -0.074658 0.923880 0.375330
v -0.108386 0.831470 0.544895
v -0.137950 0.707107 0.693520
v -0.162212 0.555570 0.815493
v -0.180240 0.382683 0.906127
v -0.191342 0.195090 0.961939
v -0.195091 0.000000 0.980785
v -0.191342 -0.195090 0.961939
v -0.180240 -0.382683 0.906127
v -0.162212 -0.555570 0.815493
v -0.137950 -0.707107 0.693520
v -0.108386 -0.831470 0.544895
v -0.074658 -0.923880 0.375330
v -0.038060 -0.980785 0.191342
v -0.074658 0.980785 0.180240
v -0.146447 0.923880 0.353553
v -0.212608 0.831470 0.513280
v -0.270598 0.707107 0.653281
v -0.318190 0.555570 0.768177
v -0.353553 0.382683 0.853553
v -0.375330 0.195090 0.906127
v -0.382683 0.000000 0.923879
v -0.375330 -0.195090 0.906127
v -0.353553 -0.382683 0.853553
v -0.318190 -0.555570 0.768177
v -0.270598 -0.707107 0.653281
v -0.212608 -0.831470 0.513280
v -0.146447 -0.923880 0.353553
v -0.074658 -0.980785 0.180240
v -0.108386 0.980785 0.162212
v -0.212608 0.923880 0.318190
v -0.308658 0.831470 0.461939
v -0.392847 0.707107 0.587938
v -0.461940 0.555570 0.691341
v -0.513280 0.382683 0.768178
v -0.544895 0.195090 0.815493
v -0.555570 0.000000 0.831469
v -0.544895 -0.195090 0.815493
v -0.513280 -0.382683 0.768178
v -0.461940 -0.555570 0.691341
v -0.392847 -0.707107 0.587938
v -0.308658 -0.831470 0.461939
v -0.212608 -0.923880 0.318190
v -0.108386 -0.980785 0.162212
v -0.137950 0.980785 0.137950
v -0.270598 0.923880 0.270598
v -0.392847 0.831470 0.392847
v -0.500000 0.707107 0.500000
v -0.587938 0.555570 0.587937
v -0.653281 0.382683 0.653281
v -0.693520 0.195090 0.693520
v -0.707106 0.000000 0.707106
v -0.693520 -0.195090 0.693520
v -0.653281 -0.382683 0.653281
v -0.587938 -0.555570 0.587937
v -0.500000 -0.707107 0.500000
v -0.392847 -0.831470 0.392847
v -0.270598 -0.923880 0.270598
v -0.137950 -0.980785 0.137950
v 0.000000 -1.000000 0.000000
v -0.162212 0.980785 0.108386
v -0.318190 0.923880 0.212607
v -0.461940 0.831470 0.308658
v -0.587938 0.707107 0.392847
v -0.691341 0.555570 0.461939
v -0.768177 0.382683 0.513280
v -0.815493 0.195090 0.544895
v -0.831469 0.000000 0.555569
v -0.815493 -0.195090 0.544895
v -0.768177 -0.382683 0.513280
v -0.691341 -0.555570 0.461939
v -0.587938 -0.707107 0.392847
v -0.461940 -0.831470 0.308658
v -0.318190 -0.923880 0.212607
v -0.162212 -0.980785 0.108386
v -0.180240 0.980785 0.074658
v -0.353553 0.923880 0.146447
v -0.513280 0.831470 0.212607
v -0.653281 0.707107 0.270598
v -0.768177 0.555570 0.318189
v -0.853553 0.382683 0.353553
v -0.906127 0.195090 0.375330
v -0.923879 0.000000 0.382683
v -0.906127 -0.195090 0.375330
v -0.853553 -0.382683 0.353553
v -0.768177 -0.555570 0.318189
v -0.653281 -0.707107 0.270598
v -0.513280 -0.831470 0.212607
v -0.353553 -0.923880 0.146447
v -0.180240 -0.980785 0.074658
v -0.191342 0.980785 0.038060
v -0.375330 0.923880 0.074658
v -0.544895 0.831470 0.108386
v -0.693520 0.707107 0.137950
v -0.815493 0.555570 0.162211
v -0.906127 0.382683 0.180240
v -0.961939 0.195090 0.191341
v -0.980784 0.000000 0.195090
v -0.961939 -0.195090 0.191341
v -0.906127 -0.382683 0.180240
v -0.815493 -0.555570 0.162211
v -0.693520 -0.707107 0.137950
v -0.544895 -0.831470 0.108386
v -0.375330 -0.923880 0.074658
v -0.191342 -0.980785 0.038060
v -0.195090 0.980785 -0.000000
v -0.382683 0.923880 -0.000000
v -0.555570 0.831470 -0.000000
v -0.707107 0.707107 -0.000000
v -0.831469 0.555570 -0.000000
v -0.923879 0.382683 -0.000000
v -0.980785 0.195090 -0.000000
v -0.999999 0.000000 -0.000000
v -0.980785 -0.195090 -0.000000
v -0.923879 -0.382683 -0.000000
v -0.831469 -0.555570 -0.000000
v -0.707107 -0.707107 -0.000000
v -0.555570 -0.831470 -0.000000
v -0.382683 -0.923880 -0.000000
v -0.195090 -0.980785 -0.000000
v -0.191342 0.980785 -0.038060
v -0.375330 0.923880 -0.074658
v -0.544895 0.831470 -0.108386
v -0.693520 0.707107 -0.137950
v -0.815493 0.555570 -0.162212
v -0.906127 0.382683 -0.180240
v -0.961939 0.195090 -0.191342
v -0.980784 0.000000 -0.195091
v -0.961939 -0.195090 -0.191342
v -0.906127 -0.382683 -0.180240
v -0.815493 -0.555570 -0.162212
v -0.693520 -0.707107 -0.137950
v -0.544895 -0.831470 -0.108386
v -0.375330 -0.923880 -0.074658
v -0.191342 -0.980785 -0.038060
v -0.180240 0.980785 -0.074658
v -0.353553 0.923880 -0.146447
v -0.513279 0.831470 -0.212607
v -0.653281 0.707107 -0.270598
v -0.768177 0.555570 -0.318190
v -0.853553 0.382683 -0.353553
v -0.906127 0.195090 -0.375330
v -0.923878 0.000000 -0.382683
v -0.906127 -0.195090 -0.375330
v -0.853553 -0.382683 -0.353553
v -0.768177 -0.555570 -0.318190
v -0.653281 -0.707107 -0.270598
v -0.513279 -0.831470 -0.212607
v -0.353553 -0.923880 -0.146447
v -0.180240 -0.980785 -0.074658
v -0.162212 0.980785 -0.108386
v -0.318189 0.923880 -0.212607
v -0.461939 0.831470 -0.308658
v -0.587938 0.707107 -0.392847
v -0.691341 0.555570 -0.461940
v -0.768177 0.382683 -0.513280
v -0.815493 0.195090 -0.544895
v -0.831468 0.000000 -0.555570
v -0.815493 -0.195090 -0.544895
v -0.768177 -0.382683 -0.513280
v -0.691341 -0.555570 -0.461940
v -0.587938 -0.707107 -0.392847
v -0.461939 -0.831470 -0.308658
v -0.318189 -0.923880 -0.212607
v -0.162212 -0.980785 -0.108386
v -0.137950 0.980785 -0.137950
v -0.270598 0.923880 -0.270598
v -0.392847 0.831470 -0.392847
v -0.500000 0.707107 -0.500000
v -0.587937 0.555570 -0.587938
v -0.653281 0.382683 -0.653281
v -0.693519 0.195090 -0.693520
v -0.707106 0.000000 -0.707106
v -0.693519 -0.195090 -0.693520
v -0.653281 -0.382683 -0.653281
v -0.587937 -0.555570 -0.587938
v -0.500000 -0.707107 -0.500000
v -0.392847 -0.831470 -0.392847
v -0.270598 -0.923880 -0.270598
v -0.137950 -0.980785 -0.137950
v -0.108386 0.980785 -0.162212
v -0.212607 0.923880 -0.318190
v -0.308658 0.831470 -0.461939
v -0.392847 0.707107 -0.587938
v -0.461939 0.555570 -0.691341
v -0.513280 0.382683 -0.768177
v -0.544895 0.195090 -0.815493
v -0.555569 0.000000 -0.831469
v -0.544895 -0.195090 -0.815493
v -0.513280 -0.382683 -0.768177
v -0.461939 -0.555570 -0.691341
v -0.392847 -0.707107 -0.587938
v -0.308658 -0.831470 -0.461939
v -0.212607 -0.923880 -0.318190
v -0.108386 -0.980785 -0.162212
v -0.074658 0.980785 -0.180240
v -0.146446 0.923880 -0.353553
v -0.212607 0.831470 -0.513279
v -0.270598 0.707107 -0.653281
v -0.318189 0.555570 -0.768177
v -0.353553 0.382683 -0.853553
v -0.375330 0.195090 -0.906127
v -0.382683 0.000000 -0.923879
v -0.375330 -0.195090 -0.906127
v -0.353553 -0.382683 -0.853553
v -0.318189 -0.555570 -0.768177
v -0.270598 -0.707107 -0.653281
v -0.212607 -0.831470 -0.513279
v -0.146446 -0.923880 -0.353553
v -0.074658 -0.980785 -0.180240
v -0.038060 0.980785 -0.191342
v -0.074658 0.923880 -0.375330
v -0.108386 0.831470 -0.544895
v -0.137950 0.707107 -0.693520
v -0.162211 0.555570 -0.815493
v -0.180240 0.382683 -0.906127
v -0.191341 0.195090 -0.961939
v -0.195090 0.000000 -0.980784
v -0.191341 -0.195090 -0.961939
v -0.180240 -0.382683 -0.906127
v -0.162211 -0.555570 -0.815493
v -0.137950 -0.707107 -0.693520
v -0.108386 -0.831470 -0.544895
v -0.074658 -0.923880 -0.375330
v -0.038060 -0.980785 -0.191342
v 0.000000 0.980785 -0.195090
v 0.000000 0.923880 -0.382683
v 0.000000 0.707107 -0.707107
v 0.000000 0.382683 -0.923879
v 0.000000 -0.382683 -0.923879
v 0.000000 -0.707107 -0.707107
v 0.000000 -0.831470 -0.555570
v 0.000000 -0.923880 -0.382683
v 0.000000 -0.980785 -0.195090
v 0.559809 2.392162 -0.144481
v 1.207528 2.065056 -0.162114
v 1.775259 1.624847 -0.177569
v 0.587897 2.392162 -0.105451
v 1.248306 2.065056 -0.105451
v 1.827159 1.624847 -0.105451
v -0.587897 2.392162 -0.105451
v -1.248305 2.065056 -0.105451
v -1.827160 1.624847 -0.105451
v -0.559809 2.392162 -0.144481
v -1.207527 2.065056 -0.162114
v -1.775259 1.624847 -0.177569
v 0.711158 2.413428 -0.034124
v 1.248688 2.141969 -0.048757
v 1.719837 1.776648 -0.061583
v 0.734468 2.413428 -0.001733
v 1.282529 2.141969 -0.001733
v 1.762908 1.776648 -0.001733
v -0.747002 2.413428 -0.001734
v -1.295061 2.141969 -0.001734
v -1.775441 1.776648 -0.001734
v -0.723692 2.413428 -0.034124
v -1.261220 2.141969 -0.048757
v -1.732370 1.776648 -0.061583
v 0.597926 2.230062 0.047365
v 1.135456 1.958604 0.032731
v 1.606605 1.593283 0.019905
v 0.621236 2.230062 0.079755
v 1.169297 1.958604 0.079755
v 1.649676 1.593283 0.079755
v -0.633769 2.230062 0.079755
v -1.181829 1.958604 0.079755
v -1.662209 1.593283 0.079755
v -0.610459 2.230062 0.047365
v -1.147988 1.958604 0.032732
v -1.619138 1.593283 0.019906
v 0.309122 0.548612 0.822989
v 0.333817 0.427885 0.882607
v 0.200203 0.548612 0.856030
v 0.212792 0.427885 0.919320
v -0.363359 0.548612 0.800524
v -0.388054 0.427885 0.860141
v -0.463740 0.548612 0.746869
v -0.499590 0.427885 0.800524
v 0.288066 0.522374 0.861875
v 0.299119 0.468337 0.888559
v 0.239314 0.522374 0.876663
v 0.244949 0.468337 0.904991
v -0.405744 0.522374 0.813130
v -0.416797 0.468337 0.839815
v -0.450674 0.522374 0.789115
v -0.466721 0.468337 0.813130
v 0.091942 -0.013317 0.655273
v 0.089931 -0.117976 0.645163
v -0.012717 -0.013317 0.665581
v -0.012717 -0.117976 0.655273
v -0.117376 -0.013317 0.655273
v -0.115365 -0.117976 0.645163
v -0.218013 -0.013317 0.624745
v -0.214068 -0.117976 0.615222
vn 0.0464 -0.8810 -0.4709
vn 0.0938 0.2890 -0.9527
vn 0.0286 -0.9565 -0.2902
vn 0.0975 0.0975 -0.9904
vn 0.0097 0.9951 -0.0980
vn 0.0097 -0.9951 -0.0980
vn 0.0975 -0.0976 -0.9904
vn 0.0286 0.9565 -0.2902
vn 0.0938 -0.2890 -0.9527
vn 0.0464 0.8810 -0.4709
vn 0.0865 -0.4696 -0.8786
vn 0.0624 0.7715 -0.6332
vn 0.0759 -0.6326 -0.7708
vn 0.0759 0.6326 -0.7708
vn 0.0624 -0.7715 -0.6332
vn 0.0865 0.4696 -0.8786
vn 0.2248 0.6326 -0.7412
vn 0.1847 -0.7715 -0.6088
vn 0.2563 0.4696 -0.8448
vn 0.1374 -0.8810 -0.4528
vn 0.2779 0.2890 -0.9161
vn 0.0846 -0.9565 -0.2790
vn 0.2889 0.0976 -0.9524
vn 0.0286 0.9951 -0.0942
vn 0.0286 -0.9951 -0.0942
vn 0.2889 -0.0976 -0.9524
vn 0.0846 0.9565 -0.2790
vn 0.2779 -0.2890 -0.9161
vn 0.1374 0.8810 -0.4528
vn 0.2563 -0.4696 -0.8448
vn 0.1847 0.7715 -0.6088
vn 0.2248 -0.6326 -0.7412
vn 0.4691 -0.0975 -0.8777
vn 0.1374 0.9565 -0.2571
vn 0.4513 -0.2890 -0.8443
vn 0.2231 0.8810 -0.4173
vn 0.4162 -0.4696 -0.7786
vn 0.2999 0.7715 -0.5611
vn 0.3651 -0.6326 -0.6831
vn 0.3651 0.6326 -0.6831
vn 0.2999 -0.7715 -0.5611
vn 0.4162 0.4696 -0.7786
vn 0.2230 -0.8810 -0.4173
vn 0.4513 0.2890 -0.8443
vn 0.1374 -0.9565 -0.2571
vn 0.4691 0.0975 -0.8777
vn 0.0464 0.9951 -0.0869
vn 0.0464 -0.9951 -0.0869
vn 0.4036 -0.7715 -0.4918
vn 0.5601 0.4696 -0.6825
vn 0.3002 -0.8810 -0.3658
vn 0.6073 0.2890 -0.7400
vn 0.1850 -0.9565 -0.2254
vn 0.6314 0.0975 -0.7693
vn 0.0625 0.9951 -0.0761
vn 0.0625 -0.9951 -0.0761
vn 0.6314 -0.0975 -0.7693
vn 0.1850 0.9565 -0.2254
vn 0.6073 -0.2890 -0.7400
vn 0.3002 0.8810 -0.3658
vn 0.5601 -0.4696 -0.6825
vn 0.4036 0.7715 -0.4918
vn 0.4913 -0.6326 -0.5987
vn 0.4913 0.6326 -0.5987
vn 0.7400 -0.2890 -0.6073
vn 0.3658 0.8810 -0.3002
vn 0.6825 -0.4696 -0.5601
vn 0.4918 0.7715 -0.4036
vn 0.5987 -0.6326 -0.4913
vn 0.5987 0.6326 -0.4913
vn 0.4918 -0.7715 -0.4036
vn 0.6825 0.4696 -0.5601
vn 0.3658 -0.8810 -0.3002
vn 0.7400 0.2890 -0.6073
vn 0.2254 -0.9566 -0.1850
vn 0.7693 0.0975 -0.6314
vn 0.0761 0.9951 -0.0625
vn 0.0761 -0.9951 -0.0625
vn 0.7693 -0.0975 -0.6314
vn 0.2254 0.9565 -0.1850
vn 0.4173 -0.8810 -0.2230
vn 0.8443 0.2890 -0.4513
vn 0.2571 -0.9565 -0.1374
vn 0.8777 0.0975 -0.4691
vn 0.0869 0.9951 -0.0464
vn 0.0869 -0.9951 -0.0464
vn 0.8777 -0.0975 -0.4691
vn 0.2571 0.9565 -0.1374
vn 0.8443 -0.2890 -0.4513
vn 0.4173 0.8810 -0.2230
vn 0.7786 -0.4696 -0.4162
vn 0.5611 0.7715 -0.2999
vn 0.6831 -0.6326 -0.3651
vn 0.6831 0.6326 -0.3651
vn 0.5611 -0.7715 -0.2999
vn 0.7786 0.4696 -0.4162
vn 0.4528 0.8810 -0.1374
vn 0.8448 -0.4696 -0.2563
vn 0.6088 0.7715 -0.1847
vn 0.7412 -0.6326 -0.2248
vn 0.7412 0.6326 -0.2248
vn 0.6088 -0.7715 -0.1847
vn 0.8448 0.4696 -0.2563
vn 0.4528 -0.8810 -0.1374
vn 0.9161 0.2890 -0.2779
vn 0.2790 -0.9565 -0.0846
vn 0.9524 0.0975 -0.2889
vn 0.0942 0.9951 -0.0286
vn 0.0942 -0.9951 -0.0286
vn 0.9524 -0.0975 -0.2889
vn 0.2790 0.9565 -0.0846
vn 0.9161 -0.2890 -0.2779
vn 0.9527 0.2890 -0.0938
vn 0.2902 -0.9565 -0.0286
vn 0.9904 0.0975 -0.0975
vn 0.0980 0.9951 -0.0097
vn 0.0980 -0.9951 -0.0097
vn 0.9904 -0.0975 -0.0975
vn 0.2902 0.9565 -0.0286
vn 0.9527 -0.2890 -0.0938
vn -0.0350 0.0656 0.9972
vn 0.8786 -0.4696 -0.0865
vn 0.1601 0.0431 -0.9862
vn 0.7708 -0.6326 -0.0759
vn 0.7708 0.6326 -0.0759
vn 0.6332 -0.7715 -0.0624
vn 0.8786 0.4696 -0.0865
vn 0.4709 -0.8810 -0.0464
vn 0.8786 -0.4696 0.0865
vn 0.6332 0.7715 0.0624
vn 0.7708 -0.6326 0.0759
vn 0.7708 0.6326 0.0759
vn 0.6332 -0.7715 0.0624
vn 0.8786 0.4696 0.0865
vn 0.4709 -0.8810 0.0464
vn 0.9527 0.2890 0.0938
vn 0.2902 -0.9565 0.0286
vn 0.9904 0.0975 0.0976
vn 0.0980 0.9951 0.0097
vn 0.0980 -0.9951 0.0097
vn 0.9904 -0.0975 0.0976
vn 0.2902 0.9565 0.0286
vn 0.9527 -0.2890 0.0938
vn 0.4709 0.8810 0.0464
vn 0.2790 -0.9565 0.0846
vn 0.9524 0.0975 0.2889
vn 0.0942 0.9951 0.0286
vn 0.0942 -0.9951 0.0286
vn 0.9524 -0.0975 0.2889
vn 0.2790 0.9565 0.0846
vn 0.9161 -0.2890 0.2779
vn 0.4528 0.8810 0.1374
vn 0.8448 -0.4696 0.2563
vn 0.6088 0.7715 0.1847
vn 0.7412 -0.6326 0.2248
vn 0.7412 0.6326 0.2248
vn 0.6088 -0.7715 0.1847
vn 0.8448 0.4696 0.2563
vn 0.4528 -0.8810 0.1374
vn 0.9161 0.2890 0.2779
vn 0.5611 0.7715 0.2999
vn 0.6831 -0.6326 0.3651
vn 0.6831 0.6326 0.3651
vn 0.5611 -0.7715 0.2999
vn 0.7786 0.4696 0.4162
vn 0.4173 -0.8810 0.2230
vn 0.8443 0.2890 0.4513
vn 0.2571 -0.9565 0.1374
vn 0.8777 0.0975 0.4691
vn 0.0869 0.9951 0.0464
vn 0.0869 -0.9951 0.0464
vn 0.8777 -0.0975 0.4691
vn 0.2571 0.9565 0.1374
vn 0.8443 -0.2890 0.4513
vn 0.4173 0.8810 0.2231
vn 0.7786 -0.4696 0.4162
vn 0.7693 0.0975 0.6314
vn 0.0761 0.9951 0.0625
vn 0.0761 -0.9951 0.0625
vn 0.7693 -0.0975 0.6314
vn 0.2254 0.9565 0.1850
vn 0.7400 -0.2890 0.6073
vn 0.3658 0.8810 0.3002
vn 0.6825 -0.4696 0.5601
vn 0.4918 0.7715 0.4036
vn 0.5987 -0.6326 0.4913
vn 0.5987 0.6326 0.4913
vn 0.4918 -0.7715 0.4036
vn 0.6825 0.4696 0.5601
vn 0.3658 -0.8810 0.3002
vn 0.7400 0.2890 0.6073
vn 0.2254 -0.9565 0.1850
vn 0.4913 -0.6326 0.5987
vn 0.4913 0.6326 0.5987
vn 0.4036 -0.7715 0.4918
vn 0.5601 0.4696 0.6825
vn 0.3002 -0.8810 0.3658
vn 0.6073 0.2890 0.7400
vn 0.1850 -0.9565 0.2254
vn 0.6314 0.0975 0.7693
vn 0.0625 0.9951 0.0761
vn 0.0625 -0.9951 0.0761
vn 0.6314 -0.0975 0.7693
vn 0.1850 0.9565 0.2254
vn 0.6073 -0.2890 0.7400
vn 0.3002 0.8810 0.3658
vn 0.5601 -0.4696 0.6825
vn 0.4036 0.7715 0.4918
vn 0.0464 -0.9951 0.0869
vn 0.4691 -0.0975 0.8777
vn 0.1374 0.9565 0.2571
vn 0.4513 -0.2890 0.8443
vn 0.2230 0.8810 0.4173
vn 0.4162 -0.4696 0.7786
vn 0.2999 0.7715 0.5611
vn 0.3651 -0.6326 0.6831
vn 0.3651 0.6326 0.6831
vn 0.2999 -0.7715 0.5611
vn 0.4162 0.4696 0.7786
vn 0.2230 -0.8810 0.4173
vn 0.4513 0.2890 0.8443
vn 0.1374 -0.9565 0.2571
vn 0.4691 0.0975 0.8777
vn 0.0464 0.9951 0.0869
vn 0.1847 -0.7715 0.6088
vn 0.5282 0.2867 0.7993
vn 0.1374 -0.8810 0.4528
vn 0.2779 0.2890 0.9161
vn 0.0846 -0.9565 0.2790
vn 0.2889 0.0975 0.9524
vn 0.0286 0.9951 0.0942
vn 0.0286 -0.9951 0.0942
vn 0.2889 -0.0975 0.9524
vn 0.0846 0.9565 0.2790
vn 0.2779 -0.2890 0.9161
vn 0.1374 0.8810 0.4528
vn 0.2563 -0.4696 0.8448
vn 0.1847 0.7715 0.6088
vn 0.2248 -0.6326 0.7412
vn 0.2248 0.6326 0.7412
vn 0.0286 0.9565 0.2902
vn 0.0938 -0.2890 0.9527
vn 0.0464 0.8810 0.4709
vn 0.0865 -0.4696 0.8786
vn 0.0624 0.7715 0.6332
vn 0.0759 -0.6326 0.7708
vn 0.0759 0.6326 0.7708
vn 0.0624 -0.7715 0.6332
vn 0.0865 0.4696 0.8786
vn 0.0464 -0.8810 0.4709
vn 0.0938 0.2890 0.9527
vn 0.0286 -0.9565 0.2902
vn 0.0975 0.0975 0.9904
vn 0.0097 0.9951 0.0980
vn 0.0097 -0.9951 0.0980
vn -0.0228 0.9726 0.2313
vn -0.0865 0.4696 0.8786
vn -0.0464 -0.8810 0.4709
vn -0.0938 0.2890 0.9527
vn -0.0286 -0.9565 0.2902
vn -0.0976 0.0975 0.9904
vn -0.0097 0.9951 0.0980
vn -0.0097 -0.9951 0.0980
vn -0.0670 0.9730 0.2208
vn -0.0286 0.9565 0.2902
vn -0.0938 -0.2890 0.9527
vn -0.0464 0.8810 0.4709
vn -0.0865 -0.4696 0.8786
vn -0.0624 0.7715 0.6332
vn -0.0759 -0.6326 0.7708
vn -0.0759 0.6326 0.7708
vn -0.0624 -0.7715 0.6332
vn -0.2779 -0.2890 0.9161
vn -0.1374 0.8810 0.4528
vn -0.2563 -0.4696 0.8448
vn -0.1847 0.7715 0.6088
vn -0.2248 -0.6326 0.7412
vn -0.2248 0.6326 0.7412
vn -0.1847 -0.7715 0.6088
vn -0.2563 0.4696 0.8448
vn -0.1374 -0.8810 0.4528
vn -0.2779 0.2890 0.9161
vn -0.0846 -0.9565 0.2790
vn -0.2889 0.0975 0.9524
vn -0.0286 0.9951 0.0942
vn -0.0286 -0.9951 0.0942
vn -0.9531 -0.0109 0.3025
vn -0.0846 0.9565 0.2790
vn -0.2230 -0.8810 0.4173
vn -0.4513 0.2890 0.8443
vn -0.1374 -0.9565 0.2571
vn -0.4691 0.0975 0.8777
vn -0.0464 0.9951 0.0869
vn -0.0464 -0.9951 0.0869
vn -0.4691 -0.0975 0.8777
vn -0.1374 0.9565 0.2571
vn -0.4513 -0.2890 0.8443
vn -0.2230 0.8810 0.4173
vn -0.4162 -0.4696 0.7786
vn -0.2999 0.7715 0.5611
vn -0.3651 -0.6326 0.6831
vn -0.3651 0.6326 0.6831
vn -0.2999 -0.7715 0.5611
vn 0.2608 -0.4388 0.8599
vn -0.3002 0.8810 0.3658
vn -0.5601 -0.4696 0.6825
vn -0.4036 0.7715 0.4918
vn -0.4913 -0.6326 0.5987
vn -0.4913 0.6326 0.5987
vn -0.4036 -0.7715 0.4918
vn -0.5601 0.4696 0.6825
vn -0.3002 -0.8810 0.3658
vn -0.6073 0.2890 0.7400
vn -0.1850 -0.9565 0.2254
vn -0.6314 0.0975 0.7693
vn -0.0625 0.9951 0.0761
vn -0.0625 -0.9951 0.0761
vn -0.6314 -0.0975 0.7693
vn -0.1850 0.9565 0.2254
vn -0.6073 -0.2890 0.7400
vn -0.7400 0.2890 0.6073
vn -0.2254 -0.9566 0.1850
vn -0.7693 0.0975 0.6314
vn -0.0761 0.9951 0.0625
vn -0.0761 -0.9951 0.0625
vn -0.7693 -0.0975 0.6314
vn -0.2254 0.9565 0.1850
vn -0.7400 -0.2890 0.6073
vn -0.3658 0.8810 0.3002
vn -0.6825 -0.4696 0.5601
vn -0.4918 0.7715 0.4036
vn -0.5987 -0.6326 0.4913
vn -0.5987 0.6326 0.4913
vn -0.4918 -0.7715 0.4036
vn -0.6825 0.4696 0.5601
vn -0.3658 -0.8810 0.3002
vn -0.7786 -0.4696 0.4162
vn -0.5611 0.7715 0.2999
vn -0.6831 -0.6326 0.3651
vn -0.6831 0.6326 0.3651
vn -0.5611 -0.7715 0.2999
vn -0.7786 0.4696 0.4162
vn -0.4173 -0.8810 0.2231
vn -0.8443 0.2890 0.4513
vn -0.2571 -0.9565 0.1374
vn -0.8777 0.0975 0.4691
vn -0.0869 0.9951 0.0464
vn -0.0869 -0.9951 0.0464
vn -0.8777 -0.0975 0.4691
vn -0.2571 0.9565 0.1374
vn -0.8443 -0.2890 0.4513
vn -0.4173 0.8810 0.2230
vn -0.2790 -0.9565 0.0846
vn -0.9524 0.0975 0.2889
vn -0.0942 0.9951 0.0286
vn -0.0942 -0.9951 0.0286
vn -0.9524 -0.0975 0.2889
vn -0.2790 0.9565 0.0846
vn -0.9161 -0.2890 0.2779
vn -0.4528 0.8810 0.1374
vn -0.8448 -0.4696 0.2563
vn -0.6088 0.7715 0.1847
vn -0.7412 -0.6326 0.2248
vn -0.7412 0.6326 0.2248
vn -0.6088 -0.7715 0.1847
vn -0.8448 0.4696 0.2563
vn -0.4528 -0.8810 0.1374
vn -0.9161 0.2890 0.2779
vn -0.7708 -0.6326 0.0759
vn -0.7708 0.6326 0.0759
vn -0.6332 -0.7715 0.0624
vn -0.8786 0.4696 0.0865
vn -0.4709 -0.8810 0.0464
vn -0.9527 0.2890 0.0938
vn -0.2902 -0.9565 0.0286
vn -0.9904 0.0975 0.0975
vn -0.0980 0.9951 0.0097
vn -0.0980 -0.9951 0.0097
vn -0.9904 -0.0975 0.0976
vn -0.2902 0.9565 0.0286
vn -0.9527 -0.2890 0.0938
vn -0.4709 0.8810 0.0464
vn -0.8786 -0.4696 0.0865
vn -0.6332 0.7715 0.0624
vn -0.0980 0.9951 -0.0097
vn -0.0980 -0.9951 -0.0097
vn -0.9904 -0.0975 -0.0976
vn -0.2902 0.9565 -0.0286
vn -0.9527 -0.2890 -0.0938
vn -0.1695 0.0482 -0.9843
vn -0.8786 -0.4696 -0.0865
vn -0.6443 -0.7622 -0.0635
vn -0.7708 -0.6326 -0.0759
vn -0.7708 0.6326 -0.0759
vn -0.6332 -0.7715 -0.0624
vn -0.8786 0.4696 -0.0865
vn -0.4709 -0.8810 -0.0464
vn -0.9527 0.2890 -0.0938
vn -0.2902 -0.9565 -0.0286
vn -0.9904 0.0975 -0.0975
vn -0.7412 0.6326 -0.2248
vn -0.6088 -0.7715 -0.1847
vn -0.8448 0.4696 -0.2563
vn -0.4528 -0.8810 -0.1374
vn -0.9161 0.2890 -0.2779
vn -0.2790 -0.9565 -0.0846
vn -0.9524 0.0975 -0.2889
vn -0.0942 0.9951 -0.0286
vn -0.0942 -0.9951 -0.0286
vn -0.9524 -0.0975 -0.2889
vn -0.2790 0.9565 -0.0846
vn -0.9161 -0.2890 -0.2779
vn -0.4528 0.8810 -0.1374
vn -0.8448 -0.4696 -0.2563
vn -0.6088 0.7715 -0.1847
vn -0.7412 -0.6326 -0.2248
vn -0.8777 -0.0975 -0.4691
vn -0.2571 0.9565 -0.1374
vn -0.8443 -0.2890 -0.4513
vn -0.4173 0.8810 -0.2231
vn -0.7786 -0.4696 -0.4162
vn -0.5611 0.7715 -0.2999
vn -0.6831 -0.6326 -0.3651
vn -0.6831 0.6326 -0.3651
vn -0.5611 -0.7715 -0.2999
vn -0.7786 0.4696 -0.4162
vn -0.4173 -0.8810 -0.2231
vn -0.8443 0.2890 -0.4513
vn -0.2571 -0.9565 -0.1374
vn -0.8777 0.0975 -0.4691
vn -0.0869 0.9951 -0.0464
vn -0.0869 -0.9951 -0.0464
vn -0.4918 -0.7715 -0.4036
vn -0.6825 0.4696 -0.5601
vn -0.3658 -0.8810 -0.3002
vn -0.7400 0.2890 -0.6073
vn -0.2254 -0.9565 -0.1850
vn -0.7693 0.0975 -0.6314
vn -0.0761 0.9951 -0.0625
vn -0.0761 -0.9951 -0.0625
vn -0.7693 -0.0975 -0.6314
vn -0.2254 0.9565 -0.1850
vn -0.7400 -0.2890 -0.6073
vn -0.3658 0.8810 -0.3002
vn -0.6825 -0.4696 -0.5601
vn -0.4918 0.7715 -0.4036
vn -0.5987 -0.6326 -0.4913
vn -0.5987 0.6326 -0.4913
vn -0.1850 0.9565 -0.2254
vn -0.6073 -0.2890 -0.7400
vn -0.3002 0.8810 -0.3658
vn -0.5601 -0.4696 -0.6825
vn -0.4036 0.7715 -0.4918
vn -0.4913 -0.6326 -0.5987
vn -0.4913 0.6326 -0.5987
vn -0.4036 -0.7715 -0.4918
vn -0.5601 0.4696 -0.6825
vn -0.3002 -0.8810 -0.3658
vn -0.6073 0.2890 -0.7400
vn -0.1850 -0.9565 -0.2254
vn -0.6314 0.0975 -0.7693
vn -0.0625 0.9951 -0.0761
vn -0.0625 -0.9951 -0.0761
vn -0.6314 -0.0975 -0.7693
vn -0.4162 0.4696 -0.7786
vn -0.2230 -0.8810 -0.4173
vn -0.4513 0.2890 -0.8443
vn -0.1374 -0.9565 -0.2571
vn -0.4691 0.0975 -0.8777
vn -0.0464 0.9951 -0.0869
vn -0.0464 -0.9951 -0.0869
vn -0.4691 -0.0975 -0.8777
vn -0.1374 0.9565 -0.2571
vn -0.4513 -0.2890 -0.8443
vn -0.2230 0.8810 -0.4173
vn -0.4162 -0.4696 -0.7786
vn -0.2999 0.7715 -0.5611
vn -0.3651 -0.6326 -0.6831
vn -0.3651 0.6326 -0.6831
vn -0.2999 -0.7715 -0.5611
vn -0.2779 -0.2890 -0.9161
vn -0.1374 0.8810 -0.4528
vn -0.2563 -0.4696 -0.8448
vn -0.1847 0.7715 -0.6088
vn -0.2248 -0.6326 -0.7412
vn -0.2248 0.6326 -0.7412
vn -0.1847 -0.7715 -0.6088
vn -0.2563 0.4696 -0.8448
vn -0.1374 -0.8810 -0.4528
vn -0.2779 0.2890 -0.9161
vn -0.0846 -0.9565 -0.2790
vn -0.2889 0.0975 -0.9524
vn -0.0286 0.9951 -0.0942
vn -0.0286 -0.9951 -0.0942
vn -0.2889 -0.0975 -0.9524
vn -0.0846 0.9565 -0.2790
vn -0.0464 -0.8810 -0.4709
vn -0.0938 0.2890 -0.9527
vn -0.0286 -0.9565 -0.2902
vn -0.0976 0.0975 -0.9904
vn -0.0097 0.9951 -0.0980
vn -0.0097 -0.9951 -0.0980
vn -0.0976 -0.0975 -0.9904
vn -0.0286 0.9565 -0.2902
vn -0.0938 -0.2890 -0.9527
vn -0.0464 0.8810 -0.4709
vn -0.0865 -0.4696 -0.8786
vn -0.0624 0.7715 -0.6332
vn -0.0759 -0.6326 -0.7708
vn -0.0759 0.6326 -0.7708
vn -0.0624 -0.7715 -0.6332
vn -0.0865 0.4696 -0.8786
vn 0.2405 0.9551 0.1731
vn -0.2778 0.9396 0.1999
vn 0.3358 -0.6779 0.6540
vn 0.3441 0.7142 -0.6095
vn -0.0317 -0.0058 -0.9995
vn -0.8049 0.1287 0.5793
vn 0.0332 0.0670 0.9972
vn 0.5576 -0.7267 -0.4013
vn -0.0452 0.0594 0.9972
vn 0.9847 0.1446 0.0970
vn 0.0481 -0.0414 -0.9980
vn 0.0479 0.0583 0.9971
vn 0.6460 -0.6055 -0.4649
vn 0.1576 -0.3181 -0.9349
vn 0.1794 0.3049 0.9353
vn -0.2348 0.2700 0.9338
vn 0.4773 0.6369 -0.6054
vn 0.4582 -0.6026 0.6534
vn -0.3447 -0.6960 0.6299
vn -0.3354 0.6982 -0.6325
vn 0.6516 0.5962 -0.4689
vn -0.6726 0.5598 -0.4840
vn -0.4750 -0.6246 0.6199
vn -0.4613 0.6173 -0.6373
vn 0.4228 0.8536 -0.3043
vn 0.5550 0.7297 -0.3994
vn -0.4228 0.8536 -0.3043
vn -0.5550 0.7297 -0.3994
vn -0.6460 -0.6055 -0.4649
vn 0.2348 0.2700 0.9338
vn 0.2150 -0.2827 -0.9348
vn -0.1576 -0.3181 -0.9349
vn -0.1794 0.3049 0.9353
vn -0.6460 0.6055 0.4649
vn 0.6460 0.6055 0.4649
vn -0.2150 -0.2827 -0.9348
vn 0.1872 0.7643 0.6171
vn -0.7402 0.4442 0.5048
vn -0.0652 0.9904 0.1220
vn -0.4236 -0.4388 0.7925
vn -0.9580 0.2867 0.0049
vn 0.9387 0.2867 0.1917
vn 0.0402 0.9904 0.1324
vn -0.6740 0.2867 0.6809
vn 0.2563 0.4696 0.8448
vn -0.4162 0.4696 0.7786
vn -0.1665 0.4442 0.8803
vn -0.4687 0.1076 0.8768
vn -0.0085 0.4442 0.8959
vn 0.2886 0.1076 0.9514
vn 0.6275 0.4442 0.6395
vn -0.3040 0.7643 0.5687
vn 0.0976 -0.0975 0.9904
vn -0.0976 -0.0975 0.9904
vn -0.2889 -0.0975 0.9524
vn -0.0039 -0.9992 0.0399
vn 0.8758 -0.0109 0.4826
vn -0.0116 -0.9992 0.0381
vn 0.0226 0.9730 0.2296
vn 0.0039 -0.9992 0.0396
vn 0.0975 0.0976 -0.9904
vn 0.0975 -0.0975 -0.9904
vn 0.2230 0.8810 -0.4173
vn 0.2231 -0.8810 -0.4173
vn 0.2254 -0.9565 -0.1850
vn -0.0332 0.0670 0.9972
vn 0.0317 -0.0058 -0.9995
vn 0.4173 -0.8810 0.2231
vn 0.4173 0.8810 0.2230
vn 0.2231 -0.8810 0.4173
vn -0.0975 0.0975 0.9904
vn -0.2231 -0.8810 0.4173
vn -0.2231 0.8810 0.4173
vn -0.2254 -0.9565 0.1850
vn -0.4173 -0.8810 0.2230
vn -0.9904 0.0975 0.0976
vn -0.9904 -0.0975 0.0975
vn -0.9904 -0.0975 -0.0975
vn -0.0481 -0.0414 -0.9980
vn -0.5576 -0.7267 -0.4013
vn -0.9904 0.0975 -0.0976
vn -0.1601 0.0431 -0.9862
vn -0.9847 0.1446 0.0970
vn 0.0350 0.0656 0.9972
vn 0.6443 -0.7622 -0.0635
vn -0.0479 0.0583 0.9971
vn 0.8049 0.1287 0.5793
vn 0.1695 0.0482 -0.9843
vn 0.0452 0.0594 0.9972
vn -0.6725 0.5598 -0.4840
vn 0.0975 -0.0975 0.9904
vt 0.750000 0.187500
vt 0.718750 0.125000
vt 0.750000 0.125000
vt 0.750000 0.562500
vt 0.718750 0.625000
vt 0.718750 0.562500
vt 0.718750 0.062500
vt 0.750000 0.062500
vt 0.718750 0.500000
vt 0.750000 0.500000
vt 0.750000 0.937500
vt 0.734375 1.000000
vt 0.718750 0.937500
vt 0.734375 0.000000
vt 0.718750 0.437500
vt 0.750000 0.437500
vt 0.750000 0.875000
vt 0.718750 0.875000
vt 0.718750 0.375000
vt 0.750000 0.375000
vt 0.750000 0.812500
vt 0.718750 0.812500
vt 0.718750 0.312500
vt 0.750000 0.312500
vt 0.750000 0.750000
vt 0.718750 0.750000
vt 0.718750 0.250000
vt 0.750000 0.250000
vt 0.750000 0.687500
vt 0.718750 0.687500
vt 0.718750 0.187500
vt 0.750000 0.625000
vt 0.687500 0.687500
vt 0.687500 0.250000
vt 0.687500 0.187500
vt 0.687500 0.625000
vt 0.687500 0.125000
vt 0.687500 0.562500
vt 0.687500 0.062500
vt 0.687500 0.500000
vt 0.703125 1.000000
vt 0.687500 0.937500
vt 0.703125 0.000000
vt 0.687500 0.437500
vt 0.687500 0.875000
vt 0.687500 0.375000
vt 0.687500 0.812500
vt 0.687500 0.312500
vt 0.687500 0.750000
vt 0.656250 0.500000
vt 0.656250 0.437500
vt 0.656250 0.875000
vt 0.656250 0.375000
vt 0.656250 0.812500
vt 0.656250 0.312500
vt 0.656250 0.750000
vt 0.656250 0.250000
vt 0.656250 0.687500
vt 0.656250 0.187500
vt 0.656250 0.625000
vt 0.656250 0.125000
vt 0.656250 0.562500
vt 0.656250 0.062500
vt 0.671875 1.000000
vt 0.656250 0.937500
vt 0.671875 0.000000
vt 0.625000 0.187500
vt 0.625000 0.625000
vt 0.625000 0.125000
vt 0.625000 0.562500
vt 0.625000 0.062500
vt 0.625000 0.500000
vt 0.640625 1.000000
vt 0.625000 0.937500
vt 0.640625 0.000000
vt 0.625000 0.437500
vt 0.625000 0.875000
vt 0.625000 0.375000
vt 0.625000 0.812500
vt 0.625000 0.312500
vt 0.625000 0.750000
vt 0.625000 0.250000
vt 0.625000 0.687500
vt 0.593750 0.375000
vt 0.593750 0.812500
vt 0.593750 0.312500
vt 0.593750 0.750000
vt 0.593750 0.250000
vt 0.593750 0.687500
vt 0.593750 0.187500
vt 0.593750 0.625000
vt 0.593750 0.125000
vt 0.593750 0.562500
vt 0.593750 0.062500
vt 0.593750 0.500000
vt 0.609375 1.000000
vt 0.593750 0.937500
vt 0.609375 0.000000
vt 0.593750 0.437500
vt 0.593750 0.875000
vt 0.562500 0.125000
vt 0.562500 0.625000
vt 0.562500 0.562500
vt 0.562500 0.062500
vt 0.562500 0.500000
vt 0.578125 1.000000
vt 0.562500 0.937500
vt 0.578125 0.000000
vt 0.562500 0.437500
vt 0.562500 0.875000
vt 0.562500 0.375000
vt 0.562500 0.812500
vt 0.562500 0.312500
vt 0.562500 0.750000
vt 0.562500 0.250000
vt 0.562500 0.687500
vt 0.562500 0.187500
vt 0.531250 0.812500
vt 0.531250 0.375000
vt 0.531250 0.312500
vt 0.531250 0.750000
vt 0.531250 0.250000
vt 0.531250 0.687500
vt 0.531250 0.187500
vt 0.531250 0.625000
vt 0.531250 0.125000
vt 0.531250 0.562500
vt 0.531250 0.062500
vt 0.531250 0.500000
vt 0.546875 1.000000
vt 0.531250 0.937500
vt 0.546875 0.000000
vt 0.531250 0.437500
vt 0.531250 0.875000
vt 0.500000 0.625000
vt 0.500000 0.562500
vt 0.500000 0.062500
vt 0.500000 0.500000
vt 0.515625 1.000000
vt 0.500000 0.937500
vt 0.515625 0.000000
vt 0.500000 0.437500
vt 0.500000 0.875000
vt 0.500000 0.375000
vt 0.000000 0.875000
vt 0.000000 0.812500
vt 0.500000 0.312500
vt 0.968750 0.750000
vt 0.968750 0.812500
vt 0.500000 0.250000
vt 0.500000 0.750000
vt 0.500000 0.687500
vt 0.500000 0.187500
vt 0.500000 0.125000
vt 0.468750 0.375000
vt 0.468750 0.312500
vt 0.500000 0.812500
vt 0.468750 0.750000
vt 0.468750 0.250000
vt 0.468750 0.687500
vt 0.468750 0.187500
vt 0.468750 0.625000
vt 0.468750 0.125000
vt 0.468750 0.562500
vt 0.468750 0.062500
vt 0.468750 0.500000
vt 0.484375 1.000000
vt 0.468750 0.937500
vt 0.484375 0.000000
vt 0.468750 0.437500
vt 0.468750 0.875000
vt 0.468750 0.812500
vt 0.437500 0.125000
vt 0.437500 0.062500
vt 0.437500 0.562500
vt 0.437500 0.500000
vt 0.453125 1.000000
vt 0.437500 0.937500
vt 0.453125 0.000000
vt 0.437500 0.437500
vt 0.437500 0.875000
vt 0.437500 0.375000
vt 0.437500 0.812500
vt 0.437500 0.312500
vt 0.437500 0.750000
vt 0.437500 0.250000
vt 0.437500 0.687500
vt 0.437500 0.187500
vt 0.437500 0.625000
vt 0.406250 0.750000
vt 0.406250 0.250000
vt 0.406250 0.687500
vt 0.406250 0.187500
vt 0.406250 0.625000
vt 0.406250 0.125000
vt 0.406250 0.562500
vt 0.406250 0.062500
vt 0.406250 0.500000
vt 0.421875 1.000000
vt 0.406250 0.937500
vt 0.421875 0.000000
vt 0.406250 0.437500
vt 0.406250 0.875000
vt 0.406250 0.375000
vt 0.406250 0.812500
vt 0.406250 0.312500
vt 0.375000 0.562500
vt 0.375000 0.500000
vt 0.390625 1.000000
vt 0.375000 0.937500
vt 0.390625 0.000000
vt 0.375000 0.062500
vt 0.375000 0.437500
vt 0.375000 0.875000
vt 0.375000 0.375000
vt 0.375000 0.812500
vt 0.375000 0.312500
vt 0.375000 0.750000
vt 0.375000 0.250000
vt 0.375000 0.687500
vt 0.375000 0.187500
vt 0.375000 0.625000
vt 0.375000 0.125000
vt 0.343750 0.250000
vt 0.343750 0.750000
vt 0.343750 0.687500
vt 0.343750 0.187500
vt 0.343750 0.625000
vt 0.343750 0.125000
vt 0.343750 0.562500
vt 0.343750 0.062500
vt 0.343750 0.500000
vt 0.359375 1.000000
vt 0.343750 0.937500
vt 0.359375 0.000000
vt 0.343750 0.437500
vt 0.343750 0.875000
vt 0.343750 0.375000
vt 0.343750 0.812500
vt 0.343750 0.312500
vt 0.328125 0.000000
vt 0.312500 0.062500
vt 0.312500 0.437500
vt 0.312500 0.875000
vt 0.312500 0.375000
vt 0.312500 0.812500
vt 0.312500 0.312500
vt 0.312500 0.750000
vt 0.312500 0.250000
vt 0.312500 0.687500
vt 0.312500 0.187500
vt 0.312500 0.625000
vt 0.312500 0.125000
vt 0.312500 0.562500
vt 0.312500 0.500000
vt 0.328125 1.000000
vt 0.312500 0.937500
vt 0.281250 0.250000
vt 0.281250 0.187500
vt 0.187500 0.687500
vt 0.187500 0.625000
vt 0.281250 0.125000
vt 0.281250 0.625000
vt 0.281250 0.562500
vt 0.281250 0.062500
vt 0.281250 0.500000
vt 0.296875 1.000000
vt 0.281250 0.937500
vt 0.296875 0.000000
vt 0.281250 0.437500
vt 0.281250 0.875000
vt 0.281250 0.375000
vt 0.281250 0.812500
vt 0.281250 0.312500
vt 0.281250 0.750000
vt 0.281250 0.687500
vt 0.250000 0.875000
vt 0.250000 0.375000
vt 0.250000 0.812500
vt 0.250000 0.312500
vt 0.250000 0.750000
vt 0.250000 0.250000
vt 0.250000 0.687500
vt 0.250000 0.187500
vt 0.250000 0.625000
vt 0.250000 0.125000
vt 0.250000 0.562500
vt 0.250000 0.062500
vt 0.250000 0.500000
vt 0.265625 1.000000
vt 0.250000 0.937500
vt 0.265625 0.000000
vt 0.218750 0.437500
vt 0.250000 0.437500
vt 0.218750 0.625000
vt 0.218750 0.125000
vt 0.218750 0.562500
vt 0.218750 0.062500
vt 0.218750 0.500000
vt 0.234375 1.000000
vt 0.218750 0.937500
vt 0.234375 0.000000
vt 0.187500 0.437500
vt 0.218750 0.875000
vt 0.218750 0.375000
vt 0.218750 0.812500
vt 0.218750 0.312500
vt 0.218750 0.750000
vt 0.218750 0.250000
vt 0.218750 0.687500
vt 0.218750 0.187500
vt 0.187500 0.375000
vt 0.187500 0.812500
vt 0.187500 0.312500
vt 0.187500 0.750000
vt 0.187500 0.250000
vt 0.187500 0.187500
vt 0.187500 0.125000
vt 0.187500 0.562500
vt 0.187500 0.062500
vt 0.187500 0.500000
vt 0.203125 1.000000
vt 0.187500 0.937500
vt 0.203125 0.000000
vt 0.187500 0.875000
vt 0.156250 0.125000
vt 0.156250 0.625000
vt 0.156250 0.562500
vt 0.156250 0.062500
vt 0.156250 0.500000
vt 0.171875 1.000000
vt 0.156250 0.937500
vt 0.171875 0.000000
vt 0.156250 0.437500
vt 0.156250 0.875000
vt 0.156250 0.375000
vt 0.156250 0.812500
vt 0.156250 0.312500
vt 0.156250 0.750000
vt 0.156250 0.250000
vt 0.156250 0.687500
vt 0.156250 0.187500
vt 0.125000 0.812500
vt 0.125000 0.375000
vt 0.125000 0.312500
vt 0.125000 0.750000
vt 0.125000 0.250000
vt 0.125000 0.687500
vt 0.125000 0.187500
vt 0.125000 0.625000
vt 0.125000 0.125000
vt 0.125000 0.562500
vt 0.125000 0.062500
vt 0.125000 0.500000
vt 0.140625 1.000000
vt 0.125000 0.937500
vt 0.140625 0.000000
vt 0.125000 0.437500
vt 0.125000 0.875000
vt 0.093750 0.625000
vt 0.093750 0.562500
vt 0.093750 0.062500
vt 0.093750 0.500000
vt 0.109375 1.000000
vt 0.093750 0.937500
vt 0.109375 0.000000
vt 0.093750 0.437500
vt 0.093750 0.875000
vt 0.093750 0.375000
vt 0.093750 0.812500
vt 0.093750 0.312500
vt 0.093750 0.750000
vt 0.093750 0.250000
vt 0.093750 0.687500
vt 0.093750 0.187500
vt 0.093750 0.125000
vt 0.062500 0.375000
vt 0.062500 0.312500
vt 0.062500 0.750000
vt 0.062500 0.250000
vt 0.062500 0.687500
vt 0.062500 0.187500
vt 0.062500 0.625000
vt 0.062500 0.125000
vt 0.062500 0.562500
vt 0.062500 0.062500
vt 0.062500 0.500000
vt 0.078125 1.000000
vt 0.062500 0.937500
vt 0.078125 0.000000
vt 0.062500 0.437500
vt 0.062500 0.875000
vt 0.062500 0.812500
vt 0.031250 0.062500
vt 0.031250 0.562500
vt 0.031250 0.500000
vt 0.046875 1.000000
vt 0.031250 0.937500
vt 0.046875 0.000000
vt 0.031250 0.437500
vt 0.031250 0.875000
vt 0.031250 0.375000
vt 0.031250 0.812500
vt 0.031250 0.312500
vt 0.031250 0.750000
vt 0.031250 0.250000
vt 0.031250 0.687500
vt 0.031250 0.187500
vt 0.031250 0.625000
vt 0.031250 0.125000
vt 0.000000 0.250000
vt 0.000000 0.750000
vt 0.000000 0.687500
vt 0.000000 0.187500
vt 0.000000 0.625000
vt 0.000000 0.125000
vt 0.000000 0.562500
vt 0.000000 0.062500
vt 0.000000 0.500000
vt 0.015625 1.000000
vt 0.000000 0.937500
vt 0.015625 0.000000
vt 0.000000 0.437500
vt 0.000000 0.375000
vt 0.000000 0.312500
vt 1.000000 0.937500
vt 0.984375 1.000000
vt 0.968750 0.937500
vt 0.984375 0.000000
vt 1.000000 0.062500
vt 0.968750 0.062500
vt 1.000000 0.500000
vt 0.968750 0.437500
vt 1.000000 0.437500
vt 0.968750 0.875000
vt 1.000000 0.875000
vt 0.968750 0.375000
vt 1.000000 0.375000
vt 1.000000 0.312500
vt 0.968750 0.312500
vt 1.000000 0.750000
vt 0.968750 0.250000
vt 1.000000 0.250000
vt 1.000000 0.687500
vt 0.968750 0.687500
vt 1.000000 0.187500
vt 0.968750 0.187500
vt 0.968750 0.625000
vt 1.000000 0.625000
vt 0.968750 0.125000
vt 1.000000 0.125000
vt 1.000000 0.562500
vt 0.968750 0.562500
vt 0.968750 0.500000
vt 0.937500 0.750000
vt 0.937500 0.687500
vt 0.937500 0.250000
vt 0.937500 0.187500
vt 0.937500 0.625000
vt 0.937500 0.125000
vt 0.937500 0.562500
vt 0.937500 0.062500
vt 0.937500 0.500000
vt 0.953125 1.000000
vt 0.937500 0.937500
vt 0.953125 0.000000
vt 0.937500 0.437500
vt 0.937500 0.875000
vt 0.937500 0.375000
vt 0.937500 0.812500
vt 0.937500 0.312500
vt 0.906250 0.437500
vt 0.906250 0.937500
vt 0.906250 0.875000
vt 0.906250 0.375000
vt 0.906250 0.812500
vt 0.906250 0.312500
vt 0.906250 0.750000
vt 0.906250 0.250000
vt 0.906250 0.687500
vt 0.906250 0.187500
vt 0.906250 0.625000
vt 0.906250 0.125000
vt 0.906250 0.562500
vt 0.906250 0.062500
vt 0.906250 0.500000
vt 0.921875 1.000000
vt 0.921875 0.000000
vt 0.875000 0.250000
vt 0.875000 0.187500
vt 0.875000 0.625000
vt 0.875000 0.125000
vt 0.875000 0.562500
vt 0.875000 0.062500
vt 0.875000 0.500000
vt 0.890625 1.000000
vt 0.875000 0.937500
vt 0.890625 0.000000
vt 0.875000 0.437500
vt 0.875000 0.875000
vt 0.875000 0.375000
vt 0.875000 0.812500
vt 0.875000 0.312500
vt 0.875000 0.750000
vt 0.875000 0.687500
vt 0.843750 0.875000
vt 0.843750 0.375000
vt 0.843750 0.812500
vt 0.843750 0.312500
vt 0.843750 0.750000
vt 0.843750 0.250000
vt 0.843750 0.687500
vt 0.843750 0.187500
vt 0.843750 0.625000
vt 0.843750 0.125000
vt 0.843750 0.562500
vt 0.843750 0.062500
vt 0.843750 0.500000
vt 0.859375 1.000000
vt 0.843750 0.937500
vt 0.859375 0.000000
vt 0.843750 0.437500
vt 0.812500 0.625000
vt 0.812500 0.125000
vt 0.812500 0.562500
vt 0.812500 0.062500
vt 0.812500 0.500000
vt 0.828125 1.000000
vt 0.812500 0.937500
vt 0.828125 0.000000
vt 0.812500 0.437500
vt 0.812500 0.875000
vt 0.812500 0.375000
vt 0.812500 0.812500
vt 0.812500 0.312500
vt 0.812500 0.750000
vt 0.812500 0.250000
vt 0.812500 0.687500
vt 0.812500 0.187500
vt 0.781250 0.375000
vt 0.781250 0.875000
vt 0.781250 0.812500
vt 0.781250 0.312500
vt 0.781250 0.750000
vt 0.781250 0.250000
vt 0.781250 0.687500
vt 0.781250 0.187500
vt 0.781250 0.625000
vt 0.781250 0.125000
vt 0.781250 0.562500
vt 0.781250 0.062500
vt 0.781250 0.500000
vt 0.796875 1.000000
vt 0.781250 0.937500
vt 0.796875 0.000000
vt 0.781250 0.437500
vt 0.765625 1.000000
vt 0.765625 0.000000
vt 1.000000 0.812500
s 0
usemtl Material.001
f 480/1/1 20/2/1 481/3/1
f 3/4/2 12/5/2 13/6/2
f 481/3/3 21/7/3 482/8/3
f 3/4/4 14/9/4 4/10/4
f 474/11/5 82/12/5 7/13/5
f 308/14/6 482/8/6 21/7/6
f 4/10/7 15/15/7 5/16/7
f 475/17/8 7/13/8 8/18/8
f 5/16/9 16/19/9 478/20/9
f 1/21/10 8/18/10 9/22/10
f 478/20/11 17/23/11 6/24/11
f 476/25/12 9/22/12 10/26/12
f 6/24/13 18/27/13 479/28/13
f 2/29/14 10/26/14 11/30/14
f 479/28/15 19/31/15 480/1/15
f 477/32/16 11/30/16 12/5/16
f 10/26/17 26/33/17 11/30/17
f 19/31/18 33/34/18 34/35/18
f 11/30/19 27/36/19 12/5/19
f 20/2/20 34/35/20 35/37/20
f 13/6/21 27/36/21 28/38/21
f 20/2/22 36/39/22 21/7/22
f 13/6/23 29/40/23 14/9/23
f 7/13/24 82/41/24 22/42/24
f 308/43/25 21/7/25 36/39/25
f 14/9/26 30/44/26 15/15/26
f 7/13/27 23/45/27 8/18/27
f 15/15/28 31/46/28 16/19/28
f 8/18/29 24/47/29 9/22/29
f 16/19/30 32/48/30 17/23/30
f 9/22/31 25/49/31 10/26/31
f 17/23/32 33/34/32 18/27/32
f 30/44/33 44/50/33 45/51/33
f 22/42/34 38/52/34 23/45/34
f 30/44/35 46/53/35 31/46/35
f 23/45/36 39/54/36 24/47/36
f 32/48/37 46/53/37 47/55/37
f 24/47/38 40/56/38 25/49/38
f 33/34/39 47/55/39 48/57/39
f 25/49/40 41/58/40 26/33/40
f 34/35/41 48/57/41 49/59/41
f 26/33/42 42/60/42 27/36/42
f 34/35/43 50/61/43 35/37/43
f 27/36/44 43/62/44 28/38/44
f 35/37/45 51/63/45 36/39/45
f 28/38/46 44/50/46 29/40/46
f 22/42/47 82/64/47 37/65/47
f 308/66/48 36/39/48 51/63/48
f 48/57/49 64/67/49 49/59/49
f 41/58/50 57/68/50 42/60/50
f 49/59/51 65/69/51 50/61/51
f 43/62/52 57/68/52 58/70/52
f 50/61/53 66/71/53 51/63/53
f 44/50/54 58/70/54 59/72/54
f 37/65/55 82/73/55 52/74/55
f 308/75/56 51/63/56 66/71/56
f 44/50/57 60/76/57 45/51/57
f 37/65/58 53/77/58 38/52/58
f 45/51/59 61/78/59 46/53/59
f 38/52/60 54/79/60 39/54/60
f 47/55/61 61/78/61 62/80/61
f 39/54/62 55/81/62 40/56/62
f 47/55/63 63/82/63 48/57/63
f 40/56/64 56/83/64 41/58/64
f 60/76/65 76/84/65 61/78/65
f 53/77/66 69/85/66 54/79/66
f 62/80/67 76/84/67 77/86/67
f 54/79/68 70/87/68 55/81/68
f 62/80/69 78/88/69 63/82/69
f 56/83/70 70/87/70 71/89/70
f 63/82/71 79/90/71 64/67/71
f 56/83/72 72/91/72 57/68/72
f 65/69/73 79/90/73 80/92/73
f 58/70/74 72/91/74 73/93/74
f 65/69/75 81/94/75 66/71/75
f 59/72/76 73/93/76 74/95/76
f 52/74/77 82/96/77 67/97/77
f 308/98/78 66/71/78 81/94/78
f 59/72/79 75/99/79 60/76/79
f 52/74/80 68/100/80 53/77/80
f 79/90/81 96/101/81 80/92/81
f 73/93/82 88/102/82 89/103/82
f 81/94/83 96/101/83 97/104/83
f 74/95/84 89/103/84 90/105/84
f 67/97/85 82/106/85 83/107/85
f 308/108/86 81/94/86 97/104/86
f 74/95/87 91/109/87 75/99/87
f 67/97/88 84/110/88 68/100/88
f 75/99/89 92/111/89 76/84/89
f 68/100/90 85/112/90 69/85/90
f 77/86/91 92/111/91 93/113/91
f 69/85/92 86/114/92 70/87/92
f 77/86/93 94/115/93 78/88/93
f 71/89/94 86/114/94 87/116/94
f 78/88/95 95/117/95 79/90/95
f 71/89/96 88/102/96 72/91/96
f 84/110/97 100/118/97 85/112/97
f 93/113/98 107/119/98 108/120/98
f 85/112/99 101/121/99 86/114/99
f 93/113/100 109/122/100 94/115/100
f 87/116/101 101/121/101 102/123/101
f 95/117/102 109/122/102 110/124/102
f 87/116/103 103/125/103 88/102/103
f 96/101/104 110/124/104 111/126/104
f 89/103/105 103/125/105 104/127/105
f 96/101/106 112/128/106 97/104/106
f 90/105/107 104/127/107 105/129/107
f 83/107/108 82/130/108 98/131/108
f 308/132/109 97/104/109 112/128/109
f 90/105/110 106/133/110 91/109/110
f 84/110/111 98/131/111 99/134/111
f 91/109/112 107/119/112 92/111/112
f 104/127/113 118/135/113 119/136/113
f 111/126/114 127/137/114 112/128/114
f 105/129/115 119/136/115 120/138/115
f 98/131/116 82/139/116 113/140/116
f 308/141/117 112/128/117 127/137/117
f 105/129/118 121/142/118 106/133/118
f 99/134/119 113/140/119 114/143/119
f 106/133/120 122/144/120 107/119/120
f 355/145/121 490/146/121 356/146/121
f 108/120/122 122/144/122 123/147/122
f 372/148/123 493/149/123 371/149/123
f 108/120/124 124/150/124 109/122/124
f 102/123/125 116/151/125 117/152/125
f 110/124/126 124/150/126 125/153/126
f 102/123/127 118/135/127 103/125/127
f 110/124/128 126/154/128 111/126/128
f 123/147/129 137/155/129 138/156/129
f 115/157/130 131/158/130 116/151/130
f 123/147/131 139/159/131 124/150/131
f 117/152/132 131/158/132 132/160/132
f 125/153/133 139/159/133 140/161/133
f 117/152/134 133/162/134 118/135/134
f 125/153/135 141/163/135 126/154/135
f 119/136/136 133/162/136 134/164/136
f 126/154/137 142/165/137 127/137/137
f 120/138/138 134/164/138 135/166/138
f 113/140/139 82/167/139 128/168/139
f 308/169/140 127/137/140 142/165/140
f 120/138/141 136/170/141 121/142/141
f 113/140/142 129/171/142 114/143/142
f 121/142/143 137/155/143 122/144/143
f 114/143/144 130/172/144 115/157/144
f 142/165/145 156/173/145 157/174/145
f 135/166/146 149/175/146 150/176/146
f 128/168/147 82/177/147 143/178/147
f 308/179/148 142/165/148 157/174/148
f 135/166/149 151/180/149 136/170/149
f 128/168/150 144/181/150 129/171/150
f 136/170/151 152/182/151 137/155/151
f 130/172/152 144/181/152 145/183/152
f 138/156/153 152/182/153 153/184/153
f 130/172/154 146/185/154 131/158/154
f 138/156/155 154/186/155 139/159/155
f 132/160/156 146/185/156 147/187/156
f 140/161/157 154/186/157 155/188/157
f 132/160/158 148/189/158 133/162/158
f 140/161/159 156/173/159 141/163/159
f 134/164/160 148/189/160 149/175/160
f 145/183/161 161/190/161 146/185/161
f 153/184/162 169/191/162 154/186/162
f 147/187/163 161/190/163 162/192/163
f 155/188/164 169/191/164 170/193/164
f 147/187/165 163/194/165 148/189/165
f 155/188/166 171/195/166 156/173/166
f 149/175/167 163/194/167 164/196/167
f 156/173/168 172/197/168 157/174/168
f 150/176/169 164/196/169 165/198/169
f 143/178/170 82/199/170 158/200/170
f 308/201/171 157/174/171 172/197/171
f 150/176/172 166/202/172 151/180/172
f 143/178/173 159/203/173 144/181/173
f 151/180/174 167/204/174 152/182/174
f 145/183/175 159/203/175 160/205/175
f 153/184/176 167/204/176 168/206/176
f 165/198/177 179/207/177 180/208/177
f 158/200/178 82/209/178 173/210/178
f 308/211/179 172/197/179 187/212/179
f 165/198/180 181/213/180 166/202/180
f 158/200/181 174/214/181 159/203/181
f 166/202/182 182/215/182 167/204/182
f 159/203/183 175/216/183 160/205/183
f 168/206/184 182/215/184 183/217/184
f 160/205/185 176/218/185 161/190/185
f 168/206/186 184/219/186 169/191/186
f 162/192/187 176/218/187 177/220/187
f 169/191/188 185/221/188 170/193/188
f 162/192/189 178/222/189 163/194/189
f 171/195/190 185/221/190 186/223/190
f 164/196/191 178/222/191 179/207/191
f 172/197/192 186/223/192 187/212/192
f 183/217/193 199/224/193 184/219/193
f 177/220/194 191/225/194 192/226/194
f 185/221/195 199/224/195 200/227/195
f 177/220/196 193/228/196 178/222/196
f 185/221/197 201/229/197 186/223/197
f 179/207/198 193/228/198 194/230/198
f 186/223/199 202/231/199 187/212/199
f 180/208/200 194/230/200 195/232/200
f 173/210/201 82/233/201 188/234/201
f 308/235/202 187/212/202 202/231/202
f 180/208/203 196/236/203 181/213/203
f 174/214/204 188/234/204 189/237/204
f 181/213/205 197/238/205 182/215/205
f 175/216/206 189/237/206 190/239/206
f 183/217/207 197/238/207 198/240/207
f 175/216/208 191/225/208 176/218/208
f 308/241/209 202/231/209 217/242/209
f 195/232/210 211/243/210 196/236/210
f 188/234/211 204/244/211 189/237/211
f 196/236/212 212/245/212 197/238/212
f 189/237/213 205/246/213 190/239/213
f 198/240/214 212/245/214 213/247/214
f 190/239/215 206/248/215 191/225/215
f 198/240/216 214/249/216 199/224/216
f 192/226/217 206/248/217 207/250/217
f 200/227/218 214/249/218 215/251/218
f 192/226/219 208/252/219 193/228/219
f 200/227/220 216/253/220 201/229/220
f 194/230/221 208/252/221 209/254/221
f 201/229/222 217/242/222 202/231/222
f 195/232/223 209/254/223 210/255/223
f 188/234/224 82/256/224 203/257/224
f 215/251/225 229/258/225 230/259/225
f 267/260/226 524/261/226 268/261/226
f 215/251/227 231/262/227 216/253/227
f 209/254/228 223/263/228 224/264/228
f 216/253/229 232/265/229 217/242/229
f 210/255/230 224/264/230 225/266/230
f 203/257/231 82/267/231 218/268/231
f 308/269/232 217/242/232 232/265/232
f 210/255/233 226/270/233 211/243/233
f 203/257/234 219/271/234 204/244/234
f 211/243/235 227/272/235 212/245/235
f 204/244/236 220/273/236 205/246/236
f 213/247/237 227/272/237 228/274/237
f 205/246/238 221/275/238 206/248/238
f 213/247/239 229/258/239 214/249/239
f 207/250/240 221/275/240 222/276/240
f 218/268/241 234/277/241 219/271/241
f 226/270/242 242/278/242 227/272/242
f 220/273/243 234/277/243 235/279/243
f 228/274/244 242/278/244 243/280/244
f 220/273/245 236/281/245 221/275/245
f 228/274/246 244/282/246 229/258/246
f 222/276/247 236/281/247 237/283/247
f 230/259/248 244/282/248 245/284/248
f 222/276/249 238/285/249 223/263/249
f 230/259/250 246/286/250 231/262/250
f 224/264/251 238/285/251 239/287/251
f 232/265/252 246/286/252 247/288/252
f 225/266/253 239/287/253 240/289/253
f 218/268/254 82/290/254 233/291/254
f 308/292/255 232/265/255 247/288/255
f 256/293/256 538/294/256 540/293/256
f 237/283/257 253/295/257 238/285/257
f 245/284/258 261/296/258 246/286/258
f 239/287/259 253/295/259 254/297/259
f 246/286/260 262/298/260 247/288/260
f 240/289/261 254/297/261 255/299/261
f 233/291/262 82/300/262 248/301/262
f 308/302/263 247/288/263 262/298/263
f 256/293/264 542/303/264 271/303/264
f 233/291/265 249/304/265 234/277/265
f 241/294/266 257/305/266 242/278/266
f 234/277/267 250/306/267 235/279/267
f 243/280/268 257/305/268 258/307/268
f 235/279/269 251/308/269 236/281/269
f 243/280/270 259/309/270 244/282/270
f 237/283/271 251/308/271 252/310/271
f 245/284/272 259/309/272 260/311/272
f 256/293/273 272/312/273 257/305/273
f 249/304/274 265/313/274 250/306/274
f 258/307/275 272/312/275 273/314/275
f 250/306/276 266/315/276 251/308/276
f 258/307/277 274/316/277 259/309/277
f 252/310/278 266/315/278 267/260/278
f 260/311/279 274/316/279 275/317/279
f 252/310/280 268/261/280 253/295/280
f 260/311/281 276/318/281 261/296/281
f 254/297/282 268/261/282 269/319/282
f 261/296/283 277/320/283 262/298/283
f 255/299/284 269/319/284 270/321/284
f 248/301/285 82/322/285 263/323/285
f 308/324/286 262/298/286 277/320/286
f 226/270/287 535/266/287 536/270/287
f 249/304/288 263/323/288 264/325/288
f 275/317/289 291/326/289 276/318/289
f 269/319/290 283/327/290 284/328/290
f 277/320/291 291/326/291 292/329/291
f 270/321/292 284/328/292 285/330/292
f 263/323/293 82/331/293 278/332/293
f 308/333/294 277/320/294 292/329/294
f 270/321/295 286/334/295 271/303/295
f 264/325/296 278/332/296 279/335/296
f 271/303/297 287/336/297 272/312/297
f 264/325/298 280/337/298 265/313/298
f 273/314/299 287/336/299 288/338/299
f 265/313/300 281/339/300 266/315/300
f 273/314/301 289/340/301 274/316/301
f 267/260/302 281/339/302 282/341/302
f 275/317/303 289/340/303 290/342/303
f 208/252/304 522/263/304 223/263/304
f 279/335/305 295/343/305 280/337/305
f 288/338/306 302/344/306 303/345/306
f 280/337/307 296/346/307 281/339/307
f 288/338/308 304/347/308 289/340/308
f 282/341/309 296/346/309 297/348/309
f 290/342/310 304/347/310 305/349/310
f 282/341/311 298/350/311 283/327/311
f 290/342/312 306/351/312 291/326/312
f 284/328/313 298/350/313 299/352/313
f 292/329/314 306/351/314 307/353/314
f 285/330/315 299/352/315 300/354/315
f 278/332/316 82/355/316 293/356/316
f 308/357/317 292/329/317 307/353/317
f 285/330/318 301/358/318 286/334/318
f 278/332/319 294/359/319 279/335/319
f 286/334/320 302/344/320 287/336/320
f 299/352/321 314/360/321 315/361/321
f 306/351/322 323/362/322 307/353/322
f 300/354/323 315/361/323 316/363/323
f 293/356/324 82/364/324 309/365/324
f 308/366/325 307/353/325 323/362/325
f 300/354/326 317/367/326 301/358/326
f 293/356/327 310/368/327 294/359/327
f 301/358/328 318/369/328 302/344/328
f 294/359/329 311/370/329 295/343/329
f 303/345/330 318/369/330 319/371/330
f 295/343/331 312/372/331 296/346/331
f 303/345/332 320/373/332 304/347/332
f 297/348/333 312/372/333 313/374/333
f 305/349/334 320/373/334 321/375/334
f 297/348/335 314/360/335 298/350/335
f 305/349/336 322/376/336 306/351/336
f 319/371/337 333/377/337 334/378/337
f 311/370/338 327/379/338 312/372/338
f 319/371/339 335/380/339 320/373/339
f 312/372/340 328/381/340 313/374/340
f 321/375/341 335/380/341 336/382/341
f 313/374/342 329/383/342 314/360/342
f 321/375/343 337/384/343 322/376/343
f 315/361/344 329/383/344 330/385/344
f 322/376/345 338/386/345 323/362/345
f 316/363/346 330/385/346 331/387/346
f 309/365/347 82/388/347 324/389/347
f 308/390/348 323/362/348 338/386/348
f 316/363/349 332/391/349 317/367/349
f 309/365/350 325/392/350 310/368/350
f 317/367/351 333/377/351 318/369/351
f 310/368/352 326/393/352 311/370/352
f 337/384/353 353/394/353 338/386/353
f 331/387/354 345/395/354 346/396/354
f 324/389/355 82/397/355 339/398/355
f 308/399/356 338/386/356 353/394/356
f 331/387/357 347/400/357 332/391/357
f 324/389/358 340/401/358 325/392/358
f 332/391/359 348/402/359 333/377/359
f 325/392/360 341/403/360 326/393/360
f 334/378/361 348/402/361 349/404/361
f 326/393/362 342/405/362 327/379/362
f 334/378/363 350/406/363 335/380/363
f 328/381/364 342/405/364 343/407/364
f 336/382/365 350/406/365 351/408/365
f 328/381/366 344/409/366 329/383/366
f 336/382/367 352/410/367 337/384/367
f 330/385/368 344/409/368 345/395/368
f 349/404/369 365/411/369 350/406/369
f 343/407/370 357/412/370 358/413/370
f 351/408/371 365/411/371 366/414/371
f 343/407/372 359/415/372 344/409/372
f 351/408/373 367/416/373 352/410/373
f 345/395/374 359/415/374 360/417/374
f 352/410/375 368/418/375 353/394/375
f 346/396/376 360/417/376 361/419/376
f 339/398/377 82/420/377 354/421/377
f 308/422/378 353/394/378 368/418/378
f 346/396/379 362/423/379 347/400/379
f 339/398/380 355/145/380 340/401/380
f 347/400/381 363/424/381 348/402/381
f 341/403/382 355/145/382 356/146/382
f 349/404/383 363/424/383 364/425/383
f 341/403/384 357/412/384 342/405/384
f 354/426/385 82/427/385 369/428/385
f 308/429/386 368/430/386 383/431/386
f 361/432/387 377/433/387 362/434/387
f 354/426/388 370/435/388 355/436/388
f 362/434/389 378/437/389 363/438/389
f 99/134/390 484/118/390 100/118/390
f 364/439/391 378/437/391 379/440/391
f 357/441/392 494/148/392 372/148/392
f 364/439/393 380/442/393 365/443/393
f 358/444/394 372/148/394 373/445/394
f 366/446/395 380/442/395 381/447/395
f 358/444/396 374/448/396 359/449/396
f 366/446/397 382/450/397 367/451/397
f 360/452/398 374/448/398 375/453/398
f 367/451/399 383/431/399 368/430/399
f 361/432/400 375/453/400 376/454/400
f 373/445/401 387/455/401 388/456/401
f 381/447/402 395/457/402 396/458/402
f 373/445/403 389/459/403 374/448/403
f 381/447/404 397/460/404 382/450/404
f 375/453/405 389/459/405 390/461/405
f 382/450/406 398/462/406 383/431/406
f 376/454/407 390/461/407 391/463/407
f 369/428/408 82/464/408 384/465/408
f 308/466/409 383/431/409 398/462/409
f 376/454/410 392/467/410 377/433/410
f 369/428/411 385/468/411 370/435/411
f 377/433/412 393/469/412 378/437/412
f 371/149/413 385/468/413 386/470/413
f 379/440/414 393/469/414 394/471/414
f 371/149/415 387/455/415 372/148/415
f 379/440/416 395/457/416 380/442/416
f 391/463/417 407/472/417 392/467/417
f 385/468/418 399/473/418 400/474/418
f 392/467/419 408/475/419 393/469/419
f 385/468/420 401/476/420 386/470/420
f 394/471/421 408/475/421 409/477/421
f 386/470/422 402/478/422 387/455/422
f 394/471/423 410/479/423 395/457/423
f 388/456/424 402/478/424 403/480/424
f 396/458/425 410/479/425 411/481/425
f 388/456/426 404/482/426 389/459/426
f 397/460/427 411/481/427 412/483/427
f 390/461/428 404/482/428 405/484/428
f 397/460/429 413/485/429 398/462/429
f 391/463/430 405/484/430 406/486/430
f 384/465/431 82/487/431 399/473/431
f 308/488/432 398/462/432 413/485/432
f 411/481/433 425/489/433 426/490/433
f 403/480/434 419/491/434 404/482/434
f 411/481/435 427/492/435 412/483/435
f 405/484/436 419/491/436 420/493/436
f 412/483/437 428/494/437 413/485/437
f 406/486/438 420/493/438 421/495/438
f 399/473/439 82/496/439 414/497/439
f 308/498/440 413/485/440 428/494/440
f 406/486/441 422/499/441 407/472/441
f 399/473/442 415/500/442 400/474/442
f 407/472/443 423/501/443 408/475/443
f 401/476/444 415/500/444 416/502/444
f 409/477/445 423/501/445 424/503/445
f 401/476/446 417/504/446 402/478/446
f 409/477/447 425/489/447 410/479/447
f 403/480/448 417/504/448 418/505/448
f 414/497/449 430/506/449 415/500/449
f 422/499/450 438/507/450 423/501/450
f 416/502/451 430/506/451 431/508/451
f 424/503/452 438/507/452 439/509/452
f 416/502/453 432/510/453 417/504/453
f 424/503/454 440/511/454 425/489/454
f 418/505/455 432/510/455 433/512/455
f 426/490/456 440/511/456 441/513/456
f 418/505/457 434/514/457 419/491/457
f 426/490/458 442/515/458 427/492/458
f 420/493/459 434/514/459 435/516/459
f 427/492/460 443/517/460 428/494/460
f 421/495/461 435/516/461 436/518/461
f 414/497/462 82/519/462 429/520/462
f 308/521/463 428/494/463 443/517/463
f 421/495/464 437/522/464 422/499/464
f 433/512/465 449/523/465 434/514/465
f 441/513/466 457/524/466 442/515/466
f 435/516/467 449/523/467 450/525/467
f 442/515/468 458/526/468 443/517/468
f 436/518/469 450/525/469 451/527/469
f 429/520/470 82/528/470 444/529/470
f 308/530/471 443/517/471 458/526/471
f 436/518/472 452/531/472 437/522/472
f 430/506/473 444/529/473 445/532/473
f 437/522/474 453/533/474 438/507/474
f 430/506/475 446/534/475 431/508/475
f 439/509/476 453/533/476 454/535/476
f 431/508/477 447/536/477 432/510/477
f 439/509/478 455/537/478 440/511/478
f 433/512/479 447/536/479 448/538/479
f 441/513/480 455/537/480 456/539/480
f 452/531/481 468/540/481 453/533/481
f 446/534/482 460/541/482 461/542/482
f 454/535/483 468/540/483 469/543/483
f 446/534/484 462/544/484 447/536/484
f 454/535/485 470/545/485 455/537/485
f 448/538/486 462/544/486 463/546/486
f 456/539/487 470/545/487 471/547/487
f 448/538/488 464/548/488 449/523/488
f 456/539/489 472/549/489 457/524/489
f 450/525/490 464/548/490 465/550/490
f 458/526/491 472/549/491 473/551/491
f 451/527/492 465/550/492 466/552/492
f 444/529/493 82/553/493 459/554/493
f 308/555/494 458/526/494 473/551/494
f 451/527/495 467/556/495 452/531/495
f 444/529/496 460/541/496 445/532/496
f 471/547/497 481/3/497 472/549/497
f 465/550/498 477/32/498 3/4/498
f 472/549/499 482/8/499 473/551/499
f 466/552/500 3/4/500 4/10/500
f 459/554/501 82/557/501 474/11/501
f 308/558/502 473/551/502 482/8/502
f 466/552/503 5/16/503 467/556/503
f 460/541/504 474/11/504 475/17/504
f 467/556/505 478/20/505 468/540/505
f 461/542/506 475/17/506 1/21/506
f 468/540/507 6/24/507 469/543/507
f 462/544/508 1/21/508 476/25/508
f 469/543/509 479/28/509 470/545/509
f 463/546/510 476/25/510 2/29/510
f 471/547/511 479/28/511 480/1/511
f 464/548/512 2/29/512 477/32/512
f 489/436/513 504/435/513 501/436/513
f 486/143/514 495/134/514 483/134/514
f 490/146/515 501/145/515 502/146/515
f 484/118/516 495/134/516 496/118/516
f 101/121/517 484/118/517 485/121/517
f 99/134/518 486/143/518 483/134/518
f 114/143/519 487/157/519 486/143/519
f 116/151/520 485/121/520 488/151/520
f 357/412/521 490/146/521 491/412/521
f 370/435/522 489/436/522 355/436/522
f 370/435/523 493/149/523 492/435/523
f 116/151/524 487/157/524 115/157/524
f 495/134/525 510/143/525 507/134/525
f 501/145/526 514/146/526 502/146/526
f 495/134/527 508/118/527 496/118/527
f 506/148/528 517/149/528 505/149/528
f 484/118/529 497/121/529 485/121/529
f 490/146/530 503/412/530 491/412/530
f 487/157/531 498/143/531 486/143/531
f 493/149/532 504/435/532 492/435/532
f 488/151/533 497/121/533 500/151/533
f 491/441/534 506/148/534 494/148/534
f 487/157/535 500/151/535 499/157/535
f 493/149/536 506/148/536 505/149/536
f 508/118/537 510/143/537 511/157/537
f 509/121/538 511/157/538 512/151/538
f 513/436/539 517/149/539 514/559/539
f 514/559/540 518/148/540 515/441/540
f 501/436/541 516/435/541 513/436/541
f 497/121/542 508/118/542 509/121/542
f 503/412/543 514/146/543 515/412/543
f 498/143/544 511/157/544 510/143/544
f 504/435/545 517/149/545 516/435/545
f 500/151/546 509/121/546 512/151/546
f 503/441/547 518/148/547 506/148/547
f 500/151/548 511/157/548 499/157/548
f 521/276/549 527/250/549 519/250/549
f 525/341/550 534/327/550 533/341/550
f 282/341/551 523/260/551 267/260/551
f 283/327/552 524/261/552 526/327/552
f 282/341/553 526/327/553 525/341/553
f 207/250/554 520/252/554 208/252/554
f 222/276/555 519/250/555 207/250/555
f 222/276/556 522/263/556 521/276/556
f 527/250/557 530/263/557 528/252/557
f 531/260/558 534/327/558 532/261/558
f 521/276/559 530/263/559 529/276/559
f 524/261/560 534/327/560 526/327/560
f 523/260/561 532/261/561 524/261/561
f 520/252/562 530/263/562 522/263/562
f 519/250/563 528/252/563 520/252/563
f 523/260/564 533/341/564 531/260/564
f 535/266/565 538/294/565 536/270/565
f 537/289/566 540/293/566 538/294/566
f 539/299/567 542/303/567 540/293/567
f 255/299/568 537/289/568 240/289/568
f 271/303/569 541/321/569 270/321/569
f 255/299/570 541/321/570 539/299/570
f 241/294/571 536/270/571 538/294/571
f 240/289/572 535/266/572 225/266/572
f 480/1/1 19/31/1 20/2/1
f 3/4/2 477/32/2 12/5/2
f 481/3/3 20/2/3 21/7/3
f 3/4/573 13/6/573 14/9/573
f 4/10/574 14/9/574 15/15/574
f 475/17/8 474/11/8 7/13/8
f 5/16/9 15/15/9 16/19/9
f 1/21/10 475/17/10 8/18/10
f 478/20/11 16/19/11 17/23/11
f 476/25/12 1/21/12 9/22/12
f 6/24/13 17/23/13 18/27/13
f 2/29/14 476/25/14 10/26/14
f 479/28/15 18/27/15 19/31/15
f 477/32/16 2/29/16 11/30/16
f 10/26/17 25/49/17 26/33/17
f 19/31/18 18/27/18 33/34/18
f 11/30/19 26/33/19 27/36/19
f 20/2/20 19/31/20 34/35/20
f 13/6/21 12/5/21 27/36/21
f 20/2/22 35/37/22 36/39/22
f 13/6/23 28/38/23 29/40/23
f 14/9/26 29/40/26 30/44/26
f 7/13/27 22/42/27 23/45/27
f 15/15/28 30/44/28 31/46/28
f 8/18/29 23/45/29 24/47/29
f 16/19/30 31/46/30 32/48/30
f 9/22/31 24/47/31 25/49/31
f 17/23/32 32/48/32 33/34/32
f 30/44/33 29/40/33 44/50/33
f 22/42/34 37/65/34 38/52/34
f 30/44/35 45/51/35 46/53/35
f 23/45/575 38/52/575 39/54/575
f 32/48/37 31/46/37 46/53/37
f 24/47/38 39/54/38 40/56/38
f 33/34/39 32/48/39 47/55/39
f 25/49/40 40/56/40 41/58/40
f 34/35/41 33/34/41 48/57/41
f 26/33/42 41/58/42 42/60/42
f 34/35/576 49/59/576 50/61/576
f 27/36/44 42/60/44 43/62/44
f 35/37/45 50/61/45 51/63/45
f 28/38/46 43/62/46 44/50/46
f 48/57/49 63/82/49 64/67/49
f 41/58/50 56/83/50 57/68/50
f 49/59/51 64/67/51 65/69/51
f 43/62/52 42/60/52 57/68/52
f 50/61/53 65/69/53 66/71/53
f 44/50/54 43/62/54 58/70/54
f 44/50/57 59/72/57 60/76/57
f 37/65/58 52/74/58 53/77/58
f 45/51/59 60/76/59 61/78/59
f 38/52/60 53/77/60 54/79/60
f 47/55/61 46/53/61 61/78/61
f 39/54/62 54/79/62 55/81/62
f 47/55/63 62/80/63 63/82/63
f 40/56/64 55/81/64 56/83/64
f 60/76/65 75/99/65 76/84/65
f 53/77/66 68/100/66 69/85/66
f 62/80/67 61/78/67 76/84/67
f 54/79/68 69/85/68 70/87/68
f 62/80/69 77/86/69 78/88/69
f 56/83/70 55/81/70 70/87/70
f 63/82/71 78/88/71 79/90/71
f 56/83/72 71/89/72 72/91/72
f 65/69/73 64/67/73 79/90/73
f 58/70/74 57/68/74 72/91/74
f 65/69/577 80/92/577 81/94/577
f 59/72/76 58/70/76 73/93/76
f 59/72/79 74/95/79 75/99/79
f 52/74/80 67/97/80 68/100/80
f 79/90/81 95/117/81 96/101/81
f 73/93/82 72/91/82 88/102/82
f 81/94/83 80/92/83 96/101/83
f 74/95/84 73/93/84 89/103/84
f 74/95/87 90/105/87 91/109/87
f 67/97/88 83/107/88 84/110/88
f 75/99/89 91/109/89 92/111/89
f 68/100/90 84/110/90 85/112/90
f 77/86/91 76/84/91 92/111/91
f 69/85/92 85/112/92 86/114/92
f 77/86/93 93/113/93 94/115/93
f 71/89/94 70/87/94 86/114/94
f 78/88/95 94/115/95 95/117/95
f 71/89/96 87/116/96 88/102/96
f 84/110/97 99/134/97 100/118/97
f 93/113/98 92/111/98 107/119/98
f 85/112/99 100/118/99 101/121/99
f 93/113/100 108/120/100 109/122/100
f 87/116/101 86/114/101 101/121/101
f 95/117/102 94/115/102 109/122/102
f 87/116/103 102/123/103 103/125/103
f 96/101/104 95/117/104 110/124/104
f 89/103/105 88/102/105 103/125/105
f 96/101/106 111/126/106 112/128/106
f 90/105/107 89/103/107 104/127/107
f 90/105/110 105/129/110 106/133/110
f 84/110/111 83/107/111 98/131/111
f 91/109/112 106/133/112 107/119/112
f 104/127/113 103/125/113 118/135/113
f 111/126/114 126/154/114 127/137/114
f 105/129/115 104/127/115 119/136/115
f 105/129/118 120/138/118 121/142/118
f 99/134/119 98/131/119 113/140/119
f 106/133/120 121/142/120 122/144/120
f 355/145/578 489/145/578 490/146/578
f 108/120/122 107/119/122 122/144/122
f 372/148/579 494/148/579 493/149/579
f 108/120/124 123/147/124 124/150/124
f 102/123/125 101/121/125 116/151/125
f 110/124/126 109/122/126 124/150/126
f 102/123/127 117/152/127 118/135/127
f 110/124/128 125/153/128 126/154/128
f 123/147/129 122/144/129 137/155/129
f 115/157/130 130/172/130 131/158/130
f 123/147/131 138/156/131 139/159/131
f 117/152/132 116/151/132 131/158/132
f 125/153/133 124/150/133 139/159/133
f 117/152/134 132/160/134 133/162/134
f 125/153/135 140/161/135 141/163/135
f 119/136/136 118/135/136 133/162/136
f 126/154/137 141/163/137 142/165/137
f 120/138/138 119/136/138 134/164/138
f 120/138/141 135/166/141 136/170/141
f 113/140/142 128/168/142 129/171/142
f 121/142/143 136/170/143 137/155/143
f 114/143/144 129/171/144 130/172/144
f 142/165/145 141/163/145 156/173/145
f 135/166/146 134/164/146 149/175/146
f 135/166/149 150/176/149 151/180/149
f 128/168/150 143/178/150 144/181/150
f 136/170/151 151/180/151 152/182/151
f 130/172/152 129/171/152 144/181/152
f 138/156/153 137/155/153 152/182/153
f 130/172/154 145/183/154 146/185/154
f 138/156/155 153/184/155 154/186/155
f 132/160/156 131/158/156 146/185/156
f 140/161/157 139/159/157 154/186/157
f 132/160/158 147/187/158 148/189/158
f 140/161/159 155/188/159 156/173/159
f 134/164/160 133/162/160 148/189/160
f 145/183/161 160/205/161 161/190/161
f 153/184/162 168/206/162 169/191/162
f 147/187/163 146/185/163 161/190/163
f 155/188/164 154/186/164 169/191/164
f 147/187/165 162/192/165 163/194/165
f 155/188/580 170/193/580 171/195/580
f 149/175/167 148/189/167 163/194/167
f 156/173/168 171/195/168 172/197/168
f 150/176/169 149/175/169 164/196/169
f 150/176/172 165/198/172 166/202/172
f 143/178/173 158/200/173 159/203/173
f 151/180/174 166/202/174 167/204/174
f 145/183/581 144/181/581 159/203/581
f 153/184/176 152/182/176 167/204/176
f 165/198/177 164/196/177 179/207/177
f 165/198/180 180/208/180 181/213/180
f 158/200/181 173/210/181 174/214/181
f 166/202/182 181/213/182 182/215/182
f 159/203/183 174/214/183 175/216/183
f 168/206/184 167/204/184 182/215/184
f 160/205/185 175/216/185 176/218/185
f 168/206/186 183/217/186 184/219/186
f 162/192/187 161/190/187 176/218/187
f 169/191/188 184/219/188 185/221/188
f 162/192/189 177/220/189 178/222/189
f 171/195/190 170/193/190 185/221/190
f 164/196/191 163/194/191 178/222/191
f 172/197/192 171/195/192 186/223/192
f 183/217/193 198/240/193 199/224/193
f 177/220/194 176/218/194 191/225/194
f 185/221/195 184/219/195 199/224/195
f 177/220/196 192/226/196 193/228/196
f 185/221/197 200/227/197 201/229/197
f 179/207/198 178/222/198 193/228/198
f 186/223/199 201/229/199 202/231/199
f 180/208/200 179/207/200 194/230/200
f 180/208/203 195/232/203 196/236/203
f 174/214/204 173/210/204 188/234/204
f 181/213/205 196/236/205 197/238/205
f 175/216/206 174/214/206 189/237/206
f 183/217/207 182/215/207 197/238/207
f 175/216/208 190/239/208 191/225/208
f 195/232/210 210/255/210 211/243/210
f 188/234/211 203/257/211 204/244/211
f 196/236/212 211/243/212 212/245/212
f 189/237/213 204/244/213 205/246/213
f 198/240/214 197/238/214 212/245/214
f 190/239/215 205/246/215 206/248/215
f 198/240/216 213/247/216 214/249/216
f 192/226/217 191/225/217 206/248/217
f 200/227/218 199/224/218 214/249/218
f 192/226/219 207/250/219 208/252/219
f 200/227/582 215/251/582 216/253/582
f 194/230/221 193/228/221 208/252/221
f 201/229/222 216/253/222 217/242/222
f 195/232/223 194/230/223 209/254/223
f 215/251/225 214/249/225 229/258/225
f 267/260/226 523/260/226 524/261/226
f 215/251/227 230/259/227 231/262/227
f 209/254/228 208/252/228 223/263/228
f 216/253/229 231/262/229 232/265/229
f 210/255/230 209/254/230 224/264/230
f 210/255/233 225/266/233 226/270/233
f 203/257/234 218/268/234 219/271/234
f 211/243/235 226/270/235 227/272/235
f 204/244/236 219/271/236 220/273/236
f 213/247/237 212/245/237 227/272/237
f 205/246/238 220/273/238 221/275/238
f 213/247/239 228/274/239 229/258/239
f 207/250/240 206/248/240 221/275/240
f 218/268/241 233/291/241 234/277/241
f 226/270/242 241/294/242 242/278/242
f 220/273/243 219/271/243 234/277/243
f 228/274/244 227/272/244 242/278/244
f 220/273/245 235/279/245 236/281/245
f 228/274/246 243/280/246 244/282/246
f 222/276/247 221/275/247 236/281/247
f 230/259/248 229/258/248 244/282/248
f 222/276/249 237/283/249 238/285/249
f 230/259/250 245/284/250 246/286/250
f 224/264/251 223/263/251 238/285/251
f 232/265/252 231/262/252 246/286/252
f 225/266/253 224/264/253 239/287/253
f 256/293/256 241/294/256 538/294/256
f 237/283/257 252/310/257 253/295/257
f 245/284/258 260/311/258 261/296/258
f 239/287/259 238/285/259 253/295/259
f 246/286/260 261/296/260 262/298/260
f 240/289/583 239/287/583 254/297/583
f 256/293/264 540/293/264 542/303/264
f 233/291/265 248/301/265 249/304/265
f 241/294/266 256/293/266 257/305/266
f 234/277/267 249/304/267 250/306/267
f 243/280/268 242/278/268 257/305/268
f 235/279/269 250/306/269 251/308/269
f 243/280/270 258/307/270 259/309/270
f 237/283/271 236/281/271 251/308/271
f 245/284/272 244/282/272 259/309/272
f 256/293/273 271/303/273 272/312/273
f 249/304/274 264/325/274 265/313/274
f 258/307/275 257/305/275 272/312/275
f 250/306/276 265/313/276 266/315/276
f 258/307/277 273/314/277 274/316/277
f 252/310/278 251/308/278 266/315/278
f 260/311/279 259/309/279 274/316/279
f 252/310/280 267/260/280 268/261/280
f 260/311/281 275/317/281 276/318/281
f 254/297/282 253/295/282 268/261/282
f 261/296/283 276/318/283 277/320/283
f 255/299/284 254/297/284 269/319/284
f 226/270/287 225/266/287 535/266/287
f 249/304/288 248/301/288 263/323/288
f 275/317/584 290/342/584 291/326/584
f 269/319/290 268/261/290 283/327/290
f 277/320/291 276/318/291 291/326/291
f 270/321/292 269/319/292 284/328/292
f 270/321/295 285/330/295 286/334/295
f 264/325/296 263/323/296 278/332/296
f 271/303/297 286/334/297 287/336/297
f 264/325/585 279/335/585 280/337/585
f 273/314/299 272/312/299 287/336/299
f 265/313/300 280/337/300 281/339/300
f 273/314/301 288/338/301 289/340/301
f 267/260/302 266/315/302 281/339/302
f 275/317/303 274/316/303 289/340/303
f 208/252/304 520/252/304 522/263/304
f 279/335/305 294/359/305 295/343/305
f 288/338/306 287/336/306 302/344/306
f 280/337/307 295/343/307 296/346/307
f 288/338/308 303/345/308 304/347/308
f 282/341/309 281/339/309 296/346/309
f 290/342/310 289/340/310 304/347/310
f 282/341/311 297/348/311 298/350/311
f 290/342/312 305/349/312 306/351/312
f 284/328/313 283/327/313 298/350/313
f 292/329/314 291/326/314 306/351/314
f 285/330/315 284/328/315 299/352/315
f 285/330/318 300/354/318 301/358/318
f 278/332/319 293/356/319 294/359/319
f 286/334/320 301/358/320 302/344/320
f 299/352/321 298/350/321 314/360/321
f 306/351/586 322/376/586 323/362/586
f 300/354/323 299/352/323 315/361/323
f 300/354/326 316/363/326 317/367/326
f 293/356/327 309/365/327 310/368/327
f 301/358/328 317/367/328 318/369/328
f 294/359/329 310/368/329 311/370/329
f 303/345/330 302/344/330 318/369/330
f 295/343/331 311/370/331 312/372/331
f 303/345/332 319/371/332 320/373/332
f 297/348/333 296/346/333 312/372/333
f 305/349/334 304/347/334 320/373/334
f 297/348/335 313/374/335 314/360/335
f 305/349/336 321/375/336 322/376/336
f 319/371/337 318/369/337 333/377/337
f 311/370/338 326/393/338 327/379/338
f 319/371/339 334/378/339 335/380/339
f 312/372/340 327/379/340 328/381/340
f 321/375/341 320/373/341 335/380/341
f 313/374/342 328/381/342 329/383/342
f 321/375/587 336/382/587 337/384/587
f 315/361/344 314/360/344 329/383/344
f 322/376/345 337/384/345 338/386/345
f 316/363/346 315/361/346 330/385/346
f 316/363/349 331/387/349 332/391/349
f 309/365/350 324/389/350 325/392/350
f 317/367/351 332/391/351 333/377/351
f 310/368/352 325/392/352 326/393/352
f 337/384/353 352/410/353 353/394/353
f 331/387/354 330/385/354 345/395/354
f 331/387/357 346/396/357 347/400/357
f 324/389/358 339/398/358 340/401/358
f 332/391/359 347/400/359 348/402/359
f 325/392/360 340/401/360 341/403/360
f 334/378/361 333/377/361 348/402/361
f 326/393/362 341/403/362 342/405/362
f 334/378/363 349/404/363 350/406/363
f 328/381/364 327/379/364 342/405/364
f 336/382/365 335/380/365 350/406/365
f 328/381/366 343/407/366 344/409/366
f 336/382/367 351/408/367 352/410/367
f 330/385/368 329/383/368 344/409/368
f 349/404/369 364/425/369 365/411/369
f 343/407/370 342/405/370 357/412/370
f 351/408/371 350/406/371 365/411/371
f 343/407/372 358/413/372 359/415/372
f 351/408/373 366/414/373 367/416/373
f 345/395/374 344/409/374 359/415/374
f 352/410/375 367/416/375 368/418/375
f 346/396/588 345/395/588 360/417/588
f 346/396/589 361/419/589 362/423/589
f 339/398/380 354/421/380 355/145/380
f 347/400/381 362/423/381 363/424/381
f 341/403/382 340/401/382 355/145/382
f 349/404/383 348/402/383 363/424/383
f 341/403/384 356/146/384 357/412/384
f 361/432/590 376/454/590 377/433/590
f 354/426/388 369/428/388 370/435/388
f 362/434/389 377/433/389 378/437/389
f 99/134/591 483/134/591 484/118/591
f 364/439/391 363/438/391 378/437/391
f 357/441/592 491/441/592 494/148/592
f 364/439/393 379/440/393 380/442/393
f 358/444/394 357/441/394 372/148/394
f 366/446/395 365/443/395 380/442/395
f 358/444/396 373/445/396 374/448/396
f 366/446/397 381/447/397 382/450/397
f 360/452/398 359/449/398 374/448/398
f 367/451/399 382/450/399 383/431/399
f 361/432/593 360/452/593 375/453/593
f 373/445/401 372/148/401 387/455/401
f 381/447/402 380/442/402 395/457/402
f 373/445/403 388/456/403 389/459/403
f 381/447/404 396/458/404 397/460/404
f 375/453/405 374/448/405 389/459/405
f 382/450/406 397/460/406 398/462/406
f 376/454/407 375/453/407 390/461/407
f 376/454/410 391/463/410 392/467/410
f 369/428/411 384/465/411 385/468/411
f 377/433/412 392/467/412 393/469/412
f 371/149/413 370/435/413 385/468/413
f 379/440/414 378/437/414 393/469/414
f 371/149/415 386/470/415 387/455/415
f 379/440/416 394/471/416 395/457/416
f 391/463/417 406/486/417 407/472/417
f 385/468/418 384/465/418 399/473/418
f 392/467/419 407/472/419 408/475/419
f 385/468/420 400/474/420 401/476/420
f 394/471/421 393/469/421 408/475/421
f 386/470/422 401/476/422 402/478/422
f 394/471/423 409/477/423 410/479/423
f 388/456/424 387/455/424 402/478/424
f 396/458/425 395/457/425 410/479/425
f 388/456/426 403/480/426 404/482/426
f 397/460/427 396/458/427 411/481/427
f 390/461/428 389/459/428 404/482/428
f 397/460/429 412/483/429 413/485/429
f 391/463/430 390/461/430 405/484/430
f 411/481/433 410/479/433 425/489/433
f 403/480/434 418/505/434 419/491/434
f 411/481/435 426/490/435 427/492/435
f 405/484/436 404/482/436 419/491/436
f 412/483/437 427/492/437 428/494/437
f 406/486/438 405/484/438 420/493/438
f 406/486/441 421/495/441 422/499/441
f 399/473/442 414/497/442 415/500/442
f 407/472/443 422/499/443 423/501/443
f 401/476/444 400/474/444 415/500/444
f 409/477/445 408/475/445 423/501/445
f 401/476/446 416/502/446 417/504/446
f 409/477/447 424/503/447 425/489/447
f 403/480/448 402/478/448 417/504/448
f 414/497/449 429/520/449 430/506/449
f 422/499/450 437/522/450 438/507/450
f 416/502/451 415/500/451 430/506/451
f 424/503/452 423/501/452 438/507/452
f 416/502/453 431/508/453 432/510/453
f 424/503/454 439/509/454 440/511/454
f 418/505/455 417/504/455 432/510/455
f 426/490/456 425/489/456 440/511/456
f 418/505/457 433/512/457 434/514/457
f 426/490/458 441/513/458 442/515/458
f 420/493/459 419/491/459 434/514/459
f 427/492/460 442/515/460 443/517/460
f 421/495/461 420/493/461 435/516/461
f 421/495/464 436/518/464 437/522/464
f 433/512/465 448/538/465 449/523/465
f 441/513/466 456/539/466 457/524/466
f 435/516/467 434/514/467 449/523/467
f 442/515/468 457/524/468 458/526/468
f 436/518/469 435/516/469 450/525/469
f 436/518/472 451/527/472 452/531/472
f 430/506/473 429/520/473 444/529/473
f 437/522/474 452/531/474 453/533/474
f 430/506/475 445/532/475 446/534/475
f 439/509/476 438/507/476 453/533/476
f 431/508/477 446/534/477 447/536/477
f 439/509/478 454/535/478 455/537/478
f 433/512/479 432/510/479 447/536/479
f 441/513/480 440/511/480 455/537/480
f 452/531/481 467/556/481 468/540/481
f 446/534/482 445/532/482 460/541/482
f 454/535/483 453/533/483 468/540/483
f 446/534/484 461/542/484 462/544/484
f 454/535/485 469/543/485 470/545/485
f 448/538/486 447/536/486 462/544/486
f 456/539/487 455/537/487 470/545/487
f 448/538/488 463/546/488 464/548/488
f 456/539/489 471/547/489 472/549/489
f 450/525/490 449/523/490 464/548/490
f 458/526/491 457/524/491 472/549/491
f 451/527/492 450/525/492 465/550/492
f 451/527/495 466/552/495 467/556/495
f 444/529/496 459/554/496 460/541/496
f 471/547/497 480/1/497 481/3/497
f 465/550/498 464/548/498 477/32/498
f 472/549/499 481/3/499 482/8/499
f 466/552/500 465/550/500 3/4/500
f 466/552/503 4/10/503 5/16/503
f 460/541/504 459/554/504 474/11/504
f 467/556/505 5/16/505 478/20/505
f 461/542/506 460/541/506 475/17/506
f 468/540/507 478/20/507 6/24/507
f 462/544/508 461/542/508 1/21/508
f 469/543/509 6/24/509 479/28/509
f 463/546/510 462/544/510 476/25/510
f 471/547/511 470/545/511 479/28/511
f 464/548/512 463/546/512 2/29/512
f 489/436/513 492/435/513 504/435/513
f 486/143/514 498/143/514 495/134/514
f 490/146/515 489/145/515 501/145/515
f 484/118/516 483/134/516 495/134/516
f 101/121/594 100/118/594 484/118/594
f 99/134/595 114/143/595 486/143/595
f 114/143/596 115/157/596 487/157/596
f 116/151/597 101/121/597 485/121/597
f 357/412/598 356/146/598 490/146/598
f 370/435/599 492/435/599 489/436/599
f 370/435/600 371/149/600 493/149/600
f 116/151/601 488/151/601 487/157/601
f 495/134/525 498/143/525 510/143/525
f 501/145/526 513/145/526 514/146/526
f 495/134/527 507/134/527 508/118/527
f 506/148/528 518/148/528 517/149/528
f 484/118/529 496/118/529 497/121/529
f 490/146/530 502/146/530 503/412/530
f 487/157/531 499/157/531 498/143/531
f 493/149/532 505/149/532 504/435/532
f 488/151/533 485/121/533 497/121/533
f 491/441/602 503/441/602 506/148/602
f 487/157/535 488/151/535 500/151/535
f 493/149/536 494/148/536 506/148/536
f 508/118/537 507/134/537 510/143/537
f 509/121/538 508/118/538 511/157/538
f 513/436/539 516/435/539 517/149/539
f 514/559/540 517/149/540 518/148/540
f 501/436/541 504/435/541 516/435/541
f 497/121/542 496/118/542 508/118/542
f 503/412/543 502/146/543 514/146/543
f 498/143/544 499/157/544 511/157/544
f 504/435/545 505/149/545 517/149/545
f 500/151/546 497/121/546 509/121/546
f 503/441/547 515/441/547 518/148/547
f 500/151/548 512/151/548 511/157/548
f 521/276/549 529/276/549 527/250/549
f 525/341/550 526/327/550 534/327/550
f 282/341/551 525/341/551 523/260/551
f 283/327/552 268/261/552 524/261/552
f 282/341/553 283/327/553 526/327/553
f 207/250/554 519/250/554 520/252/554
f 222/276/555 521/276/555 519/250/555
f 222/276/556 223/263/556 522/263/556
f 527/250/557 529/276/557 530/263/557
f 531/260/558 533/341/558 534/327/558
f 521/276/559 522/263/559 530/263/559
f 524/261/560 532/261/560 534/327/560
f 523/260/561 531/260/561 532/261/561
f 520/252/562 528/252/562 530/263/562
f 519/250/563 527/250/563 528/252/563
f 523/260/564 525/341/564 533/341/564
f 535/266/603 537/289/603 538/294/603
f 537/289/566 539/299/566 540/293/566
f 539/299/567 541/321/567 542/303/567
f 255/299/568 539/299/568 537/289/568
f 271/303/569 542/303/569 541/321/569
f 255/299/570 270/321/570 541/321/570
f 241/294/571 226/270/571 536/270/571
f 240/289/572 537/289/572 535/266/572
