# Blender 3.6.2
# www.blender.org
mtllib player.mtl
o Cube
v -0.151569 0.954778 -0.069657
v -0.148184 0.956018 0.077977
v -0.202840 1.141667 -0.059255
v -0.196972 1.135684 0.078076
v -0.070896 0.731462 -0.031646
v -0.068913 0.751548 0.062300
v -0.290265 1.069166 -0.020552
v -0.272434 1.004075 -0.021758
v -0.270072 1.003472 0.045699
v -0.287904 1.068563 0.046904
v -0.165480 1.194032 0.051167
v -0.172827 1.216262 -0.019739
v -0.195422 1.253844 0.092719
v -0.206318 1.290448 0.009645
v -0.213039 1.348500 0.131824
v -0.222870 1.381529 0.056863
v -0.276983 1.268519 0.093619
v -0.284357 1.293291 0.037398
v -0.287809 1.327508 0.121031
v -0.295182 1.352280 0.064810
v -0.182490 1.061073 -0.081894
v -0.161078 0.922250 0.001568
v -0.176109 1.059445 0.100406
v -0.223774 1.152488 0.010850
v -0.121247 1.158573 -0.077311
v -0.113990 1.151070 0.090151
v -0.069097 0.970422 -0.090735
v -0.064556 0.973121 0.096247
v -0.081445 0.724230 0.020064
v -0.010777 0.735945 -0.038118
v -0.007892 0.756350 0.069793
v -0.085846 0.838654 0.059430
v -0.087832 0.814419 -0.063080
v -0.286060 1.035464 -0.028401
v -0.273751 0.995419 0.011983
v -0.283182 1.034730 0.053837
v -0.295491 1.074774 0.013453
v -0.259416 1.106058 0.074712
v -0.225725 0.981160 0.072757
v -0.230101 0.982276 -0.052244
v -0.263783 1.107214 -0.049627
v -0.183052 1.202410 0.016338
v -0.137216 1.227890 -0.034848
v -0.127001 1.197169 0.062995
v -0.179026 1.185242 -0.037696
v -0.173292 1.173532 0.057129
v -0.212283 1.255407 0.045304
v -0.151790 1.307788 -0.001666
v -0.138339 1.262599 0.100891
v -0.179431 1.249302 -0.003940
v -0.170875 1.221360 0.064472
v -0.220661 1.379762 0.101197
v -0.166720 1.392923 0.054519
v -0.156888 1.359894 0.129480
v -0.203626 1.301134 0.127716
v -0.217355 1.347256 0.023041
v -0.284663 1.273391 0.062721
v -0.297861 1.345307 0.096140
v -0.286767 1.294248 0.113701
v -0.295757 1.324449 0.045160
v -0.270515 1.369365 0.059696
v -0.261105 1.337749 0.131447
v -0.247346 1.260694 0.096251
v -0.256878 1.292717 0.023574
v -0.248011 1.046051 -0.073652
v -0.242055 1.044531 0.096498
v -0.029035 0.849378 0.083154
v -0.100383 1.081851 -0.087279
v -0.093813 1.080175 0.100406
v 0.004748 0.709247 -0.000321
v -0.109155 0.823066 -0.001651
v -0.031190 0.822470 -0.081353
v -0.269812 1.128418 0.012758
v -0.221526 0.958513 0.007728
v -0.131180 1.198639 -0.056349
v -0.123490 1.183193 0.072223
v -0.193996 1.176694 0.010543
v -0.147321 1.312048 0.126091
v -0.143505 1.262675 -0.017355
v -0.131745 1.224194 0.075614
v -0.188590 1.231535 0.030392
v -0.164510 1.391156 0.098853
v -0.268918 1.367609 0.102171
v -0.161256 1.358862 0.019847
v -0.302131 1.307143 0.079884
v -0.252873 1.293698 0.127440
v -0.251082 1.262088 0.053336
v -0.265852 1.337304 0.028475
v -0.442064 0.837298 0.085787
v -0.419567 0.812871 0.075458
v -0.387588 0.799050 0.075117
v -0.372941 0.798891 0.105820
v -0.364909 0.814138 0.136601
v -0.391757 0.831306 0.150353
v -0.419467 0.852320 0.147594
v -0.438981 0.845337 0.119566
v -0.428033 0.818227 0.123229
v -0.427555 0.826696 0.102890
v -0.417624 0.814250 0.096800
v -0.402657 0.807219 0.094134
v -0.393365 0.807774 0.106857
v -0.387244 0.815902 0.120740
v -0.398797 0.824930 0.129264
v -0.412818 0.835232 0.130713
v -0.424015 0.831195 0.118768
v -0.436249 0.818489 0.134733
v -0.424123 0.805305 0.112367
v -0.414112 0.798074 0.100347
v -0.398234 0.800063 0.103653
v -0.385954 0.809542 0.109829
v -0.388989 0.819434 0.122611
v -0.399490 0.829768 0.131817
v -0.414082 0.824845 0.131665
v -0.432770 0.798874 0.116545
v -0.419965 0.788520 0.094989
v -0.393440 0.791997 0.095848
v -0.372047 0.807030 0.101377
v -0.373689 0.821654 0.123318
v -0.387835 0.837157 0.140301
v -0.413023 0.828462 0.144154
v -0.371169 0.591070 0.331906
v -0.367690 0.571455 0.313718
v -0.355102 0.561215 0.292169
v -0.328356 0.564646 0.292881
v -0.306641 0.579900 0.297725
v -0.308609 0.594235 0.320491
v -0.322707 0.609755 0.337462
v -0.347943 0.601044 0.341327
v -0.336564 0.577305 0.321907
v -0.357604 0.506218 0.305417
v -0.344245 0.507931 0.305773
v -0.348345 0.514254 0.320271
v -0.363892 0.511332 0.316181
v -0.281793 0.532011 0.312933
v -0.270947 0.539630 0.315352
v -0.271929 0.546790 0.326724
v -0.285893 0.538334 0.327431
v -0.306598 0.576807 0.378640
v -0.292634 0.585263 0.377933
v -0.299676 0.593015 0.386410
v -0.312281 0.588664 0.388340
v -0.384596 0.549806 0.367390
v -0.369049 0.552728 0.371481
v -0.374733 0.564585 0.381181
v -0.386334 0.559603 0.376475
v -0.337763 0.492953 0.336683
v -0.343549 0.492211 0.336529
v -0.339538 0.495691 0.342962
v -0.346271 0.494426 0.341190
v -0.277930 0.517511 0.344051
v -0.282628 0.514211 0.343004
v -0.278356 0.520612 0.348976
v -0.284403 0.516950 0.349282
v -0.296635 0.554578 0.394186
v -0.302682 0.550916 0.394492
v -0.299685 0.557935 0.397857
v -0.305144 0.556051 0.398693
v -0.357818 0.529658 0.388171
v -0.364551 0.528392 0.386400
v -0.360279 0.534792 0.392372
v -0.365303 0.532635 0.390334
v -0.138708 1.233317 -0.045928
v -0.178759 1.220103 -0.030976
v -0.185487 1.252660 -0.016400
v -0.145015 1.267210 -0.029667
v -0.168459 1.188294 0.063625
v -0.125315 1.191778 0.075124
v -0.130668 1.220509 0.086953
v -0.174173 1.216266 0.076203
v -0.185827 1.215526 -0.023299
v -0.195946 1.201146 0.012615
v -0.201740 1.230517 0.025737
v -0.192480 1.247652 -0.008909
v -0.194986 1.198193 0.021568
v -0.177315 1.189288 0.056201
v -0.183074 1.217395 0.068733
v -0.200657 1.227045 0.034622
v -0.132422 0.731579 -0.030204
v -0.142378 0.725155 0.020853
v -0.130882 0.752694 0.063942
v -0.145663 0.841352 0.058949
v -0.147659 0.813981 -0.063086
v -0.170087 0.823991 -0.000861
v -0.075457 0.426374 0.037520
v -0.064655 0.436543 0.084314
v -0.073895 0.446929 0.131616
v -0.136383 0.427699 0.038203
v -0.146161 0.437717 0.085384
v -0.134820 0.448281 0.132290
v -0.090682 0.426428 0.063445
v -0.085186 0.429488 0.086954
v -0.089790 0.432639 0.110789
v -0.121349 0.426653 0.063821
v -0.126198 0.429484 0.087456
v -0.120451 0.432920 0.111117
v -0.090477 0.417575 0.063303
v -0.084837 0.414975 0.086777
v -0.089268 0.411307 0.110559
v -0.121112 0.416416 0.063694
v -0.125796 0.412845 0.087267
v -0.119906 0.410005 0.110987
v -0.078765 0.416485 0.042273
v -0.068770 0.407820 0.083835
v -0.076460 0.397553 0.125600
v -0.132709 0.413394 0.043033
v -0.140885 0.402993 0.084720
v -0.130397 0.394304 0.126345
v -0.055233 0.037077 -0.043520
v -0.046077 0.032628 -0.000375
v -0.054980 0.032423 0.042542
v -0.109228 0.035998 -0.043174
v -0.118344 0.032473 -0.000333
v -0.109018 0.032920 0.042542
v -0.054699 0.012813 -0.045768
v -0.046094 0.008487 -0.000818
v -0.055119 0.008214 0.042526
v -0.108707 0.011795 -0.045398
v -0.118353 0.008279 -0.000785
v -0.109156 0.008711 0.042526
v -0.090538 0.016168 0.101700
v -0.090581 0.008560 0.101695
v -0.073556 0.016012 0.101700
v -0.073599 0.008404 0.101695
v -0.133699 0.858127 -0.037164
v -0.143513 0.862508 -0.009935
v -0.170176 0.862912 -0.009589
v -0.132825 0.870104 0.016237
v -0.160362 0.858532 -0.036818
v -0.159488 0.870509 0.016582
v 0.014409 0.992444 -0.081552
v 0.018479 1.001485 0.065546
v -0.041226 1.185015 -0.064651
v -0.035358 1.179038 0.072688
v 0.034564 0.762742 0.005689
v 0.032260 0.828027 0.073133
v 0.073039 1.168913 -0.032379
v 0.090870 1.103822 -0.033585
v 0.093232 1.103219 0.033871
v 0.075400 1.168310 0.035077
v -0.091745 1.210415 0.048229
v -0.099102 1.232692 -0.022666
v -0.083201 1.276615 0.088035
v -0.094097 1.313220 0.004961
v -0.100738 1.371287 0.127136
v -0.110569 1.404317 0.052175
v -0.013991 1.321884 0.082640
v -0.021365 1.346657 0.026419
v -0.024817 1.380873 0.110052
v -0.032191 1.405646 0.053831
v -0.019012 1.105956 -0.087216
v 0.046944 0.971480 -0.018341
v -0.012630 1.104329 0.095084
v -0.024454 1.205472 0.004141
v 0.047217 0.786825 0.052216
v 0.028857 0.897618 0.026987
v 0.031571 0.818588 -0.065738
v 0.086148 1.137656 -0.040518
v 0.098457 1.097611 -0.000134
v 0.089027 1.136921 0.041720
v 0.076718 1.176966 0.001336
v 0.033513 1.186483 0.065175
v 0.068201 1.061859 0.063189
v 0.063825 1.062975 -0.061813
v 0.029151 1.187616 -0.059167
v -0.081672 1.224952 0.012290
v -0.081825 1.209993 -0.041110
v -0.076056 1.198123 0.053683
v -0.072132 1.283846 0.039453
v -0.104365 1.264937 -0.006984
v -0.095819 1.236946 0.061316
v -0.108360 1.402550 0.096509
v -0.091273 1.323932 0.123026
v -0.105001 1.370055 0.018351
v -0.011313 1.328858 0.051310
v -0.024511 1.400774 0.084729
v -0.013417 1.349716 0.102290
v -0.022406 1.379917 0.033749
v -0.061885 1.411699 0.050987
v -0.052475 1.380084 0.122738
v -0.037933 1.303187 0.087509
v -0.047465 1.335211 0.014832
v 0.045365 1.126598 -0.083202
v 0.051321 1.125079 0.086948
v 0.053921 0.859853 -0.022815
v 0.027329 1.209421 0.003014
v 0.075411 1.036610 -0.006699
v -0.061920 1.209997 0.005860
v -0.086321 1.252798 0.026016
v -0.059267 1.410151 0.093419
v -0.007043 1.367022 0.067566
v -0.043208 1.336242 0.118688
v -0.038483 1.305227 0.044461
v -0.056188 1.379849 0.019722
v 0.250433 0.933164 -0.041338
v 0.224928 0.910354 -0.047169
v 0.194907 0.895225 -0.038196
v 0.193859 0.887852 -0.005269
v 0.198386 0.895494 0.028814
v 0.228920 0.910562 0.034505
v 0.254071 0.933444 0.026064
v 0.260952 0.933653 -0.008108
v 0.256223 0.898997 -0.001027
v 0.243435 0.917453 -0.020447
v 0.233450 0.907483 -0.025072
v 0.220027 0.901366 -0.024247
v 0.217041 0.897086 -0.011320
v 0.215578 0.899574 0.004212
v 0.228037 0.905268 0.009753
v 0.240156 0.915944 0.009579
v 0.245907 0.916593 -0.005099
v 0.266830 0.896914 0.012195
v 0.257320 0.896327 -0.015993
v 0.249358 0.895517 -0.029448
v 0.236696 0.888824 -0.029118
v 0.223224 0.886891 -0.021460
v 0.223948 0.885372 -0.007857
v 0.229325 0.890213 0.005807
v 0.243540 0.892226 0.006002
v 0.272444 0.895579 -0.014156
v 0.264272 0.897155 -0.039880
v 0.240902 0.885980 -0.044768
v 0.215440 0.881211 -0.037254
v 0.211916 0.875879 -0.012220
v 0.217236 0.880782 0.013787
v 0.243314 0.885372 0.018630
v 0.361920 0.604092 0.005516
v 0.367534 0.602756 -0.020835
v 0.360060 0.604678 -0.046683
v 0.336136 0.593264 -0.051686
v 0.310412 0.588519 -0.045095
v 0.307007 0.583057 -0.018899
v 0.312273 0.587933 0.007104
v 0.338404 0.592549 0.011952
v 0.339587 0.585773 -0.020030
v 0.393890 0.565093 -0.068933
v 0.381940 0.559392 -0.071432
v 0.383664 0.555650 -0.055620
v 0.397623 0.564133 -0.056022
v 0.317960 0.538568 -0.069386
v 0.305111 0.536199 -0.066093
v 0.303410 0.533470 -0.053009
v 0.319684 0.534827 -0.053574
v 0.322081 0.534071 0.013694
v 0.305808 0.532714 0.014259
v 0.308438 0.535150 0.027247
v 0.321490 0.537455 0.029669
v 0.400021 0.563377 0.011246
v 0.386061 0.554895 0.011648
v 0.385471 0.558279 0.027622
v 0.397217 0.564044 0.024408
v 0.388604 0.527387 -0.059060
v 0.393779 0.529856 -0.057978
v 0.389350 0.525767 -0.052212
v 0.395396 0.529440 -0.052387
v 0.326555 0.507977 -0.055828
v 0.332119 0.509003 -0.057253
v 0.325818 0.506795 -0.050161
v 0.332866 0.507383 -0.050406
v 0.327935 0.506128 0.009226
v 0.334982 0.506716 0.008981
v 0.329074 0.507183 0.014851
v 0.334726 0.508181 0.015899
v 0.391467 0.525100 0.007175
v 0.397512 0.528773 0.007001
v 0.391211 0.526565 0.014093
v 0.396298 0.529062 0.012701
v -0.095943 1.238384 -0.034248
v -0.101383 1.270597 -0.019471
v -0.085604 1.206370 0.060279
v -0.090087 1.233907 0.072661
v -0.087121 1.237254 -0.027238
v -0.069564 1.228902 0.007551
v -0.074533 1.257260 0.020372
v -0.092486 1.268745 -0.013019
v -0.068600 1.225933 0.016499
v -0.078602 1.210978 0.052252
v -0.083108 1.238499 0.064502
v -0.073454 1.253789 0.029238
v 0.094054 0.772565 -0.000532
v 0.106731 0.797083 0.044025
v 0.091362 0.841809 0.066623
v 0.087975 0.913846 0.012746
v 0.091465 0.824089 -0.074302
v 0.113434 0.870111 -0.031006
v 0.101487 0.551913 0.227756
v 0.090284 0.584336 0.262733
v 0.098796 0.620445 0.295220
v 0.160918 0.562256 0.219364
v 0.169906 0.598014 0.251822
v 0.158214 0.630903 0.286755
v 0.117802 0.570121 0.246866
v 0.112266 0.584068 0.265687
v 0.116732 0.599654 0.283494
v 0.147836 0.573621 0.243587
v 0.152443 0.588791 0.261297
v 0.146720 0.603280 0.280076
v 0.117829 0.567018 0.248427
v 0.112648 0.575049 0.270452
v 0.117608 0.581683 0.293023
v 0.148132 0.565341 0.247872
v 0.153202 0.571905 0.270141
v 0.147955 0.579757 0.292657
v 0.104179 0.559695 0.228574
v 0.095518 0.569256 0.270197
v 0.104454 0.576054 0.312420
v 0.157791 0.553222 0.229557
v 0.167165 0.559815 0.271738
v 0.158066 0.569355 0.313503
v 0.054545 0.177057 0.305257
v 0.046068 0.193414 0.344880
v 0.054980 0.216375 0.381075
v 0.108398 0.174371 0.305556
v 0.118302 0.192925 0.344876
v 0.109018 0.216793 0.380806
v 0.053352 0.154852 0.315054
v 0.045959 0.172841 0.357313
v 0.055119 0.196013 0.394170
v 0.107257 0.152353 0.315438
v 0.118174 0.172233 0.357295
v 0.109156 0.196431 0.393901
v 0.090538 0.234741 0.439613
v 0.090581 0.228342 0.443728
v 0.073556 0.234610 0.439697
v 0.073599 0.228211 0.443812
v 0.069813 0.872535 -0.074579
v 0.079427 0.892673 -0.055634
v 0.105469 0.897162 -0.059218
v 0.068286 0.911811 -0.036488
v 0.095856 0.877024 -0.078163
v 0.094328 0.916300 -0.040072
vn -0.1533 0.0043 -0.9882
vn -0.6286 0.4622 -0.6255
vn -0.4501 0.4999 -0.7400
vn -0.4596 -0.6161 -0.6396
vn -0.4339 -0.0901 -0.8964
vn -0.3875 -0.6206 -0.6818
vn -0.6489 -0.1107 -0.7527
vn -0.8486 0.2758 -0.4515
vn -0.0694 -0.0137 0.9975
vn -0.3878 -0.6437 0.6598
vn -0.3456 -0.4517 0.8226
vn -0.5660 0.4666 0.6797
vn -0.3702 -0.1062 0.9229
vn -0.7547 0.3815 0.5337
vn -0.1337 0.0047 0.9910
vn 0.0779 -0.6586 0.7484
vn 0.1012 -0.1408 0.9849
vn -0.3061 -0.0054 0.9520
vn 0.0591 0.0253 0.9979
vn 0.1638 -0.2760 0.9471
vn 0.1867 -0.5296 0.8275
vn -0.1205 0.3357 -0.9342
vn -0.0641 0.0399 -0.9971
vn -0.4322 -0.3731 -0.8210
vn -0.0641 0.3600 0.9307
vn 0.0009 0.0258 0.9997
vn 0.8017 -0.5812 0.1399
vn 0.4331 -0.8979 -0.0788
vn 0.1112 -0.5786 -0.8080
vn 0.3011 -0.6107 -0.7324
vn -0.7513 -0.6596 0.0213
vn -0.2365 -0.1821 -0.9544
vn -0.3548 0.8402 -0.4101
vn 0.3633 0.8443 -0.3940
vn 0.3464 0.9141 -0.2107
vn 0.3783 0.9256 -0.0111
vn -0.0727 -0.0543 -0.9959
vn -0.0097 -0.2415 -0.9704
vn -0.0541 -0.3673 0.9285
vn 0.4650 -0.6142 0.6376
vn -0.9249 -0.0528 0.3765
vn -0.5289 0.0640 0.8462
vn -0.5606 -0.6539 -0.5080
vn 0.3309 -0.9342 0.1334
vn 0.2802 -0.9591 -0.0412
vn -0.5797 0.8127 0.0595
vn -0.3469 0.5277 0.7754
vn -0.6964 0.7170 0.0309
vn -0.8754 0.4832 0.0119
vn -0.4961 -0.8682 0.0100
vn -0.6226 0.5366 -0.5696
vn -0.1570 0.5027 -0.8501
vn -0.6173 -0.2633 -0.7413
vn 0.3509 -0.2611 -0.8993
vn -0.5260 0.5362 0.6601
vn -0.0916 0.4875 0.8683
vn -0.5771 -0.5170 0.6323
vn -0.7818 0.6115 0.1218
vn -0.8840 -0.4612 -0.0768
vn 0.1461 -0.5458 0.8251
vn 0.0346 -0.3432 0.9386
vn -0.1810 -0.7875 0.5892
vn -0.0291 0.3369 0.9411
vn -0.0542 0.3274 0.9433
vn -0.7096 0.5642 -0.4221
vn -0.0940 0.2677 -0.9589
vn 0.0875 0.9446 -0.3162
vn -0.5866 -0.0187 0.8097
vn -0.5247 -0.8045 -0.2783
vn -0.9826 0.1250 0.1374
vn -0.3919 -0.1094 -0.9135
vn -0.2257 0.9035 -0.3643
vn -0.1642 0.8946 0.4157
vn -0.1999 0.9108 -0.3613
vn -0.1894 0.8891 0.4166
vn -0.2460 0.2792 0.9282
vn -0.4134 0.8415 -0.3479
vn -0.3994 0.8185 0.4130
vn -0.8007 0.5444 -0.2500
vn -0.8609 0.4142 0.2954
vn -0.6719 0.1116 0.7322
vn -0.2024 0.4529 -0.8683
vn -0.1440 0.5387 -0.8301
vn -0.6531 -0.3613 -0.6655
vn -0.9792 -0.1987 0.0409
vn -0.8241 0.1081 -0.5561
vn -0.5249 -0.7920 0.3119
vn -0.6754 -0.7034 -0.2214
vn -0.1536 -0.8968 0.4149
vn -0.1255 -0.4281 0.8950
vn -0.6699 -0.4098 0.6191
vn -0.3247 -0.3221 -0.8893
vn -0.2868 -0.8900 -0.3545
vn -0.3565 0.3482 -0.8670
vn -0.8516 -0.5202 0.0647
vn -0.9422 -0.1573 -0.2959
vn 0.0894 -0.8720 -0.4813
vn 0.1372 -0.7485 -0.6488
vn -0.1696 -0.9466 -0.2742
vn -0.6349 -0.7041 0.3179
vn -0.5584 -0.4377 0.7047
vn 0.2905 0.2636 -0.9199
vn -0.3215 0.2187 -0.9213
vn -0.3060 0.5203 -0.7973
vn -0.1345 0.7603 -0.6355
vn -0.5103 0.7990 0.3181
vn -0.0771 0.8149 -0.5745
vn -0.7214 -0.6206 -0.3073
vn -0.7974 0.1502 -0.5845
vn -0.8103 -0.1921 0.5537
vn -0.7319 -0.4927 -0.4707
vn -0.4683 -0.1312 -0.8738
vn -0.9232 -0.0160 -0.3841
vn 0.1741 -0.0295 -0.9843
vn 0.2460 0.9646 0.0948
vn 0.6257 0.7164 -0.3087
vn -0.8494 0.5209 0.0851
vn -0.3670 0.8540 0.3687
vn -0.8483 0.5014 -0.1703
vn -0.4792 -0.4337 -0.7631
vn -0.8861 -0.4634 -0.0101
vn 0.7842 0.0535 -0.6183
vn 0.3355 -0.6748 -0.6573
vn 0.3653 0.8318 0.4179
vn 0.9489 0.2440 0.2003
vn -0.8981 0.3447 0.2730
vn -0.2728 0.4555 0.8474
vn 0.5320 0.3598 -0.7665
vn 0.8005 -0.5957 0.0659
vn -0.4982 -0.3901 0.7744
vn -0.2160 -0.9689 -0.1210
vn -0.1951 -0.9796 -0.0482
vn 0.4655 -0.0185 0.8848
vn -0.5846 -0.3247 0.7435
vn 0.7850 -0.6122 0.0946
vn -0.5252 -0.3663 0.7681
vn -0.2402 -0.9647 -0.1082
vn -0.1787 -0.9838 -0.0159
vn 0.4704 0.0176 0.8823
vn -0.5724 -0.3066 0.7605
vn 0.7527 0.4535 0.4772
vn 0.8561 -0.0979 -0.5074
vn 0.6702 -0.4769 -0.5687
vn 0.4832 0.3842 0.7867
vn 0.2113 -0.7385 0.6403
vn -0.9382 -0.1985 0.2834
vn -0.3471 -0.8599 -0.3743
vn 0.8228 -0.5683 -0.0019
vn -0.0547 -0.7564 -0.6518
vn -0.7589 -0.0947 0.6443
vn 0.8349 -0.5502 0.0150
vn 0.9931 0.0069 -0.1172
vn -0.6153 0.2853 0.7348
vn 0.8950 -0.3810 -0.2319
vn 0.1096 0.5648 0.8179
vn -0.6979 -0.6451 -0.3111
vn 0.4664 0.0940 0.8796
vn 0.4905 0.0898 0.8668
vn 0.4223 0.7083 0.5657
vn -0.8864 0.2037 0.4157
vn -0.4525 -0.6025 -0.6574
vn -0.6701 -0.5214 -0.5284
vn 0.1805 0.8854 -0.4282
vn 0.3882 -0.1631 -0.9070
vn -0.8689 0.4843 -0.1019
vn 0.5578 -0.7299 0.3951
vn -0.7807 0.2458 0.5745
vn -0.5730 -0.8091 0.1302
vn 0.7227 -0.4533 0.5217
vn 0.3022 0.4900 0.8177
vn -0.5862 -0.7984 0.1376
vn -0.5256 0.7155 -0.4603
vn -0.3158 -0.3390 -0.8862
vn -0.8024 0.2176 0.5557
vn -0.1324 -0.8677 0.4792
vn -0.8719 0.4829 -0.0809
vn -0.6590 -0.5611 -0.5010
vn -0.3710 0.1872 0.9096
vn -0.9922 -0.1170 0.0425
vn -0.5960 -0.3090 -0.7411
vn -0.9950 -0.0929 0.0371
vn -0.5668 0.0328 0.8232
vn -0.4890 0.3613 0.7939
vn -0.5389 -0.3145 0.7814
vn 0.5668 -0.3262 0.7565
vn -0.5100 -0.0175 -0.8600
vn 0.5309 -0.6576 -0.5345
vn -0.5460 -0.6496 -0.5290
vn 0.4358 -0.8344 -0.3375
vn -0.4692 -0.8232 -0.3198
vn 0.8544 -0.5140 0.0765
vn -0.8558 -0.5066 0.1052
vn -0.8683 0.4858 0.1002
vn -0.8002 -0.5903 0.1060
vn 0.4051 -0.6516 0.6414
vn -0.4843 0.5280 0.6976
vn 0.4327 0.5849 0.6861
vn -0.4123 -0.6383 0.6500
vn 0.7964 -0.6000 0.0762
vn -0.9093 0.4049 0.0959
vn -0.5618 0.2419 0.7911
vn 0.4301 0.8255 -0.3654
vn -0.5815 0.6090 -0.5395
vn -0.5414 0.7630 -0.3532
vn 0.8169 0.5728 0.0678
vn -0.9996 -0.0269 -0.0130
vn 0.5515 0.3146 0.7726
vn -0.8215 0.1255 0.5562
vn 0.8334 0.1656 0.5273
vn 0.8429 0.5331 0.0733
vn 0.4912 0.6768 -0.5484
vn -0.5009 -0.5415 -0.6751
vn -0.7390 -0.6733 -0.0227
vn 0.6890 -0.7028 0.1772
vn 0.4862 0.4910 0.7229
vn 0.4717 -0.5986 0.6474
vn 0.9994 0.0342 -0.0085
vn 0.6170 0.1472 -0.7731
vn -0.6165 0.0989 -0.7811
vn 0.7381 -0.6744 -0.0215
vn 0.5201 -0.5160 -0.6806
vn -0.6978 -0.6920 0.1849
vn -0.4801 -0.5915 0.6478
vn -0.4781 0.4983 0.7233
vn -0.5519 0.6170 -0.5610
vn -0.7808 0.6123 -0.1245
vn -0.5384 0.8013 0.2608
vn 0.2602 0.7129 -0.6512
vn 0.0765 0.1059 -0.9914
vn 0.0764 0.6678 -0.7404
vn 0.6805 -0.2076 -0.7027
vn 0.4756 -0.0857 -0.8755
vn 0.3640 0.1290 -0.9224
vn 0.2148 -0.4017 -0.8902
vn 0.6426 0.6288 -0.4378
vn 0.6816 -0.3445 0.6455
vn 0.1454 0.0605 0.9875
vn 0.5952 -0.2824 0.7523
vn 0.2817 0.7068 0.6489
vn 0.0676 0.6508 0.7562
vn 0.4276 0.1129 0.8969
vn 0.6717 0.6219 0.4025
vn 0.2752 -0.4349 0.8574
vn 0.4956 0.4094 0.7660
vn -0.0628 0.3085 0.9491
vn -0.5502 -0.5367 0.6397
vn 0.4395 -0.7685 -0.4651
vn 0.9841 -0.1699 -0.0522
vn -0.0794 0.5572 -0.8266
vn -0.5310 0.4225 -0.7345
vn 0.2079 -0.3305 -0.9206
vn -0.5663 0.6966 -0.4405
vn 0.3829 -0.5201 0.7635
vn 0.6029 0.2586 0.7547
vn 0.9986 -0.0341 -0.0412
vn 0.6741 0.7384 -0.0163
vn 0.2757 -0.5005 -0.8207
vn 0.5490 0.2727 -0.7901
vn -0.0681 -0.9975 0.0167
vn -0.2732 -0.7408 0.6136
vn 0.0344 0.9993 0.0162
vn 0.2209 0.9753 0.0010
vn 0.9082 -0.4186 -0.0023
vn 0.2796 0.7673 -0.5772
vn 0.6072 0.0253 -0.7941
vn 0.2087 0.7534 0.6235
vn 0.7718 -0.1771 0.6107
vn 0.3933 0.9190 0.0285
vn 0.9916 -0.0024 -0.1296
vn 0.1770 -0.3143 0.9327
vn 0.5188 -0.6479 0.5577
vn 0.0913 -0.2516 0.9635
vn 0.3874 0.7944 -0.4678
vn 0.6093 0.2098 0.7647
vn 0.7676 -0.5470 -0.3341
vn 0.8681 0.4941 0.0480
vn -0.1737 0.9141 -0.3664
vn -0.1389 0.8994 0.4145
vn -0.0022 0.3379 0.9412
vn 0.1914 0.3680 0.9099
vn 0.0240 0.9302 -0.3661
vn 0.0811 0.9160 0.3930
vn 0.5029 0.8089 -0.3044
vn 0.6317 0.3761 0.6778
vn -0.0600 0.4818 -0.8742
vn 0.3291 0.0343 -0.9437
vn 0.6867 -0.0894 -0.7214
vn 0.9792 0.1987 -0.0409
vn 0.8758 -0.3887 -0.2861
vn 0.8149 -0.5201 0.2559
vn 0.8238 -0.1067 0.5568
vn 0.6697 0.4112 -0.6185
vn 0.5232 -0.7595 0.3867
vn 0.3534 -0.3310 0.8750
vn 0.3521 -0.1848 -0.9175
vn 0.5812 -0.7138 -0.3908
vn 0.1223 0.4454 -0.8869
vn 0.7523 -0.0181 -0.6586
vn 0.4641 -0.3182 -0.8267
vn -0.3501 -0.7278 -0.5896
vn -0.3194 -0.9322 -0.1702
vn -0.3655 -0.9302 0.0345
vn 0.3071 -0.7300 0.6105
vn 0.7593 -0.5311 0.3760
vn 0.8211 -0.0417 0.5693
vn 0.0573 -0.8684 -0.4926
vn -0.3787 0.6739 -0.6344
vn 0.1734 -0.9304 0.3230
vn -0.9501 0.2729 0.1513
vn 0.0026 0.6247 0.7808
vn 0.9670 -0.1739 0.1860
vn -0.0676 0.9042 -0.4217
vn 0.8396 -0.3584 -0.4081
vn 0.3502 0.9188 -0.1819
vn 0.3466 0.7285 -0.5909
vn -0.7440 0.3825 -0.5479
vn -0.6872 0.6612 -0.3008
vn -0.7254 0.3224 0.6082
vn -0.5887 0.4681 0.6590
vn 0.4171 0.6867 0.5954
vn 0.2947 0.9041 0.3095
vn 0.6818 0.7300 -0.0467
vn 0.5395 0.4748 -0.6954
vn -0.2197 0.4927 -0.8420
vn -0.7546 0.0536 -0.6539
vn -0.9789 0.1996 0.0426
vn -0.7062 0.0380 0.7070
vn -0.0947 0.4250 0.9002
vn 0.5882 0.4593 0.6656
vn 0.7217 -0.4904 0.4885
vn -0.3280 -0.7793 -0.5340
vn 0.6944 -0.3836 -0.6089
vn 0.6920 -0.4473 -0.5666
vn -0.2656 -0.8118 0.5201
vn -0.3698 -0.7299 -0.5748
vn 0.7302 -0.4594 0.5057
vn -0.3026 -0.8001 -0.5180
vn 0.7137 -0.3777 -0.5899
vn 0.6847 -0.4788 -0.5495
vn -0.2897 -0.7913 0.5384
vn -0.3877 -0.7362 -0.5547
vn -0.8122 -0.4097 0.4153
vn -0.7176 -0.1422 -0.6818
vn -0.3637 -0.2340 -0.9016
vn 0.0106 -0.1298 -0.9915
vn -0.5130 -0.5208 0.6823
vn 0.3088 -0.9509 -0.0217
vn 0.9858 0.1647 -0.0333
vn 0.9202 0.1542 0.3599
vn 0.6231 0.2942 -0.7247
vn 0.7119 -0.0916 -0.6963
vn -0.8400 -0.4009 -0.3655
vn 0.3789 0.0077 -0.9254
vn -0.8941 -0.4472 0.0268
vn 0.7596 -0.1067 0.6416
vn -0.6673 -0.1580 0.7278
vn 0.4439 -0.0128 0.8960
vn 0.0811 -0.1524 0.9850
vn -0.5607 -0.5058 -0.6556
vn -0.2988 -0.2545 0.9198
vn 0.6734 0.2783 0.6849
vn 0.8923 0.1629 -0.4209
vn 0.7357 -0.3966 0.5491
vn -0.3286 -0.7429 0.5832
vn -0.3479 -0.7488 0.5642
vn 0.7535 -0.3903 0.5290
vn 0.7835 -0.2115 -0.5843
vn 0.5892 0.7948 -0.1456
vn 0.8563 -0.5116 0.0702
vn 0.3402 0.3828 0.8589
vn 0.6599 0.5407 0.5217
vn 0.1523 0.8626 -0.4824
vn 0.8639 -0.4974 0.0791
vn 0.3563 -0.1973 -0.9133
vn 0.6885 0.5289 0.4962
vn 0.5957 0.7914 -0.1376
vn 0.5037 -0.7375 0.4500
vn 0.7852 -0.2571 -0.5634
vn 0.3337 0.3399 0.8793
vn 0.9964 0.0753 -0.0377
vn 0.6193 -0.5712 -0.5387
vn 0.4639 -0.4267 -0.7764
vn 0.5616 0.5658 0.6037
vn 0.4128 0.8193 0.3979
vn 0.6131 0.2679 0.7432
vn -0.3988 -0.9170 -0.0053
vn 0.6436 -0.7478 -0.1629
vn -0.2888 -0.9408 0.1776
vn -0.7187 -0.5220 0.4594
vn 0.9942 0.0926 -0.0555
vn -0.4661 0.0718 0.8818
vn 0.8855 0.4478 -0.1241
vn 0.6148 -0.7788 0.1246
vn 0.8855 -0.3369 0.3201
vn -0.2284 -0.2330 0.9453
vn 0.5387 0.7373 0.4077
vn 0.5420 -0.1214 0.8316
vn 0.9484 -0.2198 0.2288
vn 0.9443 0.3173 -0.0876
vn 0.5868 0.2980 -0.7529
vn -0.3852 0.6337 -0.6709
vn 0.5755 0.5160 -0.6345
vn -0.7921 0.5841 -0.1774
vn -0.6876 -0.5626 0.4589
vn -0.3463 0.8451 0.4072
vn 0.9977 -0.0680 0.0013
vn -0.4945 0.6387 0.5895
vn 0.8333 0.3273 0.4455
vn 0.6125 0.4824 0.6262
vn -0.7878 0.5972 -0.1507
vn 0.4762 -0.8169 -0.3253
vn 0.5905 -0.2928 -0.7520
vn -0.6886 -0.4965 0.5286
vn -0.4862 0.8042 0.3418
vn -0.8526 0.3918 0.3458
vn -0.4638 0.4533 -0.7612
vn -0.9973 0.0625 -0.0388
vn -0.7334 -0.5880 0.3410
vn -0.5477 -0.7622 -0.3450
vn 0.6981 -0.4824 0.5291
vn -0.6220 -0.1872 -0.7603
vn 0.4801 -0.1466 0.8649
vn 0.4781 0.8105 0.3383
vn -0.5285 0.5803 -0.6196
vn 0.3992 0.2764 -0.8742
vn 0.3757 0.8809 -0.2880
vn 0.6525 0.7213 0.2322
vn 0.7317 -0.5974 0.3284
vn -0.4717 -0.1527 0.8684
vn 0.6384 0.5485 -0.5400
vt 0.788313 0.160351
vt 0.866441 0.123345
vt 0.837164 0.160183
vt 0.795690 0.114064
vt 0.832558 0.122504
vt 0.815439 0.005725
vt 0.836937 0.005726
vt 0.858554 0.005727
vt 0.711863 0.005689
vt 0.765458 0.039503
vt 0.673425 0.042725
vt 0.974376 0.005216
vt 0.922004 0.085909
vt 0.934878 0.005215
vt 0.894610 0.005719
vt 0.897800 0.005215
vt 0.748146 0.005697
vt 0.798883 0.005711
vt 0.626048 0.005684
vt 0.615090 0.110651
vt 0.565527 0.005684
vt 0.536165 0.111060
vt 0.536106 0.005684
vt 0.832167 0.210906
vt 0.785754 0.210907
vt 0.718496 0.150103
vt 0.994647 0.128582
vt 0.994702 0.005069
vt 0.668851 0.005684
vt 0.971121 0.881197
vt 0.929187 0.923094
vt 0.929190 0.881178
vt 0.887254 0.923057
vt 0.887259 0.881158
vt 0.686933 0.100177
vt 0.615108 0.173540
vt 0.615090 0.130439
vt 0.138676 0.059283
vt 0.106481 0.034898
vt 0.138681 0.034971
vt 0.152185 0.034996
vt 0.152158 0.059280
vt 0.715817 0.210908
vt 0.615108 0.210908
vt 0.567524 0.173701
vt 0.385145 0.823259
vt 0.353258 0.675750
vt 0.385145 0.675753
vt 0.578814 0.823307
vt 0.545535 0.675773
vt 0.578814 0.675777
vt 0.451703 0.823276
vt 0.483591 0.675766
vt 0.483591 0.823284
vt 0.418424 0.675758
vt 0.418424 0.823268
vt 0.873193 0.133448
vt 0.952466 0.111227
vt 0.895987 0.107967
vt 0.876930 0.005723
vt 0.768631 0.081991
vt 0.805196 0.005718
vt 0.862892 0.178371
vt 0.857129 0.210906
vt 0.994426 0.200363
vt 0.994422 0.208976
vt 0.918496 0.143380
vt 0.994510 0.151664
vt 0.994465 0.191335
vt 0.885779 0.153309
vt 0.994442 0.193883
vt 0.781351 0.516783
vt 0.795950 0.532989
vt 0.780642 0.534082
vt 0.807852 0.516783
vt 0.807852 0.533412
vt 0.864732 0.496568
vt 0.875790 0.511047
vt 0.864740 0.511047
vt 0.763322 0.528447
vt 0.767320 0.559634
vt 0.763317 0.559626
vt 0.875648 0.464867
vt 0.875781 0.496562
vt 0.993522 0.502112
vt 0.979258 0.480177
vt 0.993743 0.480280
vt 0.979047 0.501966
vt 0.964773 0.480075
vt 0.964406 0.519614
vt 0.964571 0.501820
vt 0.993342 0.519977
vt 0.978874 0.519795
vt 0.993218 0.532214
vt 0.978755 0.532008
vt 0.964292 0.531802
vt 0.897793 0.494840
vt 0.897723 0.511047
vt 0.909494 0.511047
vt 0.890194 0.473752
vt 0.896166 0.464819
vt 0.898086 0.473146
vt 0.790090 0.554832
vt 0.795932 0.559659
vt 0.782279 0.559654
vt 0.807852 0.554977
vt 0.807872 0.559659
vt 0.909406 0.472098
vt 0.787074 0.547125
vt 0.795953 0.546001
vt 0.795951 0.554885
vt 0.887178 0.480704
vt 0.774502 0.559645
vt 0.877164 0.464846
vt 0.909490 0.494417
vt 0.898485 0.481828
vt 0.909465 0.480272
vt 0.512257 0.663156
vt 0.512257 0.675769
vt 0.451703 0.675762
vt 0.418424 0.663145
vt 0.451703 0.663149
vt 0.385145 0.663141
vt 0.578814 0.663163
vt 0.512257 0.823291
vt 0.545535 0.823299
vt 0.607480 0.823314
vt 0.607480 0.675781
vt 0.418424 0.652790
vt 0.451703 0.652794
vt 0.353258 0.652783
vt 0.385145 0.652787
vt 0.545535 0.652803
vt 0.578814 0.652807
vt 0.483591 0.663153
vt 0.483591 0.652797
vt 0.545535 0.663160
vt 0.607480 0.663167
vt 0.451703 0.645821
vt 0.483591 0.645824
vt 0.418424 0.645818
vt 0.607480 0.652810
vt 0.578814 0.645834
vt 0.607480 0.645837
vt 0.512257 0.645827
vt 0.545535 0.645831
vt 0.512257 0.652800
vt 0.451699 0.472939
vt 0.483588 0.472937
vt 0.385139 0.472943
vt 0.418419 0.472941
vt 0.578814 0.472932
vt 0.607480 0.472931
vt 0.512254 0.472936
vt 0.545534 0.472934
vt 0.353258 0.645812
vt 0.385145 0.645815
vt 0.963037 0.962332
vt 0.967014 0.966520
vt 0.963037 0.967231
vt 0.968622 0.973515
vt 0.972599 0.977703
vt 0.968622 0.978414
vt 0.972599 0.968635
vt 0.968622 0.972823
vt 0.968622 0.967924
vt 0.963953 0.972111
vt 0.967929 0.967924
vt 0.967929 0.972823
vt 0.823392 0.888557
vt 0.801803 0.872016
vt 0.823208 0.871554
vt 0.727185 0.949825
vt 0.769499 0.936510
vt 0.769693 0.950046
vt 0.727263 0.962713
vt 0.769880 0.963016
vt 0.769312 0.923540
vt 0.726947 0.910038
vt 0.769118 0.910004
vt 0.727027 0.923488
vt 0.739143 0.821308
vt 0.715173 0.834958
vt 0.715075 0.821151
vt 0.860805 0.870744
vt 0.823015 0.853809
vt 0.860758 0.853314
vt 0.860851 0.887444
vt 0.823584 0.906303
vt 0.860898 0.904873
vt 0.822831 0.836806
vt 0.860712 0.836614
vt 0.702985 0.949699
vt 0.781367 0.834950
vt 0.781418 0.821583
vt 0.781324 0.846465
vt 0.739187 0.834955
vt 0.739269 0.860358
vt 0.781273 0.859832
vt 0.739307 0.872114
vt 0.781230 0.871346
vt 0.801528 0.854091
vt 0.719408 0.677314
vt 0.761830 0.657449
vt 0.762202 0.677014
vt 0.761135 0.621029
vt 0.718660 0.604122
vt 0.760814 0.604176
vt 0.761508 0.640595
vt 0.718833 0.621057
vt 0.719207 0.657653
vt 0.694942 0.657770
vt 0.702954 0.923458
vt 0.702938 0.910057
vt 0.715257 0.846851
vt 0.802066 0.889191
vt 0.694750 0.621073
vt 0.694661 0.604092
vt 0.702969 0.936298
vt 0.739225 0.846711
vt 0.801265 0.836915
vt 0.694853 0.640788
vt 0.715355 0.860658
vt 0.719034 0.640718
vt 0.727105 0.936375
vt 0.951707 0.556846
vt 0.945085 0.549741
vt 0.955968 0.549780
vt 0.955862 0.554144
vt 0.955784 0.563307
vt 0.946707 0.556823
vt 0.943578 0.563356
vt 0.943512 0.549771
vt 0.715387 0.765671
vt 0.723149 0.785920
vt 0.715387 0.786037
vt 0.955968 0.596108
vt 0.946319 0.586029
vt 0.951319 0.585472
vt 0.955862 0.591739
vt 0.955784 0.582577
vt 0.742342 0.786037
vt 0.734581 0.765554
vt 0.742342 0.765671
vt 0.943512 0.596115
vt 0.943578 0.582527
vt 0.951287 0.570031
vt 0.947951 0.566175
vt 0.951256 0.566186
vt 0.955817 0.572942
vt 0.947962 0.570053
vt 0.943634 0.572942
vt 0.951024 0.579976
vt 0.948233 0.575582
vt 0.951518 0.576101
vt 0.947680 0.579429
vt 0.202232 0.059279
vt 0.234661 0.100351
vt 0.202446 0.100344
vt 0.177247 0.100349
vt 0.176955 0.059280
vt 0.152045 0.100185
vt 0.177176 0.222672
vt 0.152047 0.222663
vt 0.106437 0.059253
vt 0.067744 0.100180
vt 0.067712 0.059266
vt 0.130598 0.100207
vt 0.106449 0.222544
vt 0.106420 0.100143
vt 0.067722 0.222532
vt 0.106467 0.232299
vt 0.067694 0.232325
vt 0.130684 0.223030
vt 0.234600 0.223406
vt 0.202230 0.223042
vt 0.234549 0.232646
vt 0.202188 0.236639
vt 0.202186 0.232503
vt 0.152046 0.232541
vt 0.177141 0.236659
vt 0.152047 0.236728
vt 0.177136 0.232463
vt 0.130695 0.232548
vt 0.202219 0.247966
vt 0.177144 0.248104
vt 0.106468 0.236213
vt 0.067713 0.248046
vt 0.067693 0.236747
vt 0.130701 0.236712
vt 0.234591 0.247972
vt 0.202654 0.447029
vt 0.152046 0.248125
vt 0.177354 0.447116
vt 0.152034 0.447120
vt 0.130698 0.248032
vt 0.234549 0.236688
vt 0.106456 0.247659
vt 0.478148 0.906021
vt 0.487900 0.879409
vt 0.487821 0.906029
vt 0.400907 0.932715
vt 0.410481 0.973083
vt 0.400918 0.973083
vt 0.130358 0.447070
vt 0.107157 0.447027
vt 0.067748 0.447024
vt 0.179817 0.908557
vt 0.145519 0.875791
vt 0.179757 0.875791
vt 0.145519 0.941323
vt 0.145471 0.908557
vt 0.410417 0.906827
vt 0.400891 0.880816
vt 0.410381 0.880787
vt 0.400882 0.848403
vt 0.410338 0.848366
vt 0.487741 0.932713
vt 0.478130 0.932713
vt 0.400899 0.906858
vt 0.612130 0.933805
vt 0.599038 0.962984
vt 0.599038 0.933760
vt 0.410452 0.932715
vt 0.478115 0.973083
vt 0.179757 0.941323
vt 0.145612 0.986640
vt 0.576625 0.955055
vt 0.587809 0.943534
vt 0.587828 0.955055
vt 0.587809 0.966575
vt 0.576608 0.966575
vt 0.177005 0.034981
vt 0.202066 0.034959
vt 0.234541 0.034950
vt 0.234664 0.059279
vt 0.856488 0.296244
vt 0.788314 0.261462
vt 0.837165 0.261629
vt 0.785737 0.305527
vt 0.718497 0.271712
vt 0.822605 0.297086
vt 0.801360 0.418845
vt 0.844475 0.418844
vt 0.759794 0.375191
vt 0.707741 0.418856
vt 0.673428 0.379093
vt 0.960296 0.418847
vt 0.912052 0.333678
vt 0.942512 0.308359
vt 0.920799 0.418848
vt 0.880531 0.418846
vt 0.789092 0.418847
vt 0.744024 0.418853
vt 0.617064 0.418856
vt 0.615095 0.310981
vt 0.556539 0.418856
vt 0.532058 0.310945
vt 0.994621 0.288687
vt 0.659869 0.418856
vt 0.929192 0.839261
vt 0.887264 0.839260
vt 0.686935 0.321639
vt 0.615095 0.291379
vt 0.406956 0.059181
vt 0.432715 0.032044
vt 0.432835 0.059475
vt 0.382978 0.032049
vt 0.383106 0.059060
vt 0.615108 0.248245
vt 0.567508 0.210908
vt 0.252156 0.821910
vt 0.280599 0.674380
vt 0.280593 0.821911
vt 0.079439 0.821904
vt 0.109095 0.674373
vt 0.109117 0.821904
vt 0.164347 0.674375
vt 0.192798 0.821908
vt 0.164361 0.821907
vt 0.222477 0.821909
vt 0.252156 0.674379
vt 0.873194 0.288363
vt 0.886034 0.311621
vt 0.762966 0.332702
vt 0.862892 0.243442
vt 0.994426 0.217590
vt 0.918495 0.278430
vt 0.994465 0.226617
vt 0.994510 0.267829
vt 0.885779 0.268502
vt 0.994442 0.224070
vt 0.795950 0.500576
vt 0.780642 0.499483
vt 0.795950 0.516783
vt 0.864732 0.522711
vt 0.763322 0.505118
vt 0.763322 0.516783
vt 0.770038 0.471484
vt 0.763321 0.471491
vt 0.875664 0.556326
vt 0.864680 0.556277
vt 0.993963 0.458447
vt 0.979469 0.458388
vt 0.964975 0.458329
vt 0.965141 0.440536
vt 0.994144 0.440582
vt 0.979642 0.440559
vt 0.994268 0.428345
vt 0.965254 0.428347
vt 0.897793 0.527253
vt 0.875781 0.528346
vt 0.890194 0.548342
vt 0.897461 0.556483
vt 0.886235 0.556451
vt 0.795944 0.471461
vt 0.790090 0.478674
vt 0.784997 0.471466
vt 0.807852 0.478647
vt 0.795951 0.478664
vt 0.909406 0.549996
vt 0.898086 0.548948
vt 0.787074 0.486440
vt 0.795953 0.487564
vt 0.807852 0.500153
vt 0.807852 0.486008
vt 0.887178 0.541389
vt 0.777220 0.471474
vt 0.878458 0.556396
vt 0.909490 0.527676
vt 0.898485 0.540266
vt 0.909465 0.541821
vt 0.138778 0.674374
vt 0.164346 0.661761
vt 0.192789 0.674376
vt 0.222473 0.661763
vt 0.222473 0.674378
vt 0.280599 0.661766
vt 0.079409 0.661758
vt 0.079412 0.674372
vt 0.138796 0.821906
vt 0.053874 0.821903
vt 0.192789 0.661762
vt 0.222472 0.651407
vt 0.252156 0.661765
vt 0.280600 0.651409
vt 0.109091 0.651402
vt 0.109093 0.661759
vt 0.192788 0.651406
vt 0.138777 0.661760
vt 0.053843 0.674371
vt 0.164345 0.651405
vt 0.192788 0.644433
vt 0.252156 0.644435
vt 0.252156 0.651408
vt 0.053838 0.651400
vt 0.079406 0.644428
vt 0.079407 0.651401
vt 0.138775 0.644431
vt 0.138776 0.651404
vt 0.053840 0.661757
vt 0.164344 0.644432
vt 0.192777 0.471529
vt 0.222472 0.644434
vt 0.252157 0.471532
vt 0.053837 0.644427
vt 0.079374 0.471525
vt 0.109090 0.644429
vt 0.138754 0.471527
vt 0.280600 0.644436
vt 0.969538 0.957452
vt 0.973515 0.961640
vt 0.968622 0.961387
vt 0.968622 0.962332
vt 0.972599 0.966520
vt 0.968622 0.967231
vt 0.963037 0.956741
vt 0.967014 0.960928
vt 0.963037 0.961640
vt 0.963953 0.974227
vt 0.967929 0.978414
vt 0.963037 0.978161
vt 0.887909 0.638473
vt 0.863531 0.660077
vt 0.864088 0.638200
vt 0.913341 0.748737
vt 0.951221 0.767600
vt 0.913180 0.766945
vt 0.951156 0.785010
vt 0.913026 0.784391
vt 0.913495 0.731291
vt 0.951421 0.713849
vt 0.951353 0.732019
vt 0.951288 0.749430
vt 0.959897 0.616871
vt 0.987656 0.635517
vt 0.959683 0.634938
vt 0.822245 0.637719
vt 0.864669 0.615367
vt 0.821938 0.659688
vt 0.862950 0.682910
vt 0.821617 0.682615
vt 0.822566 0.614792
vt 0.865225 0.593490
vt 0.972878 0.767973
vt 0.910550 0.633920
vt 0.910533 0.649639
vt 0.959499 0.650500
vt 0.959285 0.668567
vt 0.910515 0.667888
vt 0.959101 0.684129
vt 0.910499 0.683608
vt 0.824443 0.766143
vt 0.861628 0.788696
vt 0.824105 0.786511
vt 0.825073 0.728230
vt 0.863215 0.710740
vt 0.862847 0.728777
vt 0.824735 0.748598
vt 0.862421 0.749718
vt 0.862054 0.767755
vt 0.883466 0.768673
vt 0.972907 0.732434
vt 0.987376 0.650990
vt 0.887211 0.660299
vt 0.884353 0.729089
vt 0.972893 0.749824
vt 0.888639 0.615695
vt 0.883877 0.750355
vt 0.987051 0.668954
vt 0.991698 0.549537
vt 0.986192 0.559128
vt 0.980516 0.549564
vt 0.978925 0.549589
vt 0.978987 0.562197
vt 0.991386 0.558116
vt 0.994424 0.561569
vt 0.994471 0.549550
vt 0.789124 0.739611
vt 0.763464 0.758887
vt 0.763498 0.739607
vt 0.763512 0.731830
vt 0.763451 0.766668
vt 0.789127 0.758919
vt 0.789128 0.766699
vt 0.994462 0.581669
vt 0.979006 0.586026
vt 0.979002 0.582401
vt 0.990526 0.565151
vt 0.986788 0.568971
vt 0.986972 0.564866
vt 0.978972 0.572509
vt 0.990277 0.569233
vt 0.994380 0.571840
vt 0.990730 0.574769
vt 0.988181 0.579616
vt 0.987331 0.575595
vt 0.991641 0.578755
vt 0.321457 0.059042
vt 0.296864 0.102008
vt 0.296863 0.059034
vt 0.349010 0.102065
vt 0.349219 0.059052
vt 0.383172 0.102128
vt 0.349051 0.229143
vt 0.459715 0.102034
vt 0.432829 0.102102
vt 0.432804 0.229185
vt 0.410633 0.102213
vt 0.459437 0.229292
vt 0.432789 0.241704
vt 0.410277 0.229230
vt 0.321402 0.102125
vt 0.296866 0.229271
vt 0.382979 0.229142
vt 0.321464 0.251272
vt 0.296867 0.241701
vt 0.321465 0.241679
vt 0.383013 0.241700
vt 0.349074 0.251351
vt 0.349079 0.241659
vt 0.321454 0.229230
vt 0.321456 0.261327
vt 0.459316 0.261339
vt 0.432788 0.251573
vt 0.459076 0.251465
vt 0.410206 0.251552
vt 0.410231 0.241705
vt 0.459092 0.241744
vt 0.382982 0.251599
vt 0.321343 0.443581
vt 0.296866 0.261302
vt 0.382998 0.261388
vt 0.348784 0.443901
vt 0.349071 0.261379
vt 0.410215 0.261354
vt 0.296867 0.251162
vt 0.271244 0.909018
vt 0.261635 0.882793
vt 0.271130 0.882824
vt 0.348303 0.934460
vt 0.338538 0.975194
vt 0.338582 0.934448
vt 0.432798 0.261384
vt 0.410498 0.443329
vt 0.459715 0.443464
vt 0.382795 0.443790
vt 0.112881 0.875000
vt 0.078622 0.907766
vt 0.078652 0.875000
vt 0.112881 0.940531
vt 0.078652 0.940531
vt 0.348287 0.881493
vt 0.338638 0.907899
vt 0.338695 0.881501
vt 0.348278 0.848612
vt 0.338763 0.848636
vt 0.261836 0.935163
vt 0.271362 0.934967
vt 0.651910 0.963211
vt 0.638818 0.934032
vt 0.651910 0.933987
vt 0.271457 0.975188
vt 0.112762 0.985848
vt 0.564591 0.955761
vt 0.553390 0.944241
vt 0.564592 0.944241
vt 0.553390 0.967282
vt 0.564592 0.967282
vt 0.459341 0.058805
vt 0.349185 0.032044
vt 0.296868 0.032029
vt 0.774166 0.005706
vt 0.971121 0.923131
vt 0.353258 0.823252
vt 0.994490 0.167177
vt 0.864665 0.464882
vt 0.884941 0.464829
vt 0.909428 0.464819
vt 0.807852 0.547557
vt 0.353258 0.663138
vt 0.967929 0.962585
vt 0.973515 0.973768
vt 0.973515 0.972570
vt 0.963037 0.968177
vt 0.353251 0.472945
vt 0.703000 0.962540
vt 0.695045 0.677484
vt 0.802341 0.907116
vt 0.715439 0.872551
vt 0.723149 0.765554
vt 0.945085 0.596138
vt 0.734581 0.785920
vt 0.234695 0.447025
vt 0.478166 0.879404
vt 0.612130 0.963029
vt 0.487628 0.973083
vt 0.179634 0.986640
vt 0.576608 0.943534
vt 0.067661 0.034944
vt 0.822858 0.418844
vt 0.883723 0.418848
vt 0.770044 0.418851
vt 0.531215 0.418856
vt 0.994664 0.417687
vt 0.971121 0.839262
vt 0.406886 0.032041
vt 0.567524 0.248147
vt 0.862851 0.418845
vt 0.795404 0.418845
vt 0.994490 0.252317
vt 0.979761 0.428346
vt 0.807854 0.471461
vt 0.909451 0.556483
vt 0.164329 0.471528
vt 0.222467 0.471531
vt 0.053800 0.471524
vt 0.109064 0.471526
vt 0.973515 0.956741
vt 0.973515 0.962585
vt 0.967929 0.956993
vt 0.967929 0.973515
vt 0.280606 0.471533
vt 0.913656 0.713083
vt 0.987981 0.617554
vt 0.822873 0.592823
vt 0.972864 0.785363
vt 0.910568 0.615671
vt 0.825365 0.710685
vt 0.882990 0.789939
vt 0.972921 0.714285
vt 0.886482 0.683077
vt 0.884763 0.710771
vt 0.889337 0.593869
vt 0.986771 0.684427
vt 0.789124 0.731828
vt 0.994471 0.585912
vt 0.296862 0.443389
vt 0.261734 0.909095
vt 0.348313 0.975091
vt 0.432823 0.443085
vt 0.112941 0.907766
vt 0.348295 0.907926
vt 0.638818 0.963256
vt 0.261978 0.975081
vt 0.078714 0.985848
vt 0.553389 0.955761
vt 0.458723 0.032029
vt 0.321499 0.032037
s 1
usemtl Material.001
f 21/1/1 41/2/2 3/3/3
f 21/1/1 40/4/4 65/5/5
f 65/5/5 8/6/6 34/7/7
f 65/5/5 7/8/8 41/2/2
f 23/9/9 39/10/10 2/11/11
f 23/12/9 38/13/12 66/14/13
f 66/14/13 10/15/14 36/16/15
f 66/17/13 9/18/16 39/10/10
f 28/19/17 32/20/18 67/21/19
f 67/21/19 6/22/20 31/23/21
f 25/24/22 21/1/1 3/3/3
f 68/25/23 1/26/24 21/1/1
f 26/27/25 23/12/9 69/28/26
f 69/29/26 2/11/11 28/19/17
f 31/30/21 29/31/27 70/32/28
f 70/32/28 5/33/29 30/34/30
f 22/35/31 32/20/18 2/11/11
f 22/35/31 33/36/32 71/37/33
f 71/38/33 224/39/34 225/40/35
f 71/38/33 227/41/36 32/42/18
f 27/43/37 33/36/32 1/26/24
f 72/44/38 5/45/29 33/36/32
f 9/46/16 94/47/39 93/48/40
f 10/49/14 96/50/41 95/51/42
f 8/52/6 90/53/43 34/54/7
f 9/46/16 92/55/44 35/56/45
f 24/57/46 38/13/12 4/58/47
f 24/57/46 41/2/2 73/59/48
f 73/59/48 7/8/8 37/60/49
f 73/59/48 10/15/14 38/13/12
f 1/26/24 74/61/50 40/4/4
f 2/11/11 74/61/50 22/35/31
f 74/61/50 9/18/16 35/62/45
f 74/61/50 8/6/6 40/4/4
f 25/24/22 45/63/51 75/64/52
f 75/64/52 12/65/53 43/66/54
f 26/27/25 46/67/55 4/58/47
f 76/68/56 11/69/57 46/67/55
f 24/57/46 45/63/51 3/3/3
f 24/57/46 46/67/55 77/70/58
f 46/67/55 42/71/59 77/70/58
f 77/70/58 12/65/53 45/63/51
f 49/72/60 55/73/61 13/74/62
f 55/73/61 54/75/63 15/76/64
f 50/77/65 48/78/66 79/79/67
f 51/80/68 49/72/60 13/74/62
f 51/80/68 47/81/69 81/82/70
f 50/77/65 47/83/69 14/84/71
f 16/85/72 82/86/73 53/87/74
f 52/88/75 54/89/63 82/86/73
f 52/88/75 62/90/76 15/91/64
f 52/88/75 61/92/77 83/93/78
f 83/93/78 20/94/79 58/95/80
f 83/93/78 19/96/81 62/90/76
f 48/78/66 56/97/82 84/98/83
f 56/97/82 53/99/74 84/98/83
f 18/100/84 85/101/85 60/102/86
f 17/103/87 85/104/85 57/105/88
f 85/104/85 19/106/81 58/107/80
f 85/101/85 20/108/79 60/102/86
f 55/73/61 63/109/89 13/74/62
f 86/110/90 19/106/81 59/111/91
f 86/110/90 17/103/87 63/109/89
f 47/83/69 64/112/92 14/84/71
f 47/81/69 63/109/89 87/113/93
f 87/113/93 17/103/87 57/105/88
f 87/114/93 18/100/84 64/112/92
f 16/115/72 88/116/94 61/117/77
f 56/97/82 64/112/92 88/116/94
f 88/116/94 18/100/84 60/102/86
f 88/116/94 20/108/79 61/117/77
f 90/53/43 98/118/95 89/119/96
f 91/120/97 101/121/98 100/122/99
f 94/47/39 102/123/100 93/48/40
f 96/50/41 104/124/101 95/51/42
f 35/56/45 91/120/97 8/52/6
f 34/54/7 89/119/96 7/125/8
f 37/126/49 89/119/96 96/50/41
f 36/127/15 95/51/42 94/128/39
f 100/122/99 109/129/102 108/130/103
f 102/123/100 111/131/104 110/132/105
f 104/124/101 113/133/106 112/134/107
f 99/135/108 108/130/103 107/136/109
f 96/50/41 98/118/95 105/137/110
f 94/128/39 104/124/101 103/138/111
f 92/55/44 102/123/100 101/121/98
f 90/53/43 100/122/99 99/135/108
f 107/136/109 115/139/112 114/140/113
f 110/132/105 116/141/114 109/129/102
f 111/142/104 119/143/115 118/144/116
f 113/133/106 106/145/117 120/146/118
f 98/118/95 107/136/109 97/147/119
f 105/137/110 97/147/119 113/133/106
f 103/138/111 112/134/107 111/142/104
f 101/121/98 110/132/105 109/129/102
f 114/140/113 123/148/120 122/149/121
f 116/141/114 125/150/122 124/151/123
f 118/144/116 127/152/124 126/153/125
f 120/146/118 121/154/126 128/155/127
f 112/134/107 120/146/118 119/143/115
f 110/132/105 118/156/116 117/157/128
f 108/130/103 116/141/114 115/139/112
f 97/147/119 114/140/113 106/145/117
f 158/158/129 161/159/130 159/160/131
f 155/161/132 156/162/133 157/163/134
f 150/164/135 153/165/136 151/166/137
f 147/167/138 148/168/139 149/169/140
f 120/146/118 127/152/124 119/143/115
f 118/156/116 125/150/122 117/157/128
f 116/141/114 123/148/120 115/139/112
f 114/140/113 121/154/126 106/145/117
f 136/170/141 150/171/135 135/172/142
f 131/173/143 123/174/120 124/175/123
f 132/176/144 124/175/123 129/177/145
f 122/178/121 132/179/144 129/180/145
f 123/174/120 133/181/146 122/178/121
f 138/182/147 154/183/148 155/184/132
f 125/185/122 134/186/149 124/187/123
f 136/170/141 125/185/122 126/188/125
f 137/189/150 126/188/125 129/190/145
f 124/187/123 137/191/150 129/192/145
f 132/176/144 146/193/151 131/173/143
f 126/194/125 138/182/147 129/195/145
f 127/196/124 139/197/152 126/194/125
f 141/198/153 127/196/124 128/199/127
f 138/200/147 128/199/127 129/201/145
f 134/186/149 150/171/135 151/202/137
f 143/203/154 122/204/121 129/205/145
f 128/206/127 143/207/154 129/208/145
f 121/209/126 144/210/155 128/206/127
f 142/211/156 121/209/126 122/204/121
f 143/203/154 159/212/131 142/211/156
f 132/179/144 149/213/140 148/214/139
f 139/197/152 156/215/133 154/183/148
f 137/189/150 152/216/157 136/170/141
f 143/207/154 160/217/158 158/218/129
f 133/181/146 147/219/138 149/213/140
f 141/198/153 156/215/133 140/220/159
f 137/191/150 151/202/137 153/221/136
f 144/210/155 161/222/130 160/217/158
f 138/200/147 157/223/134 141/198/153
f 142/211/156 161/222/130 145/224/160
f 131/173/143 147/219/138 130/225/161
f 163/226/162 165/227/163 162/228/164
f 163/226/162 43/229/54 12/230/53
f 164/231/165 12/230/53 50/232/65
f 79/233/67 164/231/165 50/232/65
f 43/234/54 165/235/163 79/236/67
f 167/237/166 169/238/167 166/239/168
f 44/240/169 166/239/168 11/241/57
f 80/242/170 167/243/166 44/244/169
f 169/238/167 80/245/170 51/246/68
f 166/239/168 51/246/68 11/241/57
f 171/247/171 173/248/172 170/249/173
f 42/250/59 170/249/173 12/230/53
f 172/251/174 42/250/59 81/252/70
f 50/232/65 172/251/174 81/252/70
f 12/230/53 173/248/172 50/232/65
f 175/253/175 177/254/176 174/255/177
f 11/241/57 174/255/177 42/250/59
f 51/246/68 175/253/175 11/241/57
f 81/252/70 176/256/178 51/246/68
f 174/255/177 81/252/70 42/250/59
f 183/257/179 178/258/180 179/259/181
f 183/257/179 180/260/182 181/261/183
f 6/262/20 189/263/184 186/264/185
f 33/265/32 178/266/180 182/267/186
f 32/42/18 180/260/182 6/262/20
f 29/268/27 184/269/187 5/270/29
f 187/271/188 190/272/189 193/273/190
f 185/274/191 190/272/189 184/269/187
f 179/259/181 187/275/188 188/276/192
f 29/268/27 186/264/185 185/274/191
f 179/259/181 189/263/184 180/260/182
f 178/266/180 184/269/187 187/271/188
f 193/277/190 200/278/193 194/279/194
f 192/280/195 201/281/196 198/282/197
f 188/276/192 195/283/198 189/263/184
f 185/274/191 192/280/195 191/284/199
f 189/263/184 192/280/195 186/264/185
f 188/276/192 193/277/190 194/279/194
f 201/281/196 206/285/200 207/286/201
f 196/287/202 205/288/203 199/289/204
f 190/272/189 197/290/205 196/287/202
f 190/272/189 199/289/204 193/273/190
f 194/279/194 201/281/196 195/283/198
f 191/284/199 198/282/197 197/290/205
f 205/291/203 212/292/206 206/285/200
f 204/293/207 213/294/208 210/295/209
f 198/282/197 203/296/210 197/290/205
f 198/282/197 207/286/201 204/293/207
f 199/297/204 206/285/200 200/278/193
f 196/287/202 203/296/210 202/298/211
f 212/299/206 217/300/212 218/301/213
f 216/302/214 222/303/215 223/304/216
f 202/298/211 209/305/217 208/306/218
f 202/298/211 211/307/219 205/288/203
f 206/285/200 213/294/208 207/286/201
f 203/296/210 210/295/209 209/305/217
f 215/308/220 217/309/212 214/310/221
f 215/308/220 219/311/222 218/312/213
f 209/313/217 214/314/221 208/315/218
f 208/315/218 217/316/212 211/317/219
f 212/299/206 219/318/222 213/319/208
f 209/313/217 216/302/214 215/320/220
f 222/321/215 221/322/223 223/323/216
f 210/324/209 220/325/224 222/303/215
f 219/318/222 220/325/224 213/319/208
f 216/326/214 221/327/223 219/311/222
f 225/328/35 228/329/225 226/330/226
f 225/328/35 229/331/227 227/332/36
f 182/267/186 224/39/34 33/265/32
f 183/257/179 229/333/227 226/334/226
f 183/257/179 228/335/225 182/336/186
f 181/261/183 227/41/36 229/333/227
f 264/337/228 250/338/229 232/339/230
f 250/338/229 263/340/231 230/341/232
f 282/342/233 237/343/234 263/340/231
f 236/344/235 282/342/233 264/337/228
f 262/345/236 252/346/237 231/347/238
f 252/348/237 261/349/239 233/350/240
f 283/351/241 239/352/242 261/349/239
f 238/353/243 283/354/241 262/345/236
f 28/355/17 255/356/244 231/347/238
f 67/357/19 235/358/245 255/356/244
f 250/338/229 25/24/22 232/339/230
f 250/338/229 27/43/37 68/25/23
f 26/359/25 252/348/237 233/350/240
f 28/355/17 252/346/237 69/360/26
f 254/361/246 31/30/21 70/32/28
f 234/362/247 70/32/28 30/34/30
f 255/356/244 251/363/248 231/347/238
f 284/364/249 230/341/232 251/363/248
f 284/365/249 425/366/250 256/367/251
f 428/368/252 284/365/249 255/369/244
f 230/341/232 72/44/38 27/43/37
f 256/370/251 30/371/30 72/44/38
f 238/372/243 299/373/253 259/374/254
f 239/375/242 301/376/255 260/377/256
f 295/378/257 237/379/234 257/380/258
f 258/381/259 298/382/260 238/372/243
f 261/349/239 253/383/261 233/350/240
f 253/383/261 264/337/228 232/339/230
f 285/384/262 236/344/235 264/337/228
f 239/352/242 285/384/262 261/349/239
f 263/340/231 251/363/248 230/341/232
f 286/385/263 231/347/238 251/363/248
f 286/385/263 238/353/243 262/345/236
f 237/343/234 286/385/263 263/340/231
f 25/24/22 266/386/264 232/339/230
f 75/64/52 241/387/265 266/386/264
f 267/388/266 26/359/25 233/350/240
f 240/389/267 76/390/56 267/388/266
f 232/339/230 287/391/268 253/383/261
f 253/383/261 267/388/266 233/350/240
f 265/392/269 267/388/266 287/391/268
f 241/387/265 287/391/268 266/386/264
f 272/393/270 49/72/60 242/394/271
f 272/393/270 54/75/63 78/395/272
f 48/78/66 269/396/273 79/79/67
f 270/397/274 49/72/60 80/398/170
f 268/399/275 270/397/274 288/400/276
f 269/396/273 268/401/275 288/402/276
f 245/403/277 82/86/73 271/404/278
f 271/404/278 54/89/63 244/405/279
f 279/406/280 271/404/278 244/405/279
f 271/404/278 278/407/281 245/403/277
f 289/408/282 249/409/283 278/407/281
f 248/410/284 289/408/282 279/406/280
f 48/78/66 273/411/285 243/412/286
f 53/99/74 273/411/285 84/98/83
f 247/413/287 290/414/288 274/415/289
f 290/416/288 246/417/290 274/418/289
f 290/416/288 248/419/284 276/420/291
f 249/421/283 290/414/288 277/422/292
f 280/423/293 272/393/270 242/394/271
f 291/424/294 248/419/284 279/426/280
f 246/417/290 291/424/294 280/423/293
f 281/427/295 268/401/275 243/412/286
f 268/399/275 280/423/293 242/394/271
f 292/428/296 246/417/290 280/423/293
f 247/413/287 292/429/296 281/427/295
f 245/430/277 293/431/297 273/411/285
f 273/411/285 281/427/295 243/412/286
f 293/431/297 247/413/287 281/427/295
f 249/421/283 293/431/297 278/432/281
f 294/433/298 304/434/299 295/378/257
f 296/435/300 306/436/301 297/437/302
f 298/382/260 308/438/303 299/373/253
f 309/439/304 301/376/255 300/440/305
f 296/435/300 258/381/259 237/379/234
f 294/433/298 257/380/258 236/441/235
f 301/376/255 236/441/235 260/377/256
f 259/442/254 300/440/305 239/375/242
f 305/443/306 314/444/307 306/436/301
f 307/445/308 316/446/309 308/438/303
f 309/439/304 318/447/310 310/448/311
f 304/434/299 313/449/312 305/443/306
f 301/376/255 303/450/313 294/433/298
f 299/451/253 309/439/304 300/440/305
f 297/437/302 307/445/308 298/382/260
f 295/378/257 305/443/306 296/435/300
f 312/452/314 320/453/315 313/449/312
f 314/444/307 322/454/316 315/455/317
f 316/456/309 324/457/318 317/458/319
f 318/447/310 311/459/320 302/460/321
f 303/450/313 312/452/314 304/434/299
f 310/448/311 302/460/321 303/450/313
f 308/461/303 317/458/319 309/439/304
f 306/436/301 315/455/317 307/445/308
f 319/462/322 328/463/323 320/453/315
f 321/464/324 330/465/325 322/454/316
f 323/466/326 332/467/327 324/457/318
f 325/468/328 326/469/329 311/459/320
f 317/458/319 325/468/328 318/447/310
f 315/455/317 323/470/326 316/446/309
f 313/449/312 321/464/324 314/444/307
f 302/460/321 319/462/322 312/452/314
f 366/471/330 363/472/331 364/473/332
f 360/474/333 361/475/334 359/476/335
f 358/477/336 355/478/337 356/479/338
f 352/480/339 353/481/340 351/482/341
f 332/467/327 325/468/328 324/457/318
f 330/465/325 323/470/326 322/454/316
f 328/463/323 321/464/324 320/453/315
f 326/469/329 319/462/322 311/459/320
f 355/483/337 341/484/342 340/485/343
f 328/486/323 336/487/344 329/488/345
f 329/488/345 337/489/346 334/490/347
f 327/491/348 337/492/346 338/493/349
f 328/486/323 338/493/349 335/494/350
f 343/495/351 359/496/335 344/497/352
f 330/498/325 339/499/353 340/485/343
f 330/498/325 341/484/342 331/500/354
f 331/500/354 342/501/355 334/502/347
f 329/503/345 342/504/355 339/499/353
f 351/505/341 337/489/346 336/487/344
f 331/506/354 343/495/351 344/497/352
f 332/507/327 344/497/352 345/508/356
f 332/507/327 346/509/357 333/510/358
f 333/510/358 343/511/351 334/512/347
f 339/499/353 355/483/337 340/485/343
f 327/513/348 348/514/359 334/515/347
f 333/516/358 348/517/359 349/518/360
f 326/519/329 349/518/360 350/520/361
f 326/519/329 347/521/362 327/513/348
f 364/522/332 348/514/359 347/521/362
f 337/492/346 354/523/363 338/493/349
f 344/497/352 361/524/334 345/508/356
f 357/525/364 342/501/355 341/484/342
f 348/517/359 365/526/365 349/518/360
f 338/493/349 352/527/339 335/494/350
f 361/524/334 346/509/357 345/508/356
f 342/504/355 356/528/338 339/499/353
f 349/518/360 366/529/330 350/520/361
f 362/530/366 343/511/351 346/509/357
f 366/529/330 347/521/362 350/520/361
f 352/527/339 336/487/344 335/494/350
f 165/531/163 367/532/367 162/533/164
f 43/534/54 367/532/367 241/535/265
f 241/535/265 368/536/368 269/537/273
f 79/538/67 368/536/368 165/531/163
f 369/539/369 168/540/370 167/541/166
f 44/542/169 369/539/369 167/541/166
f 80/543/170 370/544/371 270/545/274
f 270/546/274 369/547/369 240/548/267
f 374/549/372 372/550/373 371/551/374
f 265/552/269 371/551/374 372/550/373
f 265/552/269 373/553/375 288/554/276
f 269/537/273 373/553/375 374/549/372
f 241/535/265 374/549/372 371/551/374
f 378/555/376 376/556/377 375/557/378
f 240/548/267 375/557/378 376/556/377
f 270/546/274 376/556/377 377/558/379
f 288/554/276 377/558/379 378/555/376
f 288/554/276 375/557/378 265/552/269
f 384/559/380 379/560/381 383/561/382
f 381/562/383 384/559/380 382/563/384
f 235/564/245 390/565/385 381/562/383
f 256/367/251 379/566/381 234/567/247
f 381/562/383 255/369/244 235/564/245
f 385/568/386 254/569/246 234/567/247
f 388/570/387 391/571/388 385/568/386
f 391/571/388 386/572/389 385/568/386
f 380/573/390 388/574/387 379/560/381
f 254/569/246 387/575/391 235/564/245
f 390/565/385 380/573/390 381/562/383
f 379/566/381 385/568/386 234/567/247
f 401/576/392 394/577/393 395/578/394
f 393/579/395 402/580/396 396/581/397
f 396/581/397 389/582/398 390/565/385
f 386/572/389 393/579/395 387/575/391
f 393/579/395 390/565/385 387/575/391
f 389/582/398 394/577/393 388/574/387
f 402/580/396 407/583/399 401/576/392
f 406/584/400 397/585/401 400/586/402
f 391/571/388 398/587/403 392/588/404
f 400/586/402 391/571/388 394/589/393
f 402/580/396 395/578/394 396/581/397
f 392/588/404 399/590/405 393/579/395
f 413/591/406 406/592/400 407/583/399
f 405/593/407 414/594/408 408/595/409
f 404/596/410 399/590/405 398/587/403
f 399/590/405 408/595/409 402/580/396
f 407/583/399 400/597/402 401/576/392
f 397/585/401 404/596/410 398/587/403
f 413/598/406 418/599/411 412/600/412
f 417/601/413 423/602/414 411/603/415
f 403/604/416 410/605/417 404/596/410
f 412/606/412 403/604/416 406/584/400
f 414/594/408 407/583/399 408/595/409
f 404/596/410 411/607/415 405/593/407
f 418/608/411 416/609/418 415/610/419
f 416/609/418 420/611/420 417/612/413
f 415/613/419 410/614/417 409/615/421
f 418/616/411 409/615/421 412/617/412
f 420/618/420 413/598/406 414/619/408
f 410/614/417 417/601/413 411/603/415
f 423/620/414 422/621/422 421/622/423
f 411/603/415 421/623/423 414/619/408
f 421/623/423 420/618/420 414/619/408
f 422/624/422 417/612/413 420/611/420
f 426/625/424 429/626/425 425/627/250
f 430/628/426 426/625/424 428/629/252
f 425/366/250 383/630/382 256/367/251
f 384/559/380 430/631/426 382/563/384
f 429/632/425 384/559/380 383/561/382
f 382/563/384 428/368/252 255/369/244
f 21/1/1 65/5/5 41/2/2
f 21/1/1 1/26/24 40/4/4
f 65/5/5 40/4/4 8/6/6
f 65/5/5 34/7/7 7/8/8
f 23/9/9 66/17/13 39/10/10
f 23/12/9 4/58/47 38/13/12
f 66/14/13 38/13/12 10/15/14
f 66/17/13 36/633/15 9/18/16
f 28/19/17 2/11/11 32/20/18
f 67/21/19 32/20/18 6/22/20
f 25/24/22 68/25/23 21/1/1
f 68/25/23 27/43/37 1/26/24
f 26/27/25 4/58/47 23/12/9
f 69/29/26 23/9/9 2/11/11
f 31/30/21 6/634/20 29/31/27
f 70/32/28 29/31/27 5/33/29
f 22/35/31 71/37/33 32/20/18
f 22/35/31 1/26/24 33/36/32
f 71/38/33 33/265/32 224/39/34
f 71/38/33 225/40/35 227/41/36
f 27/43/37 72/44/38 33/36/32
f 72/44/38 30/371/30 5/45/29
f 9/46/16 36/635/15 94/47/39
f 10/49/14 37/126/49 96/50/41
f 8/52/6 91/120/97 90/53/43
f 9/46/16 93/48/40 92/55/44
f 24/57/46 73/59/48 38/13/12
f 24/57/46 3/3/3 41/2/2
f 73/59/48 41/2/2 7/8/8
f 73/59/48 37/60/49 10/15/14
f 1/26/24 22/35/31 74/61/50
f 2/11/11 39/10/10 74/61/50
f 74/61/50 39/10/10 9/18/16
f 74/61/50 35/62/45 8/6/6
f 25/24/22 3/3/3 45/63/51
f 75/64/52 45/63/51 12/65/53
f 26/27/25 76/68/56 46/67/55
f 76/68/56 44/636/169 11/69/57
f 24/57/46 77/70/58 45/63/51
f 24/57/46 4/58/47 46/67/55
f 46/67/55 11/69/57 42/71/59
f 77/70/58 42/71/59 12/65/53
f 49/72/60 78/395/272 55/73/61
f 55/73/61 78/395/272 54/75/63
f 50/77/65 14/84/71 48/78/66
f 51/80/68 80/398/170 49/72/60
f 51/80/68 13/74/62 47/81/69
f 50/77/65 81/637/70 47/83/69
f 16/85/72 52/88/75 82/86/73
f 52/88/75 15/91/64 54/89/63
f 52/88/75 83/93/78 62/90/76
f 52/88/75 16/85/72 61/92/77
f 83/93/78 61/92/77 20/94/79
f 83/93/78 58/95/80 19/96/81
f 48/78/66 14/84/71 56/97/82
f 56/97/82 16/115/72 53/99/74
f 18/100/84 57/638/88 85/101/85
f 17/103/87 59/111/91 85/104/85
f 85/104/85 59/111/91 19/106/81
f 85/101/85 58/639/80 20/108/79
f 55/73/61 86/110/90 63/109/89
f 86/110/90 62/640/76 19/106/81
f 86/110/90 59/111/91 17/103/87
f 47/83/69 87/114/93 64/112/92
f 47/81/69 13/74/62 63/109/89
f 87/113/93 63/109/89 17/103/87
f 87/114/93 57/638/88 18/100/84
f 16/115/72 56/97/82 88/116/94
f 56/97/82 14/84/71 64/112/92
f 88/116/94 64/112/92 18/100/84
f 88/116/94 60/102/86 20/108/79
f 90/53/43 99/135/108 98/118/95
f 91/120/97 92/55/44 101/121/98
f 94/47/39 103/641/111 102/123/100
f 96/50/41 105/137/110 104/124/101
f 35/56/45 92/55/44 91/120/97
f 34/54/7 90/53/43 89/119/96
f 37/126/49 7/125/8 89/119/96
f 36/127/15 10/49/14 95/51/42
f 100/122/99 101/121/98 109/129/102
f 102/123/100 103/641/111 111/131/104
f 104/124/101 105/137/110 113/133/106
f 99/135/108 100/122/99 108/130/103
f 96/50/41 89/119/96 98/118/95
f 94/128/39 95/51/42 104/124/101
f 92/55/44 93/48/40 102/123/100
f 90/53/43 91/120/97 100/122/99
f 107/136/109 108/130/103 115/139/112
f 110/132/105 117/157/128 116/141/114
f 111/142/104 112/134/107 119/143/115
f 113/133/106 97/147/119 106/145/117
f 98/118/95 99/135/108 107/136/109
f 105/137/110 98/118/95 97/147/119
f 103/138/111 104/124/101 112/134/107
f 101/121/98 102/123/100 110/132/105
f 114/140/113 115/139/112 123/148/120
f 116/141/114 117/157/128 125/150/122
f 118/144/116 119/143/115 127/152/124
f 120/146/118 106/145/117 121/154/126
f 112/134/107 113/133/106 120/146/118
f 110/132/105 111/131/104 118/156/116
f 108/130/103 109/129/102 116/141/114
f 97/147/119 107/136/109 114/140/113
f 158/158/129 160/642/158 161/159/130
f 155/161/132 154/643/148 156/162/133
f 150/164/135 152/644/157 153/165/136
f 147/167/138 146/645/151 148/168/139
f 120/146/118 128/155/127 127/152/124
f 118/156/116 126/646/125 125/150/122
f 116/141/114 124/151/123 123/148/120
f 114/140/113 122/149/121 121/154/126
f 136/170/141 152/216/157 150/171/135
f 131/173/143 130/225/161 123/174/120
f 132/176/144 131/173/143 124/175/123
f 122/178/121 133/181/146 132/179/144
f 123/174/120 130/225/161 133/181/146
f 138/182/147 139/197/152 154/183/148
f 125/185/122 135/172/142 134/186/149
f 136/170/141 135/172/142 125/185/122
f 137/189/150 136/170/141 126/188/125
f 124/187/123 134/186/149 137/191/150
f 132/176/144 148/647/139 146/193/151
f 126/194/125 139/197/152 138/182/147
f 127/196/124 140/220/159 139/197/152
f 141/198/153 140/220/159 127/196/124
f 138/200/147 141/198/153 128/199/127
f 134/186/149 135/172/142 150/171/135
f 143/203/154 142/211/156 122/204/121
f 128/206/127 144/210/155 143/207/154
f 121/209/126 145/224/160 144/210/155
f 142/211/156 145/224/160 121/209/126
f 143/203/154 158/648/129 159/212/131
f 132/179/144 133/181/146 149/213/140
f 139/197/152 140/220/159 156/215/133
f 137/189/150 153/649/136 152/216/157
f 143/207/154 144/210/155 160/217/158
f 133/181/146 130/225/161 147/219/138
f 141/198/153 157/223/134 156/215/133
f 137/191/150 134/186/149 151/202/137
f 144/210/155 145/224/160 161/222/130
f 138/200/147 155/650/132 157/223/134
f 142/211/156 159/212/131 161/222/130
f 131/173/143 146/193/151 147/219/138
f 163/226/162 164/231/165 165/227/163
f 163/226/162 162/228/164 43/229/54
f 164/231/165 163/226/162 12/230/53
f 79/233/67 165/227/163 164/231/165
f 43/234/54 162/651/164 165/235/163
f 167/237/166 168/652/370 169/238/167
f 44/240/169 167/237/166 166/239/168
f 80/242/170 168/653/370 167/243/166
f 169/238/167 168/652/370 80/245/170
f 166/239/168 169/238/167 51/246/68
f 171/247/171 172/251/174 173/248/172
f 42/250/59 171/247/171 170/249/173
f 172/251/174 171/247/171 42/250/59
f 50/232/65 173/248/172 172/251/174
f 12/230/53 170/249/173 173/248/172
f 175/253/175 176/256/178 177/254/176
f 11/241/57 175/253/175 174/255/177
f 51/246/68 176/256/178 175/253/175
f 81/252/70 177/254/176 176/256/178
f 174/255/177 177/254/176 81/252/70
f 183/257/179 182/336/186 178/258/180
f 183/257/179 179/259/181 180/260/182
f 6/262/20 180/260/182 189/263/184
f 33/265/32 5/270/29 178/266/180
f 32/42/18 181/261/183 180/260/182
f 29/268/27 185/274/191 184/269/187
f 187/271/188 184/269/187 190/272/189
f 185/274/191 191/284/199 190/272/189
f 179/259/181 178/258/180 187/275/188
f 29/268/27 6/262/20 186/264/185
f 179/259/181 188/276/192 189/263/184
f 178/266/180 5/270/29 184/269/187
f 193/277/190 199/297/204 200/278/193
f 192/280/195 195/283/198 201/281/196
f 188/276/192 194/279/194 195/283/198
f 185/274/191 186/264/185 192/280/195
f 189/263/184 195/283/198 192/280/195
f 188/276/192 187/275/188 193/277/190
f 201/281/196 200/278/193 206/285/200
f 196/287/202 202/298/211 205/288/203
f 190/272/189 191/284/199 197/290/205
f 190/272/189 196/287/202 199/289/204
f 194/279/194 200/278/193 201/281/196
f 191/284/199 192/280/195 198/282/197
f 205/291/203 211/654/219 212/292/206
f 204/293/207 207/286/201 213/294/208
f 198/282/197 204/293/207 203/296/210
f 198/282/197 201/281/196 207/286/201
f 199/297/204 205/291/203 206/285/200
f 196/287/202 197/290/205 203/296/210
f 212/299/206 211/655/219 217/300/212
f 216/302/214 210/324/209 222/303/215
f 202/298/211 203/296/210 209/305/217
f 202/298/211 208/306/218 211/307/219
f 206/285/200 212/292/206 213/294/208
f 203/296/210 204/293/207 210/295/209
f 215/308/220 218/312/213 217/309/212
f 215/308/220 216/326/214 219/311/222
f 209/313/217 215/320/220 214/314/221
f 208/315/218 214/314/221 217/316/212
f 212/299/206 218/301/213 219/318/222
f 209/313/217 210/324/209 216/302/214
f 222/321/215 220/656/224 221/322/223
f 210/324/209 213/319/208 220/325/224
f 219/318/222 221/657/223 220/325/224
f 216/326/214 223/658/216 221/327/223
f 225/328/35 224/659/34 228/329/225
f 225/328/35 226/330/226 229/331/227
f 182/267/186 228/660/225 224/39/34
f 183/257/179 181/261/183 229/333/227
f 183/257/179 226/334/226 228/335/225
f 181/261/183 32/42/18 227/41/36
f 264/337/228 282/342/233 250/338/229
f 250/338/229 282/342/233 263/340/231
f 282/342/233 257/661/258 237/343/234
f 236/344/235 257/661/258 282/342/233
f 262/345/236 283/354/241 252/346/237
f 252/348/237 283/351/241 261/349/239
f 283/351/241 259/662/254 239/352/242
f 238/353/243 259/663/254 283/354/241
f 28/355/17 67/357/19 255/356/244
f 67/357/19 31/664/21 235/358/245
f 250/338/229 68/25/23 25/24/22
f 250/338/229 230/341/232 27/43/37
f 26/359/25 69/665/26 252/348/237
f 28/355/17 231/347/238 252/346/237
f 254/361/246 235/666/245 31/30/21
f 234/362/247 254/361/246 70/32/28
f 255/356/244 284/364/249 251/363/248
f 284/364/249 256/370/251 230/341/232
f 284/365/249 426/667/424 425/366/250
f 428/368/252 426/667/424 284/365/249
f 230/341/232 256/370/251 72/44/38
f 256/370/251 234/668/247 30/371/30
f 238/372/243 298/382/260 299/373/253
f 239/375/242 300/440/305 301/376/255
f 295/378/257 296/435/300 237/379/234
f 258/381/259 297/437/302 298/382/260
f 261/349/239 285/384/262 253/383/261
f 253/383/261 285/384/262 264/337/228
f 285/384/262 260/669/256 236/344/235
f 239/352/242 260/669/256 285/384/262
f 263/340/231 286/385/263 251/363/248
f 286/385/263 262/345/236 231/347/238
f 286/385/263 258/670/259 238/353/243
f 237/343/234 258/670/259 286/385/263
f 25/24/22 75/64/52 266/386/264
f 75/64/52 43/66/54 241/387/265
f 267/388/266 76/390/56 26/359/25
f 240/389/267 44/671/169 76/390/56
f 232/339/230 266/386/264 287/391/268
f 253/383/261 287/391/268 267/388/266
f 265/392/269 240/389/267 267/388/266
f 241/387/265 265/392/269 287/391/268
f 272/393/270 78/395/272 49/72/60
f 272/393/270 244/425/279 54/75/63
f 48/78/66 243/412/286 269/396/273
f 270/397/274 242/394/271 49/72/60
f 268/399/275 242/394/271 270/397/274
f 269/396/273 243/412/286 268/401/275
f 245/403/277 53/87/74 82/86/73
f 271/404/278 82/86/73 54/89/63
f 279/406/280 289/408/282 271/404/278
f 271/404/278 289/408/282 278/407/281
f 289/408/282 275/672/427 249/409/283
f 248/410/284 275/672/427 289/408/282
f 48/78/66 84/98/83 273/411/285
f 53/99/74 245/430/277 273/411/285
f 247/413/287 277/422/292 290/414/288
f 290/416/288 276/420/291 246/417/290
f 290/416/288 275/673/427 248/419/284
f 249/421/283 275/674/427 290/414/288
f 280/423/293 291/424/294 272/393/270
f 291/424/294 276/420/291 248/419/284
f 246/417/290 276/420/291 291/424/294
f 281/427/295 292/429/296 268/401/275
f 268/399/275 292/428/296 280/423/293
f 292/428/296 274/418/289 246/417/290
f 247/413/287 274/415/289 292/429/296
f 245/430/277 278/432/281 293/431/297
f 273/411/285 293/431/297 281/427/295
f 293/431/297 277/422/292 247/413/287
f 249/421/283 277/422/292 293/431/297
f 294/433/298 303/450/313 304/434/299
f 296/435/300 305/443/306 306/436/301
f 298/382/260 307/445/308 308/438/303
f 309/439/304 310/448/311 301/376/255
f 296/435/300 297/437/302 258/381/259
f 294/433/298 295/378/257 257/380/258
f 301/376/255 294/433/298 236/441/235
f 259/442/254 299/451/253 300/440/305
f 305/443/306 313/449/312 314/444/307
f 307/445/308 315/455/317 316/446/309
f 309/439/304 317/458/319 318/447/310
f 304/434/299 312/452/314 313/449/312
f 301/376/255 310/448/311 303/450/313
f 299/451/253 308/461/303 309/439/304
f 297/437/302 306/436/301 307/445/308
f 295/378/257 304/434/299 305/443/306
f 312/452/314 319/462/322 320/453/315
f 314/444/307 321/464/324 322/454/316
f 316/456/309 323/466/326 324/457/318
f 318/447/310 325/468/328 311/459/320
f 303/450/313 302/460/321 312/452/314
f 310/448/311 318/447/310 302/460/321
f 308/461/303 316/456/309 317/458/319
f 306/436/301 314/444/307 315/455/317
f 319/462/322 327/675/348 328/463/323
f 321/464/324 329/676/345 330/465/325
f 323/466/326 331/677/354 332/467/327
f 325/468/328 333/678/358 326/469/329
f 317/458/319 324/457/318 325/468/328
f 315/455/317 322/454/316 323/470/326
f 313/449/312 320/453/315 321/464/324
f 302/460/321 311/459/320 319/462/322
f 366/471/330 365/679/365 363/472/331
f 360/474/333 362/680/366 361/475/334
f 358/477/336 357/681/364 355/478/337
f 352/480/339 354/682/363 353/481/340
f 332/467/327 333/678/358 325/468/328
f 330/465/325 331/683/354 323/470/326
f 328/463/323 329/676/345 321/464/324
f 326/469/329 327/675/348 319/462/322
f 355/483/337 357/525/364 341/484/342
f 328/486/323 335/494/350 336/487/344
f 329/488/345 336/487/344 337/489/346
f 327/491/348 334/684/347 337/492/346
f 328/486/323 327/491/348 338/493/349
f 343/495/351 360/685/333 359/496/335
f 330/498/325 329/503/345 339/499/353
f 330/498/325 340/485/343 341/484/342
f 331/500/354 341/484/342 342/501/355
f 329/503/345 334/686/347 342/504/355
f 351/505/341 353/687/340 337/489/346
f 331/506/354 334/688/347 343/495/351
f 332/507/327 331/506/354 344/497/352
f 332/507/327 345/508/356 346/509/357
f 333/510/358 346/509/357 343/511/351
f 339/499/353 356/528/338 355/483/337
f 327/513/348 347/521/362 348/514/359
f 333/516/358 334/689/347 348/517/359
f 326/519/329 333/516/358 349/518/360
f 326/519/329 350/520/361 347/521/362
f 364/522/332 363/690/331 348/514/359
f 337/492/346 353/691/340 354/523/363
f 344/497/352 359/496/335 361/524/334
f 357/525/364 358/692/336 342/501/355
f 348/517/359 363/693/331 365/526/365
f 338/493/349 354/523/363 352/527/339
f 361/524/334 362/530/366 346/509/357
f 342/504/355 358/694/336 356/528/338
f 349/518/360 365/526/365 366/529/330
f 362/530/366 360/695/333 343/511/351
f 366/529/330 364/522/332 347/521/362
f 352/527/339 351/505/341 336/487/344
f 165/531/163 368/536/368 367/532/367
f 43/534/54 162/533/164 367/532/367
f 241/535/265 367/532/367 368/536/368
f 79/538/67 269/537/273 368/536/368
f 369/539/369 370/544/371 168/540/370
f 44/542/169 240/696/267 369/539/369
f 80/543/170 168/540/370 370/544/371
f 270/546/274 370/697/371 369/547/369
f 374/549/372 373/553/375 372/550/373
f 265/552/269 241/535/265 371/551/374
f 265/552/269 372/550/373 373/553/375
f 269/537/273 288/554/276 373/553/375
f 241/535/265 269/537/273 374/549/372
f 378/555/376 377/558/379 376/556/377
f 240/548/267 265/552/269 375/557/378
f 270/546/274 240/548/267 376/556/377
f 288/554/276 270/546/274 377/558/379
f 288/554/276 378/555/376 375/557/378
f 384/559/380 380/573/390 379/560/381
f 381/562/383 380/573/390 384/559/380
f 235/564/245 387/575/391 390/565/385
f 256/367/251 383/630/382 379/566/381
f 381/562/383 382/563/384 255/369/244
f 385/568/386 386/572/389 254/569/246
f 388/570/387 394/589/393 391/571/388
f 391/571/388 392/588/404 386/572/389
f 380/573/390 389/582/398 388/574/387
f 254/569/246 386/572/389 387/575/391
f 390/565/385 389/582/398 380/573/390
f 379/566/381 388/570/387 385/568/386
f 401/576/392 400/597/402 394/577/393
f 393/579/395 399/590/405 402/580/396
f 396/581/397 395/578/394 389/582/398
f 386/572/389 392/588/404 393/579/395
f 393/579/395 396/581/397 390/565/385
f 389/582/398 395/578/394 394/577/393
f 402/580/396 408/595/409 407/583/399
f 406/584/400 403/604/416 397/585/401
f 391/571/388 397/585/401 398/587/403
f 400/586/402 397/585/401 391/571/388
f 402/580/396 401/576/392 395/578/394
f 392/588/404 398/587/403 399/590/405
f 413/591/406 412/698/412 406/592/400
f 405/593/407 411/607/415 414/594/408
f 404/596/410 405/593/407 399/590/405
f 399/590/405 405/593/407 408/595/409
f 407/583/399 406/592/400 400/597/402
f 397/585/401 403/604/416 404/596/410
f 413/598/406 419/699/428 418/599/411
f 417/601/413 424/700/429 423/602/414
f 403/604/416 409/701/421 410/605/417
f 412/606/412 409/701/421 403/604/416
f 414/594/408 413/591/406 407/583/399
f 404/596/410 410/605/417 411/607/415
f 418/608/411 419/702/428 416/609/418
f 416/609/418 419/702/428 420/611/420
f 415/613/419 416/703/418 410/614/417
f 418/616/411 415/613/419 409/615/421
f 420/618/420 419/699/428 413/598/406
f 410/614/417 416/703/418 417/601/413
f 423/620/414 424/704/429 422/621/422
f 411/603/415 423/602/414 421/623/423
f 421/623/423 422/705/422 420/618/420
f 422/624/422 424/706/429 417/612/413
f 426/625/424 427/707/430 429/626/425
f 430/628/426 427/707/430 426/625/424
f 425/366/250 429/708/425 383/630/382
f 384/559/380 427/709/430 430/631/426
f 429/632/425 427/709/430 384/559/380
f 382/563/384 430/631/426 428/368/252
usemtl Material.002
f 15/76/64 86/110/90 55/73/61
f 291/424/294 244/425/279 272/393/270
f 15/76/64 62/640/76 86/110/90
f 291/424/294 279/426/280 244/425/279
